SourceSans_Black-Italic.ufo
<glyph name="exclam" format="2">
	<unicode hex="0021"/>
	<advance width="350"/>
	<outline>
		<contour>
			<point x="120" y="238" type="line"/>
			<point x="224" y="238" type="line"/>
			<point x="306" y="530" type="line"/>
			<point x="338" y="670" type="line"/>
			<point x="178" y="670" type="line"/>
		</contour>
		<contour>
			<point x="126" y="-12" type="curve" smooth="yes"/>
			<point x="192" y="-12"/>
			<point x="236" y="44"/>
			<point x="236" y="100" type="curve" smooth="yes"/>
			<point x="236" y="148"/>
			<point x="204" y="184"/>
			<point x="156" y="184" type="curve" smooth="yes"/>
			<point x="90" y="184"/>
			<point x="46" y="126"/>
			<point x="46" y="72" type="curve" smooth="yes"/>
			<point x="46" y="22"/>
			<point x="78" y="-12"/>
		</contour>
	</outline>
</glyph>
<glyph name="dollar" format="2">
	<unicode hex="0024"/>
	<advance width="520"/>
	<outline>
		<contour>
			<point x="216" y="-12" type="curve" smooth="yes"/>
			<point x="358" y="-12"/>
			<point x="450" y="74"/>
			<point x="450" y="196" type="curve" smooth="yes"/>
			<point x="450" y="348"/>
			<point x="252" y="379"/>
			<point x="252" y="462" type="curve" smooth="yes"/>
			<point x="252" y="494"/>
			<point x="274" y="518"/>
			<point x="314" y="518" type="curve" smooth="yes"/>
			<point x="348" y="518"/>
			<point x="384" y="496"/>
			<point x="412" y="464" type="curve"/>
			<point x="504" y="552" type="line"/>
			<point x="450" y="614"/>
			<point x="396" y="646"/>
			<point x="318" y="646" type="curve" smooth="yes"/>
			<point x="184" y="646"/>
			<point x="94" y="562"/>
			<point x="94" y="444" type="curve" smooth="yes"/>
			<point x="94" y="299"/>
			<point x="292" y="269"/>
			<point x="292" y="176" type="curve" smooth="yes"/>
			<point x="292" y="138"/>
			<point x="268" y="116"/>
			<point x="220" y="116" type="curve" smooth="yes"/>
			<point x="176" y="116"/>
			<point x="132" y="144"/>
			<point x="100" y="178" type="curve"/>
			<point x="10" y="90" type="line"/>
			<point x="64" y="26"/>
			<point x="140" y="-12"/>
		</contour>
		<contour>
			<point x="132" y="-110" type="line"/>
			<point x="236" y="-110" type="line"/>
			<point x="270" y="54" type="line"/>
			<point x="164" y="54" type="line"/>
		</contour>
		<contour>
			<point x="276" y="606" type="line"/>
			<point x="380" y="606" type="line"/>
			<point x="408" y="754" type="line"/>
			<point x="304" y="754" type="line"/>
		</contour>
	</outline>
</glyph>
<glyph name="quotesingle" format="2">
	<unicode hex="0027"/>
	<advance width="310"/>
	<outline>
		<contour>
			<point x="118" y="338" type="line"/>
			<point x="222" y="338" type="line"/>
			<point x="284" y="530" type="line"/>
			<point x="316" y="670" type="line"/>
			<point x="158" y="670" type="line"/>
			<point x="138" y="530" type="line"/>
		</contour>
	</outline>
</glyph>
<glyph name="parenleft" format="2">
	<unicode hex="0028"/>
	<advance width="344"/>
	<outline>
		<contour>
			<point x="118" y="-184" type="curve"/>
			<point x="218" y="-142" type="line"/>
			<point x="194" y="-72"/>
			<point x="180" y="18"/>
			<point x="180" y="124" type="curve" smooth="yes"/>
			<point x="180" y="318"/>
			<point x="240" y="530"/>
			<point x="380" y="680" type="curve"/>
			<point x="288" y="734" type="line"/>
			<point x="134" y="580"/>
			<point x="52" y="372"/>
			<point x="52" y="120" type="curve" smooth="yes"/>
			<point x="52" y="0"/>
			<point x="82" y="-100"/>
		</contour>
	</outline>
</glyph>
<glyph name="five" format="2">
	<unicode hex="0035"/>
	<advance width="520"/>
	<outline>
		<contour>
			<point x="212" y="-12" type="curve" smooth="yes"/>
			<point x="344" y="-12"/>
			<point x="474" y="84"/>
			<point x="474" y="242" type="curve" smooth="yes"/>
			<point x="474" y="352"/>
			<point x="400" y="410"/>
			<point x="304" y="410" type="curve" smooth="yes"/>
			<point x="286" y="410"/>
			<point x="270" y="408"/>
			<point x="252" y="400" type="curve"/>
			<point x="280" y="500" type="line"/>
			<point x="500" y="500" type="line"/>
			<point x="526" y="634" type="line"/>
			<point x="168" y="634" type="line"/>
			<point x="90" y="312" type="line"/>
			<point x="148" y="264" type="line"/>
			<point x="192" y="288"/>
			<point x="206" y="292"/>
			<point x="236" y="292" type="curve" smooth="yes"/>
			<point x="284" y="292"/>
			<point x="312" y="266"/>
			<point x="312" y="216" type="curve" smooth="yes"/>
			<point x="312" y="152"/>
			<point x="266" y="116"/>
			<point x="214" y="116" type="curve" smooth="yes"/>
			<point x="170" y="116"/>
			<point x="130" y="140"/>
			<point x="96" y="186" type="curve"/>
			<point x="-4" y="104" type="line"/>
			<point x="58" y="18"/>
			<point x="136" y="-12"/>
		</contour>
	</outline>
</glyph>
<glyph name="eight" format="1">
	<unicode hex="0038"/>
	<advance width="520"/>
	<outline>
		<contour>
			<point x="238" y="-12" type="curve" smooth="yes"/>
			<point x="367" y="-12"/>
			<point x="480" y="62"/>
			<point x="480" y="178" type="curve" smooth="yes"/>
			<point x="480" y="242"/>
			<point x="450" y="291"/>
			<point x="400" y="324" type="curve"/>
			<point x="400" y="328" type="line"/>
			<point x="470" y="364"/>
			<point x="514" y="421"/>
			<point x="514" y="498" type="curve" smooth="yes"/>
			<point x="514" y="603"/>
			<point x="419" y="646"/>
			<point x="330" y="646" type="curve" smooth="yes"/>
			<point x="211" y="646"/>
			<point x="110" y="576"/>
			<point x="110" y="460" type="curve" smooth="yes"/>
			<point x="110" y="410"/>
			<point x="131" y="369"/>
			<point x="168" y="330" type="curve"/>
			<point x="168" y="326" type="line"/>
			<point x="92" y="297"/>
			<point x="32" y="237"/>
			<point x="32" y="152" type="curve" smooth="yes"/>
			<point x="32" y="35"/>
			<point x="145" y="-12"/>
		</contour>
		<contour>
			<point x="330" y="372" type="curve"/>
			<point x="278" y="401"/>
			<point x="250" y="425"/>
			<point x="250" y="466" type="curve" smooth="yes"/>
			<point x="250" y="510"/>
			<point x="281" y="534"/>
			<point x="318" y="534" type="curve" smooth="yes"/>
			<point x="364" y="534"/>
			<point x="378" y="507"/>
			<point x="378" y="474" type="curve" smooth="yes"/>
			<point x="378" y="429"/>
			<point x="355" y="397"/>
		</contour>
		<contour>
			<point x="250" y="98" type="curve" smooth="yes"/>
			<point x="198" y="98"/>
			<point x="174" y="133"/>
			<point x="174" y="170" type="curve" smooth="yes"/>
			<point x="174" y="217"/>
			<point x="201" y="255"/>
			<point x="232" y="280" type="curve"/>
			<point x="295" y="243"/>
			<point x="334" y="220"/>
			<point x="334" y="178" type="curve" smooth="yes"/>
			<point x="334" y="124"/>
			<point x="294" y="98"/>
		</contour>
	</outline>
</glyph>
<glyph name="question" format="2">
	<unicode hex="003F"/>
	<advance width="458"/>
	<outline>
		<contour>
			<point x="146" y="244" type="curve"/>
			<point x="282" y="232" type="line"/>
			<point x="304" y="362"/>
			<point x="472" y="372"/>
			<point x="472" y="526" type="curve" smooth="yes"/>
			<point x="472" y="624"/>
			<point x="394" y="682"/>
			<point x="280" y="682" type="curve" smooth="yes"/>
			<point x="220" y="682"/>
			<point x="164" y="658"/>
			<point x="114" y="610" type="curve"/>
			<point x="194" y="520" type="line"/>
			<point x="218" y="544"/>
			<point x="238" y="554"/>
			<point x="260" y="554" type="curve" smooth="yes"/>
			<point x="294" y="554"/>
			<point x="316" y="534"/>
			<point x="316" y="502" type="curve" smooth="yes"/>
			<point x="316" y="418"/>
			<point x="164" y="400"/>
		</contour>
		<contour>
			<point x="168" y="-12" type="curve" smooth="yes"/>
			<point x="234" y="-12"/>
			<point x="278" y="44"/>
			<point x="278" y="100" type="curve" smooth="yes"/>
			<point x="278" y="148"/>
			<point x="246" y="184"/>
			<point x="198" y="184" type="curve" smooth="yes"/>
			<point x="132" y="184"/>
			<point x="88" y="126"/>
			<point x="88" y="72" type="curve" smooth="yes"/>
			<point x="88" y="22"/>
			<point x="120" y="-12"/>
		</contour>
	</outline>
</glyph>
<glyph name="at" format="2">
	<unicode hex="0040"/>
	<advance width="886"/>
	<outline>
		<contour>
			<point x="390" y="-176" type="curve" smooth="yes"/>
			<point x="450" y="-176"/>
			<point x="504" y="-160"/>
			<point x="556" y="-132" type="curve"/>
			<point x="518" y="-52" type="line"/>
			<point x="484" y="-72"/>
			<point x="438" y="-80"/>
			<point x="404" y="-80" type="curve" smooth="yes"/>
			<point x="282" y="-80"/>
			<point x="150" y="2"/>
			<point x="150" y="180" type="curve" smooth="yes"/>
			<point x="150" y="408"/>
			<point x="334" y="582"/>
			<point x="496" y="582" type="curve" smooth="yes"/>
			<point x="688" y="582"/>
			<point x="750" y="464"/>
			<point x="750" y="346" type="curve" smooth="yes"/>
			<point x="750" y="204"/>
			<point x="680" y="134"/>
			<point x="630" y="134" type="curve" smooth="yes"/>
			<point x="590" y="134"/>
			<point x="578" y="158"/>
			<point x="590" y="212" type="curve" smooth="yes"/>
			<point x="642" y="436" type="line"/>
			<point x="546" y="436" type="line"/>
			<point x="530" y="396" type="line"/>
			<point x="528" y="396" type="line"/>
			<point x="512" y="430"/>
			<point x="490" y="444"/>
			<point x="460" y="444" type="curve" smooth="yes"/>
			<point x="348" y="444"/>
			<point x="254" y="322"/>
			<point x="254" y="194" type="curve" smooth="yes"/>
			<point x="254" y="106"/>
			<point x="308" y="46"/>
			<point x="382" y="46" type="curve" smooth="yes"/>
			<point x="422" y="46"/>
			<point x="470" y="72"/>
			<point x="494" y="110" type="curve"/>
			<point x="498" y="110" type="line"/>
			<point x="511" y="60"/>
			<point x="554" y="36"/>
			<point x="600" y="36" type="curve" smooth="yes"/>
			<point x="736" y="36"/>
			<point x="850" y="144"/>
			<point x="850" y="362" type="curve" smooth="yes"/>
			<point x="850" y="534"/>
			<point x="726" y="674"/>
			<point x="512" y="674" type="curve" smooth="yes"/>
			<point x="262" y="674"/>
			<point x="42" y="450"/>
			<point x="42" y="162" type="curve" smooth="yes"/>
			<point x="42" y="-66"/>
			<point x="208" y="-176"/>
		</contour>
		<contour>
			<point x="416" y="144" type="curve" smooth="yes"/>
			<point x="386" y="144"/>
			<point x="372" y="166"/>
			<point x="372" y="202" type="curve" smooth="yes"/>
			<point x="372" y="262"/>
			<point x="412" y="344"/>
			<point x="464" y="344" type="curve" smooth="yes"/>
			<point x="482" y="344"/>
			<point x="494" y="336"/>
			<point x="502" y="318" type="curve"/>
			<point x="472" y="188" type="line"/>
			<point x="450" y="156"/>
			<point x="434" y="144"/>
		</contour>
	</outline>
</glyph>
<glyph name="A" format="2">
	<unicode hex="0041"/>
	<advance width="562"/>
	<outline>
		<contour>
			<point x="-66" y="0" type="line"/>
			<point x="110" y="0" type="line"/>
			<point x="266" y="344" type="line" smooth="yes"/>
			<point x="294" y="406"/>
			<point x="316" y="466"/>
			<point x="342" y="530" type="curve"/>
			<point x="346" y="530" type="line"/>
			<point x="346" y="464"/>
			<point x="348" y="406"/>
			<point x="350" y="344" type="curve" smooth="yes"/>
			<point x="360" y="0" type="line"/>
			<point x="528" y="0" type="line"/>
			<point x="466" y="650" type="line"/>
			<point x="274" y="650" type="line"/>
		</contour>
		<contour>
			<point x="110" y="148" type="line"/>
			<point x="412" y="148" type="line"/>
			<point x="440" y="268" type="line"/>
			<point x="138" y="268" type="line"/>
		</contour>
	</outline>
	<anchor name="aboveUC" x="370" y="672"/>
	<anchor name="belowLC" x="230" y="-22"/>
	<anchor name="ogonekUC" x="432" y="0"/>
</glyph>
<glyph name="E" format="1">
	<unicode hex="0045"/>
	<advance width="534"/>
	<outline>
		<contour>
			<point x="26" y="0" type="line"/>
			<point x="432" y="0" type="line"/>
			<point x="458" y="134" type="line"/>
			<point x="212" y="134" type="line"/>
			<point x="240" y="268" type="line"/>
			<point x="442" y="268" type="line"/>
			<point x="468" y="402" type="line"/>
			<point x="266" y="402" type="line"/>
			<point x="288" y="516" type="line"/>
			<point x="526" y="516" type="line"/>
			<point x="552" y="650" type="line"/>
			<point x="156" y="650" type="line"/>
		</contour>
		<contour>
			<point name="aboveUC" x="360" y="672" type="move"/>
		</contour>
		<contour>
			<point name="belowLC" x="250" y="-22" type="move"/>
		</contour>
		<contour>
			<point name="ogonekUC" x="348" y="0" type="move"/>
		</contour>
	</outline>
</glyph>
<glyph name="F" format="2">
	<unicode hex="0046"/>
	<advance width="516"/>
	<outline>
		<contour>
			<point x="26" y="0" type="line"/>
			<point x="186" y="0" type="line"/>
			<point x="236" y="248" type="line"/>
			<point x="438" y="248" type="line"/>
			<point x="464" y="382" type="line"/>
			<point x="262" y="382" type="line"/>
			<point x="288" y="516" type="line"/>
			<point x="526" y="516" type="line"/>
			<point x="552" y="650" type="line"/>
			<point x="156" y="650" type="line"/>
		</contour>
	</outline>
	<anchor name="aboveUC" x="360" y="672"/>
	<anchor name="belowLC" x="110" y="-22"/>
</glyph>
<glyph name="H" format="2">
	<unicode hex="0048"/>
	<advance width="664"/>
	<outline>
		<contour>
			<point x="26" y="0" type="line"/>
			<point x="186" y="0" type="line"/>
			<point x="238" y="266" type="line"/>
			<point x="432" y="266" type="line"/>
			<point x="378" y="0" type="line"/>
			<point x="538" y="0" type="line"/>
			<point x="668" y="650" type="line"/>
			<point x="508" y="650" type="line"/>
			<point x="460" y="406" type="line"/>
			<point x="266" y="406" type="line"/>
			<point x="316" y="650" type="line"/>
			<point x="156" y="650" type="line"/>
		</contour>
	</outline>
	<anchor name="aboveUC" x="410" y="672"/>
	<anchor name="belowLC" x="290" y="-22"/>
</glyph>
<glyph name="J" format="2">
	<unicode hex="004A"/>
	<advance width="504"/>
	<outline>
		<contour>
			<point x="182" y="-12" type="curve" smooth="yes"/>
			<point x="330" y="-12"/>
			<point x="402" y="92"/>
			<point x="426" y="212" type="curve" smooth="yes"/>
			<point x="514" y="650" type="line"/>
			<point x="354" y="650" type="line"/>
			<point x="272" y="240" type="line" smooth="yes"/>
			<point x="256" y="160"/>
			<point x="228" y="126"/>
			<point x="182" y="126" type="curve" smooth="yes"/>
			<point x="139" y="126"/>
			<point x="106" y="150"/>
			<point x="86" y="180" type="curve"/>
			<point x="-8" y="94" type="line"/>
			<point x="35" y="22"/>
			<point x="108" y="-12"/>
		</contour>
	</outline>
	<anchor name="aboveUC" x="440" y="672"/>
	<anchor name="belowLC" x="190" y="-22"/>
</glyph>
<glyph name="K" format="2">
	<unicode hex="004B"/>
	<advance width="612"/>
	<outline>
		<contour>
			<point x="26" y="0" type="line"/>
			<point x="186" y="0" type="line"/>
			<point x="222" y="180" type="line"/>
			<point x="306" y="276" type="line"/>
			<point x="402" y="0" type="line"/>
			<point x="568" y="0" type="line"/>
			<point x="424" y="376" type="line"/>
			<point x="658" y="650" type="line"/>
			<point x="484" y="650" type="line"/>
			<point x="271" y="404" type="line"/>
			<point x="267" y="404" type="line"/>
			<point x="316" y="650" type="line"/>
			<point x="156" y="650" type="line"/>
		</contour>
	</outline>
	<anchor name="aboverightUC" x="620" y="672"/>
	<anchor name="aboveUC" x="400" y="672"/>
	<anchor name="belowLC" x="300" y="-22"/>
</glyph>
<glyph name="P" format="2">
	<unicode hex="0050"/>
	<advance width="596"/>
	<outline>
		<contour>
			<point x="26" y="0" type="line"/>
			<point x="186" y="0" type="line"/>
			<point x="228" y="212" type="line"/>
			<point x="294" y="212" type="line" smooth="yes"/>
			<point x="457" y="212"/>
			<point x="600" y="282"/>
			<point x="600" y="472" type="curve" smooth="yes"/>
			<point x="600" y="602"/>
			<point x="499" y="650"/>
			<point x="370" y="650" type="curve" smooth="yes"/>
			<point x="156" y="650" type="line"/>
		</contour>
		<contour>
			<point x="254" y="338" type="line"/>
			<point x="290" y="524" type="line"/>
			<point x="348" y="524" type="line" smooth="yes"/>
			<point x="407" y="524"/>
			<point x="442" y="500"/>
			<point x="442" y="448" type="curve" smooth="yes"/>
			<point x="442" y="376"/>
			<point x="395" y="338"/>
			<point x="313" y="338" type="curve" smooth="yes"/>
		</contour>
	</outline>
	<anchor name="aboverightUC" x="570" y="672"/>
	<anchor name="aboveUC" x="390" y="672"/>
	<anchor name="belowLC" x="110" y="-22"/>
</glyph>
<glyph name="V" format="2">
	<unicode hex="0056"/>
	<advance width="576"/>
	<outline>
		<contour>
			<point x="132" y="0" type="line"/>
			<point x="326" y="0" type="line"/>
			<point x="660" y="650" type="line"/>
			<point x="484" y="650" type="line"/>
			<point x="352" y="346" type="line" smooth="yes"/>
			<point x="323" y="277"/>
			<point x="295" y="209"/>
			<point x="266" y="140" type="curve"/>
			<point x="262" y="140" type="line"/>
			<point x="262" y="209"/>
			<point x="260" y="278"/>
			<point x="258" y="346" type="curve" smooth="yes"/>
			<point x="246" y="650" type="line"/>
			<point x="78" y="650" type="line"/>
		</contour>
	</outline>
	<anchor name="aboveUC" x="370" y="672"/>
	<anchor name="belowLC" x="220" y="-22"/>
</glyph>
<glyph name="W" format="2">
	<unicode hex="0057"/>
	<advance width="808"/>
	<outline>
		<contour>
			<point x="74" y="0" type="line"/>
			<point x="272" y="0" type="line"/>
			<point x="382" y="278" type="line" smooth="yes"/>
			<point x="400" y="324"/>
			<point x="422" y="386"/>
			<point x="440" y="440" type="curve"/>
			<point x="444" y="440" type="line"/>
			<point x="438" y="384"/>
			<point x="434" y="324"/>
			<point x="432" y="278" type="curve"/>
			<point x="424" y="0" type="line"/>
			<point x="622" y="0" type="line"/>
			<point x="866" y="650" type="line"/>
			<point x="714" y="650" type="line"/>
			<point x="616" y="356" type="line" smooth="yes"/>
			<point x="596" y="289"/>
			<point x="570" y="218"/>
			<point x="548" y="148" type="curve"/>
			<point x="544" y="148" type="line"/>
			<point x="548" y="218"/>
			<point x="552" y="290"/>
			<point x="554" y="356" type="curve" smooth="yes"/>
			<point x="554" y="650" type="line"/>
			<point x="421" y="650" type="line"/>
			<point x="298" y="356" type="line" smooth="yes"/>
			<point x="273" y="289"/>
			<point x="242" y="217"/>
			<point x="216" y="148" type="curve"/>
			<point x="212" y="148" type="line"/>
			<point x="222" y="217"/>
			<point x="229" y="288"/>
			<point x="236" y="356" type="curve" smooth="yes"/>
			<point x="262" y="650" type="line"/>
			<point x="98" y="650" type="line"/>
		</contour>
	</outline>
	<anchor name="aboverightUC" x="800" y="672"/>
	<anchor name="aboveUC" x="490" y="672"/>
	<anchor name="belowLC" x="340" y="-22"/>
</glyph>
<glyph name="Y" format="2">
	<unicode hex="0059"/>
	<advance width="528"/>
	<outline>
		<contour>
			<point x="137" y="0" type="line"/>
			<point x="296" y="0" type="line"/>
			<point x="342" y="228" type="line"/>
			<point x="618" y="650" type="line"/>
			<point x="446" y="650" type="line"/>
			<point x="368" y="508" type="line" smooth="yes"/>
			<point x="340" y="458"/>
			<point x="318" y="414"/>
			<point x="292" y="362" type="curve"/>
			<point x="288" y="362" type="line"/>
			<point x="280" y="414"/>
			<point x="274" y="456"/>
			<point x="266" y="506" type="curve" smooth="yes"/>
			<point x="245" y="650" type="line"/>
			<point x="79" y="650" type="line"/>
			<point x="182" y="228" type="line"/>
		</contour>
	</outline>
	<anchor name="aboverightUC" x="570" y="672"/>
	<anchor name="aboveUC" x="350" y="672"/>
	<anchor name="belowLC" x="220" y="-22"/>
</glyph>
<glyph name="backslash" format="2">
	<unicode hex="005C"/>
	<advance width="324"/>
	<outline>
		<contour>
			<point x="144" y="-160" type="line"/>
			<point x="248" y="-160" type="line"/>
			<point x="186" y="710" type="line"/>
			<point x="84" y="710" type="line"/>
		</contour>
	</outline>
</glyph>
<glyph name="g" format="2">
	<unicode hex="0067"/>
	<advance width="552"/>
	<outline>
		<contour>
			<point x="180" y="-196" type="curve" smooth="yes"/>
			<point x="322" y="-196"/>
			<point x="418" y="-130"/>
			<point x="448" y="20" type="curve" smooth="yes"/>
			<point x="544" y="500" type="line"/>
			<point x="414" y="500" type="line"/>
			<point x="392" y="450" type="line"/>
			<point x="390" y="450" type="line"/>
			<point x="372" y="488"/>
			<point x="330" y="512"/>
			<point x="288" y="512" type="curve" smooth="yes"/>
			<point x="150" y="512"/>
			<point x="28" y="372"/>
			<point x="28" y="194" type="curve" smooth="yes"/>
			<point x="28" y="76"/>
			<point x="90" y="20"/>
			<point x="174" y="20" type="curve" smooth="yes"/>
			<point x="226" y="20"/>
			<point x="278" y="44"/>
			<point x="320" y="88" type="curve"/>
			<point x="294" y="6" type="line" smooth="yes"/>
			<point x="278" y="-44"/>
			<point x="238" y="-70"/>
			<point x="184" y="-70" type="curve" smooth="yes"/>
			<point x="140" y="-70"/>
			<point x="98" y="-52"/>
			<point x="60" y="-26" type="curve"/>
			<point x="-6" y="-126" type="line"/>
			<point x="54" y="-180"/>
			<point x="124" y="-196"/>
		</contour>
		<contour>
			<point x="238" y="150" type="curve" smooth="yes"/>
			<point x="212" y="150"/>
			<point x="194" y="170"/>
			<point x="194" y="214" type="curve" smooth="yes"/>
			<point x="194" y="314"/>
			<point x="242" y="382"/>
			<point x="300" y="382" type="curve" smooth="yes"/>
			<point x="318" y="382"/>
			<point x="340" y="370"/>
			<point x="352" y="344" type="curve"/>
			<point x="326" y="206" type="line"/>
			<point x="300" y="160"/>
			<point x="266" y="150"/>
		</contour>
	</outline>
	<anchor name="aboveLC" x="310" y="522"/>
	<anchor name="belowLC" x="200" y="-182"/>
</glyph>
<glyph name="u" format="2">
	<unicode hex="0075"/>
	<advance width="552"/>
	<outline>
		<contour>
			<point x="150" y="-12" type="curve" smooth="yes"/>
			<point x="210" y="-12"/>
			<point x="268" y="24"/>
			<point x="310" y="64" type="curve"/>
			<point x="314" y="64" type="line"/>
			<point x="314" y="0" type="line"/>
			<point x="444" y="0" type="line"/>
			<point x="542" y="500" type="line"/>
			<point x="382" y="500" type="line"/>
			<point x="320" y="180" type="line"/>
			<point x="288" y="142"/>
			<point x="264" y="124"/>
			<point x="238" y="124" type="curve" smooth="yes"/>
			<point x="212" y="124"/>
			<point x="196" y="138"/>
			<point x="196" y="166" type="curve" smooth="yes"/>
			<point x="196" y="178"/>
			<point x="200" y="192"/>
			<point x="204" y="210" type="curve" smooth="yes"/>
			<point x="262" y="500" type="line"/>
			<point x="102" y="500" type="line"/>
			<point x="40" y="190" type="line" smooth="yes"/>
			<point x="35" y="166"/>
			<point x="32" y="140"/>
			<point x="32" y="118" type="curve" smooth="yes"/>
			<point x="32" y="32"/>
			<point x="68" y="-12"/>
		</contour>
	</outline>
	<anchor name="aboveLC" x="320" y="522"/>
	<anchor name="baseLC" x="210" y="0"/>
	<anchor name="belowLC" x="240" y="-22"/>
	<anchor name="hornLC" x="474" y="512"/>
	<anchor name="ogonekLC" x="350" y="0"/>
</glyph>
<glyph name="x" format="2">
	<unicode hex="0078"/>
	<advance width="514"/>
	<outline>
		<contour>
			<point x="-38" y="0" type="line"/>
			<point x="133" y="0" type="line"/>
			<point x="179" y="76" type="line" smooth="yes"/>
			<point x="196" y="105"/>
			<point x="214" y="134"/>
			<point x="230" y="162" type="curve"/>
			<point x="234" y="162" type="line"/>
			<point x="243" y="134"/>
			<point x="251" y="104"/>
			<point x="260" y="76" type="curve" smooth="yes"/>
			<point x="286" y="0" type="line"/>
			<point x="450" y="0" type="line"/>
			<point x="360" y="232" type="line"/>
			<point x="552" y="500" type="line"/>
			<point x="382" y="500" type="line"/>
			<point x="344" y="422" type="line" smooth="yes"/>
			<point x="330" y="394"/>
			<point x="312" y="366"/>
			<point x="297" y="338" type="curve"/>
			<point x="293" y="338" type="line"/>
			<point x="286" y="366"/>
			<point x="278" y="394"/>
			<point x="271" y="422" type="curve"/>
			<point x="246" y="500" type="line"/>
			<point x="84" y="500" type="line"/>
			<point x="168" y="268" type="line"/>
		</contour>
	</outline>
	<anchor name="aboveLC" x="310" y="522"/>
	<anchor name="belowLC" x="210" y="-22"/>
</glyph>
<glyph name="y" format="2">
	<unicode hex="0079"/>
	<advance width="518"/>
	<outline>
		<contour>
			<point x="64" y="-188" type="curve" smooth="yes"/>
			<point x="169" y="-188"/>
			<point x="240" y="-134"/>
			<point x="318" y="18" type="curve" smooth="yes"/>
			<point x="564" y="500" type="line"/>
			<point x="402" y="500" type="line"/>
			<point x="314" y="296" type="line" smooth="yes"/>
			<point x="296" y="255"/>
			<point x="275" y="198"/>
			<point x="256" y="156" type="curve"/>
			<point x="252" y="156" type="line"/>
			<point x="252" y="199"/>
			<point x="250" y="256"/>
			<point x="246" y="296" type="curve" smooth="yes"/>
			<point x="226" y="500" type="line"/>
			<point x="62" y="500" type="line"/>
			<point x="152" y="4" type="line"/>
			<point x="145" y="-9" type="line" smooth="yes"/>
			<point x="127" y="-42"/>
			<point x="93" y="-58"/>
			<point x="62" y="-58" type="curve" smooth="yes"/>
			<point x="47" y="-58"/>
			<point x="35" y="-56"/>
			<point x="22" y="-50" type="curve"/>
			<point x="-24" y="-166" type="line"/>
			<point x="-4" y="-180"/>
			<point x="28" y="-188"/>
		</contour>
	</outline>
	<anchor name="aboveLC" x="310" y="522"/>
	<anchor name="aboverightLC" x="500" y="522"/>
	<anchor name="belowLC" x="132" y="-182"/>
</glyph>
<glyph name="z" format="2">
	<unicode hex="007A"/>
	<advance width="456"/>
	<outline>
		<contour>
			<point x="-10" y="0" type="line"/>
			<point x="380" y="0" type="line"/>
			<point x="404" y="124" type="line"/>
			<point x="214" y="124" type="line"/>
			<point x="454" y="408" type="line"/>
			<point x="472" y="500" type="line"/>
			<point x="108" y="500" type="line"/>
			<point x="84" y="376" type="line"/>
			<point x="248" y="376" type="line"/>
			<point x="8" y="90" type="line"/>
		</contour>
	</outline>
	<anchor name="aboveLC" x="300" y="522"/>
	<anchor name="belowLC" x="190" y="-22"/>
	<anchor name="center" x="230" y="250"/>
</glyph>
<glyph name="bar" format="2">
	<unicode hex="007C"/>
	<advance width="264"/>
	<outline>
		<contour>
			<point x="86" y="-250" type="line"/>
			<point x="184" y="-250" type="line"/>
			<point x="184" y="750" type="line"/>
			<point x="86" y="750" type="line"/>
		</contour>
	</outline>
</glyph>
<glyph name="section" format="2">
	<unicode hex="00A7"/>
	<advance width="516"/>
	<outline>
		<contour>
			<point x="362" y="122" type="line"/>
			<point x="440" y="156"/>
			<point x="490" y="210"/>
			<point x="490" y="292" type="curve" smooth="yes"/>
			<point x="490" y="440"/>
			<point x="276" y="480"/>
			<point x="276" y="536" type="curve" smooth="yes"/>
			<point x="276" y="560"/>
			<point x="294" y="572"/>
			<point x="318" y="572" type="curve" smooth="yes"/>
			<point x="356" y="572"/>
			<point x="390" y="546"/>
			<point x="416" y="522" type="curve"/>
			<point x="496" y="610" type="line"/>
			<point x="446" y="662"/>
			<point x="382" y="692"/>
			<point x="318" y="692" type="curve" smooth="yes"/>
			<point x="206" y="692"/>
			<point x="132" y="618"/>
			<point x="132" y="520" type="curve" smooth="yes"/>
			<point x="132" y="378"/>
			<point x="352" y="352"/>
			<point x="352" y="274" type="curve" smooth="yes"/>
			<point x="352" y="230"/>
			<point x="324" y="208"/>
			<point x="282" y="198" type="curve"/>
		</contour>
		<contour>
			<point x="196" y="-88" type="curve" smooth="yes"/>
			<point x="316" y="-88"/>
			<point x="396" y="-20"/>
			<point x="396" y="86" type="curve" smooth="yes"/>
			<point x="396" y="228"/>
			<point x="182" y="250"/>
			<point x="182" y="330" type="curve" smooth="yes"/>
			<point x="182" y="374"/>
			<point x="218" y="396"/>
			<point x="254" y="404" type="curve"/>
			<point x="186" y="474" type="line"/>
			<point x="108" y="450"/>
			<point x="46" y="392"/>
			<point x="46" y="312" type="curve" smooth="yes"/>
			<point x="46" y="158"/>
			<point x="252" y="128"/>
			<point x="252" y="68" type="curve" smooth="yes"/>
			<point x="252" y="44"/>
			<point x="236" y="30"/>
			<point x="204" y="30" type="curve" smooth="yes"/>
			<point x="156" y="30"/>
			<point x="106" y="66"/>
			<point x="74" y="98" type="curve"/>
			<point x="-4" y="0" type="line"/>
			<point x="52" y="-56"/>
			<point x="130" y="-88"/>
		</contour>
	</outline>
</glyph>
<glyph name="logicalnot" format="2">
	<unicode hex="00AC"/>
	<advance width="520"/>
	<outline>
		<contour>
			<point x="382" y="92" type="line"/>
			<point x="496" y="92" type="line"/>
			<point x="496" y="386" type="line"/>
			<point x="48" y="386" type="line"/>
			<point x="48" y="274" type="line"/>
			<point x="382" y="274" type="line"/>
		</contour>
	</outline>
</glyph>
<glyph name="degree" format="2">
	<unicode hex="00B0"/>
	<advance width="362"/>
	<outline>
		<contour>
			<point x="224" y="392" type="curve" smooth="yes"/>
			<point x="308" y="392"/>
			<point x="384" y="464"/>
			<point x="384" y="554" type="curve" smooth="yes"/>
			<point x="384" y="634"/>
			<point x="330" y="686"/>
			<point x="252" y="686" type="curve" smooth="yes"/>
			<point x="168" y="686"/>
			<point x="92" y="614"/>
			<point x="92" y="524" type="curve" smooth="yes"/>
			<point x="92" y="444"/>
			<point x="146" y="392"/>
		</contour>
		<contour>
			<point x="230" y="468" type="curve" smooth="yes"/>
			<point x="194" y="468"/>
			<point x="176" y="494"/>
			<point x="176" y="524" type="curve" smooth="yes"/>
			<point x="176" y="570"/>
			<point x="204" y="610"/>
			<point x="246" y="610" type="curve" smooth="yes"/>
			<point x="282" y="610"/>
			<point x="300" y="584"/>
			<point x="300" y="554" type="curve" smooth="yes"/>
			<point x="300" y="508"/>
			<point x="272" y="468"/>
		</contour>
	</outline>
</glyph>
<glyph name="mu" format="2">
	<unicode hex="00B5"/>
	<unicode hex="03BC"/>
	<advance width="568"/>
	<outline>
		<contour>
			<point x="-28" y="-176" type="line"/>
			<point x="134" y="-176" type="line"/>
			<point x="138" y="-112"/>
			<point x="146" y="-54"/>
			<point x="160" y="14" type="curve"/>
			<point x="174" y="-4"/>
			<point x="198" y="-10"/>
			<point x="218" y="-10" type="curve" smooth="yes"/>
			<point x="254" y="-10"/>
			<point x="300" y="8"/>
			<point x="326" y="64" type="curve"/>
			<point x="330" y="64" type="line"/>
			<point x="330" y="64"/>
			<point x="330" y="64"/>
			<point x="330" y="64" type="curve" smooth="yes"/>
			<point x="332" y="18"/>
			<point x="364" y="-12"/>
			<point x="440" y="-12" type="curve" smooth="yes"/>
			<point x="472" y="-12"/>
			<point x="496" y="-6"/>
			<point x="512" y="0" type="curve"/>
			<point x="518" y="118" type="line"/>
			<point x="510" y="116"/>
			<point x="500" y="116"/>
			<point x="494" y="116" type="curve" smooth="yes"/>
			<point x="480" y="116"/>
			<point x="468" y="122"/>
			<point x="468" y="142" type="curve" smooth="yes"/>
			<point x="468" y="166"/>
			<point x="500" y="302"/>
			<point x="552" y="500" type="curve"/>
			<point x="390" y="500" type="line"/>
			<point x="328" y="184" type="line"/>
			<point x="300" y="140"/>
			<point x="272" y="122"/>
			<point x="243" y="122" type="curve" smooth="yes"/>
			<point x="216" y="122"/>
			<point x="202" y="133"/>
			<point x="202" y="164" type="curve" smooth="yes"/>
			<point x="202" y="172"/>
			<point x="204" y="192"/>
			<point x="208" y="210" type="curve" smooth="yes"/>
			<point x="268" y="500" type="line"/>
			<point x="108" y="500" type="line"/>
		</contour>
	</outline>
	<anchor name="aboveLC" x="330" y="522"/>
	<anchor name="belowLC" x="250" y="-182"/>
</glyph>
<glyph name="questiondown" format="2">
	<unicode hex="00BF"/>
	<advance width="458"/>
	<outline>
		<contour>
			<point x="192" y="-182" type="curve" smooth="yes"/>
			<point x="252" y="-182"/>
			<point x="308" y="-158"/>
			<point x="358" y="-110" type="curve"/>
			<point x="278" y="-20" type="line"/>
			<point x="254" y="-44"/>
			<point x="234" y="-54"/>
			<point x="212" y="-54" type="curve" smooth="yes"/>
			<point x="178" y="-54"/>
			<point x="156" y="-34"/>
			<point x="156" y="-2" type="curve" smooth="yes"/>
			<point x="156" y="82"/>
			<point x="308" y="100"/>
			<point x="326" y="256" type="curve"/>
			<point x="190" y="268" type="line"/>
			<point x="168" y="138"/>
			<point x="0" y="128"/>
			<point x="0" y="-26" type="curve" smooth="yes"/>
			<point x="0" y="-124"/>
			<point x="78" y="-182"/>
		</contour>
		<contour>
			<point x="274" y="316" type="curve" smooth="yes"/>
			<point x="340" y="316"/>
			<point x="384" y="374"/>
			<point x="384" y="428" type="curve" smooth="yes"/>
			<point x="384" y="478"/>
			<point x="352" y="512"/>
			<point x="304" y="512" type="curve" smooth="yes"/>
			<point x="238" y="512"/>
			<point x="194" y="456"/>
			<point x="194" y="400" type="curve" smooth="yes"/>
			<point x="194" y="352"/>
			<point x="226" y="316"/>
		</contour>
	</outline>
</glyph>
<glyph name="AE" format="2">
	<unicode hex="00C6"/>
	<advance width="852"/>
	<outline>
		<contour>
			<point x="-36" y="0" type="line"/>
			<point x="144" y="0" type="line"/>
			<point x="350" y="360" type="line" smooth="yes"/>
			<point x="385" y="420"/>
			<point x="418" y="474"/>
			<point x="454" y="536" type="curve"/>
			<point x="457" y="536" type="line"/>
			<point x="350" y="0" type="line"/>
			<point x="748" y="0" type="line"/>
			<point x="774" y="134" type="line"/>
			<point x="536" y="134" type="line"/>
			<point x="564" y="268" type="line"/>
			<point x="758" y="268" type="line"/>
			<point x="784" y="402" type="line"/>
			<point x="590" y="402" type="line"/>
			<point x="612" y="516" type="line"/>
			<point x="842" y="516" type="line"/>
			<point x="868" y="650" type="line"/>
			<point x="372" y="650" type="line"/>
		</contour>
		<contour>
			<point x="138" y="140" type="line"/>
			<point x="460" y="140" type="line"/>
			<point x="484" y="264" type="line"/>
			<point x="164" y="264" type="line"/>
		</contour>
	</outline>
	<anchor name="aboveUC" x="620" y="672"/>
</glyph>
<glyph name="Eth" format="2">
	<unicode hex="00D0"/>
	<advance width="650"/>
	<outline>
		<contour>
			<point x="30" y="286" type="line"/>
			<point x="386" y="286" type="line"/>
			<point x="404" y="382" type="line"/>
			<point x="124" y="382" type="line"/>
			<point x="48" y="376" type="line"/>
		</contour>
		<component base="D" xOffset="18"/>
	</outline>
</glyph>
<glyph name="Oslash" format="2">
	<unicode hex="00D8"/>
	<advance width="670"/>
	<outline>
		<contour>
			<point x="58" y="-44" type="line"/>
			<point x="726" y="638" type="line"/>
			<point x="656" y="702" type="line"/>
			<point x="-12" y="20" type="line"/>
		</contour>
		<component base="O"/>
	</outline>
	<anchor name="aboveUC" x="410" y="672"/>
	<anchor name="belowLC" x="260" y="-22"/>
</glyph>
<glyph name="eth" format="1">
	<unicode hex="00F0"/>
	<advance width="560"/>
	<outline>
		<contour>
			<point x="226" y="-12" type="curve" smooth="yes"/>
			<point x="394" y="-12"/>
			<point x="518" y="138"/>
			<point x="518" y="376" type="curve" smooth="yes"/>
			<point x="518" y="546"/>
			<point x="410" y="664"/>
			<point x="262" y="744" type="curve"/>
			<point x="184" y="652" type="line"/>
			<point x="312" y="574"/>
			<point x="360" y="491"/>
			<point x="360" y="360" type="curve" smooth="yes"/>
			<point x="360" y="200"/>
			<point x="307" y="116"/>
			<point x="246" y="116" type="curve" smooth="yes"/>
			<point x="207" y="116"/>
			<point x="188" y="152"/>
			<point x="188" y="198" type="curve" smooth="yes"/>
			<point x="188" y="264"/>
			<point x="218" y="338"/>
			<point x="280" y="338" type="curve" smooth="yes"/>
			<point x="316" y="338"/>
			<point x="344" y="314"/>
			<point x="358" y="286" type="curve"/>
			<point x="380" y="368" type="line"/>
			<point x="368" y="430"/>
			<point x="315" y="458"/>
			<point x="258" y="458" type="curve" smooth="yes"/>
			<point x="112" y="458"/>
			<point x="30" y="316"/>
			<point x="30" y="186" type="curve" smooth="yes"/>
			<point x="30" y="62"/>
			<point x="108" y="-12"/>
		</contour>
		<contour>
			<point x="172" y="476" type="line"/>
			<point x="566" y="632" type="line"/>
			<point x="536" y="706" type="line"/>
			<point x="142" y="550" type="line"/>
		</contour>
		<contour>
			<point name="aboveUC" x="390" y="720" type="move"/>
		</contour>
		<contour>
			<point name="belowLC" x="220" y="-22" type="move"/>
		</contour>
	</outline>
</glyph>
<glyph name="aogonek" format="2">
	<unicode hex="0105"/>
	<advance width="558"/>
	<outline>
		<contour>
			<point x="332" y="-220" type="curve" smooth="yes"/>
			<point x="382" y="-220"/>
			<point x="424" y="-204"/>
			<point x="456" y="-182" type="curve"/>
			<point x="426" y="-110" type="line"/>
			<point x="418" y="-114"/>
			<point x="410" y="-118"/>
			<point x="396" y="-118" type="curve" smooth="yes"/>
			<point x="378" y="-118"/>
			<point x="364" y="-108"/>
			<point x="364" y="-90" type="curve" smooth="yes"/>
			<point x="364" y="-50"/>
			<point x="396" y="-12"/>
			<point x="450" y="0" type="curve"/>
			<point x="550" y="500" type="line"/>
			<point x="422" y="500" type="line"/>
			<point x="400" y="450" type="line"/>
			<point x="398" y="450" type="line"/>
			<point x="380" y="488"/>
			<point x="336" y="512"/>
			<point x="294" y="512" type="curve" smooth="yes"/>
			<point x="156" y="512"/>
			<point x="28" y="362"/>
			<point x="28" y="172" type="curve" smooth="yes"/>
			<point x="28" y="54"/>
			<point x="80" y="-12"/>
			<point x="168" y="-12" type="curve" smooth="yes"/>
			<point x="216" y="-12"/>
			<point x="274" y="16"/>
			<point x="318" y="62" type="curve"/>
			<point x="320" y="62" type="line"/>
			<point x="320" y="0" type="line"/>
			<point x="280" y="-26"/>
			<point x="236" y="-80"/>
			<point x="236" y="-136" type="curve" smooth="yes"/>
			<point x="236" y="-190"/>
			<point x="276" y="-220"/>
		</contour>
		<contour>
			<point x="240" y="118" type="curve" smooth="yes"/>
			<point x="212" y="118"/>
			<point x="194" y="140"/>
			<point x="194" y="192" type="curve" smooth="yes"/>
			<point x="194" y="304"/>
			<point x="248" y="382"/>
			<point x="306" y="382" type="curve" smooth="yes"/>
			<point x="324" y="382"/>
			<point x="348" y="370"/>
			<point x="360" y="344" type="curve"/>
			<point x="328" y="184" type="line"/>
			<point x="302" y="130"/>
			<point x="266" y="118"/>
		</contour>
	</outline>
	<anchor name="aboveLC" x="320" y="522"/>
</glyph>
<glyph name="dcroat" format="2">
	<unicode hex="0111"/>
	<advance width="560"/>
	<outline>
		<contour>
			<point x="168" y="-12" type="curve" smooth="yes"/>
			<point x="216" y="-12"/>
			<point x="274" y="16"/>
			<point x="318" y="62" type="curve"/>
			<point x="320" y="62" type="line"/>
			<point x="320" y="0" type="line"/>
			<point x="450" y="0" type="line"/>
			<point x="590" y="696" type="line"/>
			<point x="430" y="696" type="line"/>
			<point x="392" y="498" type="line"/>
			<point x="382" y="404" type="line"/>
			<point x="380" y="404" type="line"/>
			<point x="362" y="438"/>
			<point x="322" y="460"/>
			<point x="276" y="460" type="curve" smooth="yes"/>
			<point x="150" y="460"/>
			<point x="28" y="332"/>
			<point x="28" y="172" type="curve" smooth="yes"/>
			<point x="28" y="54"/>
			<point x="80" y="-12"/>
		</contour>
		<contour>
			<point x="240" y="118" type="curve" smooth="yes"/>
			<point x="212" y="118"/>
			<point x="194" y="140"/>
			<point x="194" y="192" type="curve" smooth="yes"/>
			<point x="194" y="272"/>
			<point x="242" y="330"/>
			<point x="288" y="330" type="curve" smooth="yes"/>
			<point x="316" y="330"/>
			<point x="340" y="316"/>
			<point x="350" y="292" type="curve"/>
			<point x="328" y="184" type="line"/>
			<point x="300" y="130"/>
			<point x="266" y="118"/>
		</contour>
		<contour>
			<point x="238" y="522" type="line"/>
			<point x="552" y="522" type="line"/>
			<point x="626" y="528" type="line"/>
			<point x="648" y="626" type="line"/>
			<point x="262" y="626" type="line"/>
		</contour>
	</outline>
	<anchor name="aboveUC" x="340" y="722"/>
	<anchor name="belowLC" x="230" y="-22"/>
</glyph>
<glyph name="Eogonek" format="1">
	<unicode hex="0118"/>
	<advance width="536"/>
	<outline>
		<contour>
			<point x="310" y="-226" type="curve" smooth="yes"/>
			<point x="346" y="-226"/>
			<point x="394" y="-212"/>
			<point x="424" y="-192" type="curve"/>
			<point x="394" y="-116" type="line"/>
			<point x="384" y="-122"/>
			<point x="377" y="-124"/>
			<point x="370" y="-124" type="curve" smooth="yes"/>
			<point x="352" y="-124"/>
			<point x="336" y="-114"/>
			<point x="336" y="-94" type="curve" smooth="yes"/>
			<point x="336" y="-66"/>
			<point x="372" y="-10"/>
			<point x="432" y="0" type="curve"/>
			<point x="458" y="134" type="line"/>
			<point x="212" y="134" type="line"/>
			<point x="240" y="268" type="line"/>
			<point x="442" y="268" type="line"/>
			<point x="468" y="402" type="line"/>
			<point x="266" y="402" type="line"/>
			<point x="288" y="516" type="line"/>
			<point x="526" y="516" type="line"/>
			<point x="552" y="650" type="line"/>
			<point x="156" y="650" type="line"/>
			<point x="26" y="0" type="line"/>
			<point x="308" y="0" type="line"/>
			<point x="280" y="-18"/>
			<point x="212" y="-76"/>
			<point x="212" y="-146" type="curve" smooth="yes"/>
			<point x="212" y="-196"/>
			<point x="252" y="-226"/>
		</contour>
		<contour>
			<point name="aboveUC" x="360" y="672" type="move"/>
		</contour>
	</outline>
</glyph>
<glyph name="Hbar" format="1">
	<unicode hex="0126"/>
	<advance width="696"/>
	<outline>
		<contour>
			<point x="66" y="474" type="line"/>
			<point x="718" y="474" type="line"/>
			<point x="738" y="576" type="line"/>
			<point x="178" y="576" type="line"/>
			<point x="86" y="570" type="line"/>
		</contour>
		<component base="H" xOffset="16"/>
	</outline>
</glyph>
<glyph name="hbar" format="1">
	<unicode hex="0127"/>
	<advance width="556"/>
	<outline>
		<contour>
			<point x="8" y="0" type="line"/>
			<point x="168" y="0" type="line"/>
			<point x="226" y="300" type="line"/>
			<point x="262" y="338"/>
			<point x="286" y="356"/>
			<point x="314" y="356" type="curve" smooth="yes"/>
			<point x="340" y="356"/>
			<point x="356" y="342"/>
			<point x="356" y="314" type="curve" smooth="yes"/>
			<point x="356" y="302"/>
			<point x="352" y="288"/>
			<point x="348" y="270" type="curve" smooth="yes"/>
			<point x="294" y="0" type="line"/>
			<point x="454" y="0" type="line"/>
			<point x="512" y="290" type="line" smooth="yes"/>
			<point x="518" y="314"/>
			<point x="520" y="340"/>
			<point x="520" y="362" type="curve" smooth="yes"/>
			<point x="520" y="448"/>
			<point x="484" y="492"/>
			<point x="402" y="492" type="curve" smooth="yes"/>
			<point x="342" y="492"/>
			<point x="290" y="462"/>
			<point x="250" y="426" type="curve"/>
			<point x="246" y="426" type="line"/>
			<point x="270" y="514" type="line"/>
			<point x="308" y="696" type="line"/>
			<point x="148" y="696" type="line"/>
		</contour>
		<contour>
			<point x="48" y="538" type="line"/>
			<point x="430" y="538" type="line"/>
			<point x="452" y="642" type="line"/>
			<point x="142" y="642" type="line"/>
			<point x="68" y="636" type="line"/>
		</contour>
	</outline>
</glyph>
<glyph name="Iogonek" format="2">
	<unicode hex="012E"/>
	<advance width="312"/>
	<outline>
		<contour>
			<point x="64" y="-228" type="curve" smooth="yes"/>
			<point x="110" y="-228"/>
			<point x="160" y="-214"/>
			<point x="192" y="-192" type="curve"/>
			<point x="162" y="-108" type="line"/>
			<point x="154" y="-112"/>
			<point x="144" y="-114"/>
			<point x="134" y="-114" type="curve" smooth="yes"/>
			<point x="116" y="-114"/>
			<point x="100" y="-104"/>
			<point x="100" y="-84" type="curve" smooth="yes"/>
			<point x="100" y="-58"/>
			<point x="124" y="-20"/>
			<point x="186" y="0" type="curve"/>
			<point x="316" y="650" type="line"/>
			<point x="156" y="650" type="line"/>
			<point x="26" y="0" type="line"/>
			<point x="64" y="0" type="line"/>
			<point x="10" y="-32"/>
			<point x="-44" y="-88"/>
			<point x="-44" y="-142" type="curve" smooth="yes"/>
			<point x="-44" y="-196"/>
			<point x="2" y="-228"/>
		</contour>
	</outline>
	<anchor name="aboveUC" x="240" y="672"/>
</glyph>
<glyph name="Lslash" format="1">
	<unicode hex="0141"/>
	<advance width="514"/>
	<outline>
		<contour>
			<point x="17" y="168" type="line"/>
			<point x="107" y="214" type="line"/>
			<point x="224" y="268" type="line"/>
			<point x="449" y="380" type="line"/>
			<point x="411" y="482" type="line"/>
			<point x="250" y="400" type="line"/>
			<point x="132" y="346" type="line"/>
			<point x="-21" y="270" type="line"/>
		</contour>
		<component base="L"/>
	</outline>
</glyph>
<glyph name="lslash" format="1">
	<unicode hex="0142"/>
	<advance width="356"/>
	<outline>
		<contour>
			<point x="30" y="254" type="line"/>
			<point x="116" y="288" type="line"/>
			<point x="272" y="356" type="line"/>
			<point x="432" y="420" type="line"/>
			<point x="396" y="516" type="line"/>
			<point x="296" y="476" type="line"/>
			<point x="140" y="408" type="line"/>
			<point x="-6" y="350" type="line"/>
		</contour>
		<component base="l" xOffset="40"/>
		<contour>
			<point name="aboveUC" x="260" y="730" type="move"/>
		</contour>
		<contour>
			<point name="belowLC" x="160" y="-22" type="move"/>
		</contour>
	</outline>
</glyph>
<glyph name="eng" format="2">
	<unicode hex="014B"/>
	<advance width="562"/>
	<outline>
		<contour>
			<point x="254" y="-188" type="curve" smooth="yes"/>
			<point x="378" y="-188"/>
			<point x="432" y="-102"/>
			<point x="454" y="2" type="curve"/>
			<point x="516" y="310" type="line" smooth="yes"/>
			<point x="521" y="334"/>
			<point x="524" y="360"/>
			<point x="524" y="382" type="curve" smooth="yes"/>
			<point x="524" y="468"/>
			<point x="488" y="512"/>
			<point x="406" y="512" type="curve" smooth="yes"/>
			<point x="342" y="512"/>
			<point x="288" y="476"/>
			<point x="242" y="436" type="curve"/>
			<point x="238" y="436" type="line"/>
			<point x="238" y="500" type="line"/>
			<point x="108" y="500" type="line"/>
			<point x="8" y="0" type="line"/>
			<point x="168" y="0" type="line"/>
			<point x="230" y="320" type="line"/>
			<point x="266" y="358"/>
			<point x="290" y="376"/>
			<point x="318" y="376" type="curve" smooth="yes"/>
			<point x="344" y="376"/>
			<point x="360" y="362"/>
			<point x="360" y="334" type="curve" smooth="yes"/>
			<point x="360" y="322"/>
			<point x="356" y="308"/>
			<point x="352" y="290" type="curve" smooth="yes"/>
			<point x="296" y="10" type="line"/>
			<point x="284" y="-42"/>
			<point x="272" y="-62"/>
			<point x="240" y="-62" type="curve" smooth="yes"/>
			<point x="224" y="-62"/>
			<point x="210" y="-58"/>
			<point x="196" y="-52" type="curve"/>
			<point x="154" y="-164" type="line"/>
			<point x="184" y="-182"/>
			<point x="220" y="-188"/>
		</contour>
	</outline>
	<anchor name="aboveLC" x="360" y="522"/>
	<anchor name="belowLC" x="210" y="-182"/>
</glyph>
<glyph name="OE" format="2">
	<unicode hex="0152"/>
	<advance width="840"/>
	<outline>
		<contour>
			<point x="348" y="0" type="curve" smooth="yes"/>
			<point x="736" y="0" type="line"/>
			<point x="762" y="134" type="line"/>
			<point x="526" y="134" type="line"/>
			<point x="554" y="268" type="line"/>
			<point x="746" y="268" type="line"/>
			<point x="772" y="402" type="line"/>
			<point x="580" y="402" type="line"/>
			<point x="602" y="516" type="line"/>
			<point x="830" y="516" type="line"/>
			<point x="856" y="650" type="line"/>
			<point x="416" y="650" type="line" smooth="yes"/>
			<point x="212" y="650"/>
			<point x="56" y="520"/>
			<point x="56" y="256" type="curve" smooth="yes"/>
			<point x="56" y="80"/>
			<point x="166" y="0"/>
		</contour>
		<contour>
			<point x="352" y="128" type="line" smooth="yes"/>
			<point x="276" y="128"/>
			<point x="220" y="164"/>
			<point x="220" y="266" type="curve" smooth="yes"/>
			<point x="220" y="454"/>
			<point x="312" y="522"/>
			<point x="420" y="522" type="curve" smooth="yes"/>
			<point x="444" y="522" type="line"/>
			<point x="366" y="128" type="line"/>
		</contour>
	</outline>
	<anchor name="aboveUC" x="580" y="672"/>
</glyph>
<glyph name="Tbar" format="1">
	<unicode hex="0166"/>
	<advance width="540"/>
	<outline>
		<contour>
			<point x="72" y="252" type="line"/>
			<point x="472" y="252" type="line"/>
			<point x="492" y="360" type="line"/>
			<point x="184" y="360" type="line"/>
			<point x="92" y="354" type="line"/>
		</contour>
		<component base="T"/>
		<contour>
			<point name="aboveUC" x="350" y="672" type="move"/>
		</contour>
		<contour>
			<point name="belowLC" x="220" y="-22" type="move"/>
		</contour>
	</outline>
</glyph>
<glyph name="tbar" format="1">
	<unicode hex="0167"/>
	<advance width="384"/>
	<outline>
		<contour>
			<point x="6" y="196" type="line"/>
			<point x="338" y="196" type="line"/>
			<point x="358" y="300" type="line"/>
			<point x="118" y="300" type="line"/>
			<point x="26" y="294" type="line"/>
		</contour>
		<component base="t"/>
		<contour>
			<point name="aboveLC" x="260" y="664" type="move"/>
		</contour>
		<contour>
			<point name="belowLC" x="180" y="-22" type="move"/>
		</contour>
	</outline>
</glyph>
<glyph name="Uogonek" format="2">
	<unicode hex="0172"/>
	<advance width="654"/>
	<outline>
		<contour>
			<point x="240" y="-228" type="curve" smooth="yes"/>
			<point x="286" y="-228"/>
			<point x="336" y="-213"/>
			<point x="368" y="-192" type="curve"/>
			<point x="338" y="-108" type="line"/>
			<point x="327" y="-114"/>
			<point x="318" y="-114"/>
			<point x="310" y="-114" type="curve" smooth="yes"/>
			<point x="292" y="-114"/>
			<point x="276" y="-104"/>
			<point x="276" y="-84" type="curve" smooth="yes"/>
			<point x="276" y="-58"/>
			<point x="304" y="-22"/>
			<point x="370" y="-8" type="curve" smooth="yes"/>
			<point x="494" y="18"/>
			<point x="552" y="108"/>
			<point x="588" y="286" type="curve" smooth="yes"/>
			<point x="662" y="650" type="line"/>
			<point x="506" y="650" type="line"/>
			<point x="432" y="282" type="line" smooth="yes"/>
			<point x="408" y="160"/>
			<point x="378" y="126"/>
			<point x="320" y="126" type="curve" smooth="yes"/>
			<point x="254" y="126"/>
			<point x="234" y="160"/>
			<point x="234" y="226" type="curve" smooth="yes"/>
			<point x="234" y="250"/>
			<point x="238" y="274"/>
			<point x="242" y="300" type="curve" smooth="yes"/>
			<point x="312" y="650" type="line"/>
			<point x="152" y="650" type="line"/>
			<point x="88" y="332" type="line" smooth="yes"/>
			<point x="82" y="298"/>
			<point x="74" y="252"/>
			<point x="74" y="222" type="curve" smooth="yes"/>
			<point x="74" y="62"/>
			<point x="154" y="-12"/>
			<point x="316" y="-12" type="curve"/>
			<point x="240" y="0" type="line"/>
			<point x="186" y="-32"/>
			<point x="132" y="-88"/>
			<point x="132" y="-142" type="curve" smooth="yes"/>
			<point x="132" y="-196"/>
			<point x="178" y="-228"/>
		</contour>
	</outline>
	<anchor name="aboveUC" x="410" y="672"/>
</glyph>
<glyph name="Schwa" format="1">
	<unicode hex="018F"/>
	<advance width="680"/>
	<outline>
		<contour>
			<point x="308" y="-12" type="curve"/>
			<point x="516" y="-12"/>
			<point x="658" y="156"/>
			<point x="658" y="386" type="curve" smooth="yes"/>
			<point x="658" y="564"/>
			<point x="555" y="662"/>
			<point x="408" y="662" type="curve" smooth="yes"/>
			<point x="316" y="662"/>
			<point x="250" y="630"/>
			<point x="194" y="584" type="curve"/>
			<point x="264" y="480" type="line"/>
			<point x="295" y="504"/>
			<point x="338" y="530"/>
			<point x="388" y="530" type="curve" smooth="yes"/>
			<point x="469" y="530"/>
			<point x="500" y="473"/>
			<point x="500" y="376" type="curve" smooth="yes"/>
			<point x="500" y="225"/>
			<point x="426" y="120"/>
			<point x="320" y="120" type="curve" smooth="yes"/>
			<point x="250" y="120"/>
			<point x="204" y="172"/>
			<point x="216" y="260" type="curve"/>
			<point x="512" y="260" type="line"/>
			<point x="536" y="376" type="line"/>
			<point x="90" y="376" type="line"/>
			<point x="72" y="328"/>
			<point x="66" y="292"/>
			<point x="66" y="240" type="curve" smooth="yes"/>
			<point x="66" y="85"/>
			<point x="162" y="-12"/>
		</contour>
		<contour>
			<point name="aboveUC" x="483" y="672" type="move"/>
		</contour>
		<contour>
			<point name="belowLC" x="333" y="-22" type="move"/>
		</contour>
	</outline>
</glyph>
<glyph name="Eopen" format="2">
	<unicode hex="0190"/>
	<advance width="544"/>
	<outline>
		<contour>
			<point x="254" y="-12" type="curve" smooth="yes"/>
			<point x="371" y="-12"/>
			<point x="447" y="24"/>
			<point x="496" y="70" type="curve"/>
			<point x="430" y="172" type="line"/>
			<point x="393" y="141"/>
			<point x="345" y="124"/>
			<point x="290" y="124" type="curve" smooth="yes"/>
			<point x="237" y="124"/>
			<point x="206" y="151"/>
			<point x="206" y="194" type="curve" smooth="yes"/>
			<point x="206" y="240"/>
			<point x="243" y="278"/>
			<point x="314" y="278" type="curve" smooth="yes"/>
			<point x="400" y="278" type="line"/>
			<point x="422" y="392" type="line"/>
			<point x="355" y="392" type="line" smooth="yes"/>
			<point x="296" y="392"/>
			<point x="276" y="417"/>
			<point x="276" y="450" type="curve" smooth="yes"/>
			<point x="276" y="497"/>
			<point x="322" y="526"/>
			<point x="374" y="526" type="curve" smooth="yes"/>
			<point x="416" y="526"/>
			<point x="452" y="512"/>
			<point x="482" y="472" type="curve"/>
			<point x="570" y="568" type="line"/>
			<point x="531" y="631"/>
			<point x="464" y="662"/>
			<point x="384" y="662" type="curve" smooth="yes"/>
			<point x="224" y="662"/>
			<point x="120" y="570"/>
			<point x="120" y="465" type="curve" smooth="yes"/>
			<point x="120" y="409"/>
			<point x="147" y="365"/>
			<point x="196" y="342" type="curve"/>
			<point x="196" y="338" type="line"/>
			<point x="101" y="311"/>
			<point x="32" y="237"/>
			<point x="32" y="155" type="curve" smooth="yes"/>
			<point x="32" y="55"/>
			<point x="115" y="-12"/>
		</contour>
	</outline>
	<anchor name="aboveUC" x="380" y="672"/>
	<anchor name="belowLC" x="260" y="-22"/>
</glyph>
<glyph name="Ghook" format="2">
	<unicode hex="0193"/>
	<advance width="620"/>
	<outline>
		<contour>
			<point x="466" y="573" type="curve"/>
			<point x="598" y="568" type="line"/>
			<point x="590" y="588"/>
			<point x="583" y="608"/>
			<point x="583" y="628" type="curve" smooth="yes"/>
			<point x="583" y="675"/>
			<point x="601" y="696"/>
			<point x="634" y="696" type="curve" smooth="yes"/>
			<point x="646" y="696"/>
			<point x="654" y="694"/>
			<point x="666" y="686" type="curve"/>
			<point x="716" y="795" type="line"/>
			<point x="690" y="810"/>
			<point x="654" y="820"/>
			<point x="613" y="820" type="curve" smooth="yes"/>
			<point x="520" y="820"/>
			<point x="456" y="750"/>
			<point x="456" y="668" type="curve" smooth="yes"/>
			<point x="456" y="648"/>
			<point x="460" y="602"/>
		</contour>
		<component base="G"/>
	</outline>
	<anchor name="aboveUC" x="310" y="672"/>
	<anchor name="belowLC" x="300" y="-22"/>
</glyph>
<glyph name="Istroke" format="1">
	<unicode hex="0197"/>
	<advance width="344"/>
	<outline>
		<contour>
			<point x="30" y="284" type="line"/>
			<point x="330" y="284" type="line"/>
			<point x="350" y="386" type="line"/>
			<point x="142" y="386" type="line"/>
			<point x="50" y="380" type="line"/>
		</contour>
		<component base="I" xOffset="16"/>
		<contour>
			<point name="aboveUC" x="260" y="672" type="move"/>
		</contour>
		<contour>
			<point name="belowLC" x="130" y="-22" type="move"/>
		</contour>
	</outline>
</glyph>
<glyph name="ohorn" format="2">
	<unicode hex="01A1"/>
	<advance width="546"/>
	<outline>
		<contour>
			<point x="466" y="435" type="line"/>
			<point x="559" y="456"/>
			<point x="600" y="528"/>
			<point x="600" y="608" type="curve" smooth="yes"/>
			<point x="600" y="630"/>
			<point x="594" y="662"/>
			<point x="584" y="684" type="curve"/>
			<point x="466" y="648" type="line"/>
			<point x="471" y="636"/>
			<point x="476" y="612"/>
			<point x="476" y="600" type="curve" smooth="yes"/>
			<point x="476" y="548"/>
			<point x="448" y="498"/>
			<point x="404" y="490" type="curve"/>
		</contour>
		<component base="o"/>
	</outline>
	<anchor name="aboveLC" x="310" y="522"/>
	<anchor name="belowLC" x="200" y="-22"/>
</glyph>
<glyph name="uhorn" format="2">
	<unicode hex="01B0"/>
	<advance width="576"/>
	<outline>
		<contour>
			<point x="518" y="443" type="line"/>
			<point x="611" y="464"/>
			<point x="652" y="528"/>
			<point x="652" y="608" type="curve" smooth="yes"/>
			<point x="652" y="630"/>
			<point x="646" y="662"/>
			<point x="636" y="684" type="curve"/>
			<point x="518" y="648" type="line"/>
			<point x="523" y="636"/>
			<point x="528" y="612"/>
			<point x="528" y="600" type="curve" smooth="yes"/>
			<point x="528" y="548"/>
			<point x="500" y="506"/>
			<point x="456" y="500" type="curve"/>
		</contour>
		<component base="u"/>
	</outline>
	<anchor name="aboveLC" x="320" y="522"/>
	<anchor name="belowLC" x="240" y="-22"/>
</glyph>
<glyph name="wynn" format="2">
	<unicode hex="01BF"/>
	<advance width="560"/>
	<outline>
		<contour>
			<point x="-28" y="-176" type="line"/>
			<point x="132" y="-176" type="line"/>
			<point x="150" y="-82" type="line"/>
			<point x="160" y="-12" type="line"/>
			<point x="408" y="52"/>
			<point x="534" y="204"/>
			<point x="534" y="366" type="curve" smooth="yes"/>
			<point x="534" y="456"/>
			<point x="480" y="512"/>
			<point x="394" y="512" type="curve" smooth="yes"/>
			<point x="340" y="512"/>
			<point x="292" y="482"/>
			<point x="240" y="426" type="curve"/>
			<point x="236" y="426" type="line"/>
			<point x="238" y="500" type="line"/>
			<point x="108" y="500" type="line"/>
		</contour>
		<contour>
			<point x="192" y="118" type="curve"/>
			<point x="228" y="306" type="line"/>
			<point x="254" y="354"/>
			<point x="292" y="382"/>
			<point x="326" y="382" type="curve" smooth="yes"/>
			<point x="352" y="382"/>
			<point x="368" y="364"/>
			<point x="368" y="326" type="curve" smooth="yes"/>
			<point x="368" y="250"/>
			<point x="306" y="160"/>
		</contour>
	</outline>
	<anchor name="aboveLC" x="350" y="522"/>
	<anchor name="belowLC" x="60" y="-182"/>
</glyph>
<glyph name="clickalveolar" format="2">
	<unicode hex="01C2"/>
	<advance width="444"/>
	<outline>
		<contour>
			<point x="-3" y="204" type="line"/>
			<point x="419" y="204" type="line"/>
			<point x="439" y="304" type="line"/>
			<point x="89" y="304" type="line"/>
			<point x="15" y="298" type="line"/>
		</contour>
		<contour>
			<point x="34" y="390" type="line"/>
			<point x="456" y="390" type="line"/>
			<point x="476" y="490" type="line"/>
			<point x="127" y="490" type="line"/>
			<point x="52" y="484" type="line"/>
		</contour>
		<component base="l.a" xOffset="82"/>
	</outline>
	<anchor name="aboveUC" x="310" y="722"/>
	<anchor name="belowLC" x="170" y="-22"/>
</glyph>
<glyph name="gstroke" format="2">
	<unicode hex="01E5"/>
	<advance width="590"/>
	<outline>
		<contour>
			<point x="240" y="222" type="line"/>
			<point x="570" y="222" type="line"/>
			<point x="590" y="326" type="line"/>
			<point x="356" y="326" type="line"/>
			<point x="262" y="320" type="line"/>
		</contour>
		<component base="g"/>
	</outline>
	<anchor name="aboveLC" x="310" y="522"/>
	<anchor name="belowLC" x="200" y="-202"/>
</glyph>
<glyph name="yogh" format="2">
	<unicode hex="021D"/>
	<advance width="452"/>
	<outline>
		<contour>
			<point x="8" y="-188" type="line"/>
			<point x="270" y="-104"/>
			<point x="386" y="-12"/>
			<point x="386" y="122" type="curve" smooth="yes"/>
			<point x="386" y="188"/>
			<point x="344" y="220"/>
			<point x="288" y="226" type="curve"/>
			<point x="364" y="274"/>
			<point x="402" y="338"/>
			<point x="402" y="394" type="curve" smooth="yes"/>
			<point x="402" y="462"/>
			<point x="350" y="512"/>
			<point x="266" y="512" type="curve" smooth="yes"/>
			<point x="190" y="512"/>
			<point x="130" y="492"/>
			<point x="44" y="428" type="curve"/>
			<point x="98" y="336" type="line"/>
			<point x="146" y="368"/>
			<point x="178" y="384"/>
			<point x="208" y="384" type="curve" smooth="yes"/>
			<point x="229" y="384"/>
			<point x="244" y="370"/>
			<point x="244" y="348" type="curve" smooth="yes"/>
			<point x="244" y="302"/>
			<point x="212" y="266"/>
			<point x="70" y="200" type="curve"/>
			<point x="112" y="112" type="line"/>
			<point x="149" y="130"/>
			<point x="168" y="140"/>
			<point x="190" y="140" type="curve" smooth="yes"/>
			<point x="212" y="140"/>
			<point x="228" y="126"/>
			<point x="228" y="102" type="curve" smooth="yes"/>
			<point x="228" y="49"/>
			<point x="166" y="-8"/>
			<point x="-26" y="-74" type="curve"/>
		</contour>
	</outline>
	<anchor name="aboveLC" x="260" y="522"/>
	<anchor name="belowLC" x="170" y="-182"/>
</glyph>
<glyph name="Astroke" format="2">
	<unicode hex="023A"/>
	<advance width="562"/>
	<outline>
		<contour>
			<point x="158" y="-66" type="line"/>
			<point x="492" y="706" type="line"/>
			<point x="456" y="716" type="line"/>
			<point x="122" y="-56" type="line"/>
		</contour>
		<component base="A"/>
	</outline>
	<anchor name="aboveUC" x="370" y="672"/>
	<anchor name="belowLC" x="230" y="-22"/>
</glyph>
<glyph name="cstroke" format="2">
	<unicode hex="023C"/>
	<advance width="446"/>
	<outline>
		<contour>
			<point x="172" y="-66" type="line"/>
			<point x="430" y="568" type="line"/>
			<point x="386" y="578" type="line"/>
			<point x="128" y="-56" type="line"/>
		</contour>
		<component base="c"/>
	</outline>
	<anchor name="aboveLC" x="300" y="522"/>
	<anchor name="belowLC" x="200" y="-22"/>
</glyph>
<glyph name="Lbar" format="2">
	<unicode hex="023D"/>
	<advance width="530"/>
	<outline>
		<contour>
			<point x="36" y="316" type="line"/>
			<point x="408" y="316" type="line"/>
			<point x="426" y="412" type="line"/>
			<point x="130" y="412" type="line"/>
			<point x="54" y="406" type="line"/>
		</contour>
		<component base="L" xOffset="16"/>
	</outline>
	<anchor name="aboveUC" x="256" y="672"/>
	<anchor name="belowLC" x="246" y="-22"/>
</glyph>
<glyph name="Glottalstop" format="1">
	<unicode hex="0241"/>
	<advance width="528"/>
	<outline>
		<contour>
			<point x="114" y="0" type="line"/>
			<point x="274" y="0" type="line"/>
			<point x="312" y="192" type="line"/>
			<point x="424" y="238"/>
			<point x="530" y="349"/>
			<point x="530" y="468" type="curve" smooth="yes"/>
			<point x="530" y="596"/>
			<point x="436" y="662"/>
			<point x="324" y="662" type="curve" smooth="yes"/>
			<point x="232" y="662"/>
			<point x="142" y="622"/>
			<point x="70" y="562" type="curve"/>
			<point x="134" y="456" type="line"/>
			<point x="184" y="495"/>
			<point x="241" y="524"/>
			<point x="290" y="524" type="curve" smooth="yes"/>
			<point x="331" y="524"/>
			<point x="366" y="496"/>
			<point x="366" y="440" type="curve" smooth="yes"/>
			<point x="366" y="375"/>
			<point x="306" y="314"/>
			<point x="168" y="266" type="curve"/>
		</contour>
		<contour>
			<point name="aboveUC" x="340" y="672" type="move"/>
		</contour>
		<contour>
			<point name="belowLC" x="190" y="-22" type="move"/>
		</contour>
	</outline>
</glyph>
<glyph name="glottalstoplatin" format="2">
	<unicode hex="0242"/>
	<advance width="468"/>
	<outline>
		<contour>
			<point x="80" y="0" type="line"/>
			<point x="240" y="0" type="line"/>
			<point x="266" y="130" type="line"/>
			<point x="375" y="175"/>
			<point x="442" y="267"/>
			<point x="442" y="362" type="curve" smooth="yes"/>
			<point x="442" y="460"/>
			<point x="362" y="512"/>
			<point x="260" y="512" type="curve" smooth="yes"/>
			<point x="172" y="512"/>
			<point x="104" y="474"/>
			<point x="41" y="422" type="curve"/>
			<point x="102" y="330" type="line"/>
			<point x="141" y="360"/>
			<point x="180" y="384"/>
			<point x="224" y="384" type="curve" smooth="yes"/>
			<point x="256" y="384"/>
			<point x="280" y="366"/>
			<point x="280" y="330" type="curve" smooth="yes"/>
			<point x="280" y="276"/>
			<point x="227" y="228"/>
			<point x="118" y="188" type="curve"/>
		</contour>
	</outline>
	<anchor name="aboveLC" x="270" y="522"/>
	<anchor name="belowLC" x="160" y="-22"/>
</glyph>
<glyph name="Ubar" format="2">
	<unicode hex="0244"/>
	<advance width="730"/>
	<outline>
		<contour>
			<point x="46" y="316" type="line"/>
			<point x="700" y="316" type="line"/>
			<point x="718" y="412" type="line"/>
			<point x="140" y="412" type="line"/>
			<point x="64" y="406" type="line"/>
		</contour>
		<component base="U" xOffset="30"/>
	</outline>
	<anchor name="aboveUC" x="450" y="672"/>
	<anchor name="belowLC" x="320" y="-22"/>
</glyph>
<glyph name="alphalatin" format="2">
	<unicode hex="0251"/>
	<advance width="566"/>
	<outline>
		<contour>
			<point x="168" y="-12" type="curve" smooth="yes"/>
			<point x="216" y="-12"/>
			<point x="274" y="16"/>
			<point x="318" y="62" type="curve"/>
			<point x="320" y="62" type="line"/>
			<point x="320" y="62"/>
			<point x="320" y="62"/>
			<point x="320" y="62" type="curve" smooth="yes"/>
			<point x="334" y="4"/>
			<point x="372" y="-12"/>
			<point x="428" y="-12" type="curve" smooth="yes"/>
			<point x="453" y="-12"/>
			<point x="483" y="-6"/>
			<point x="510" y="4" type="curve"/>
			<point x="504" y="118" type="line"/>
			<point x="498" y="116"/>
			<point x="497" y="116"/>
			<point x="492" y="116" type="curve" smooth="yes"/>
			<point x="484" y="116"/>
			<point x="478" y="122"/>
			<point x="478" y="134" type="curve" smooth="yes"/>
			<point x="478" y="138"/>
			<point x="478" y="140"/>
			<point x="480" y="150" type="curve" smooth="yes"/>
			<point x="550" y="500" type="line"/>
			<point x="422" y="500" type="line"/>
			<point x="400" y="450" type="line"/>
			<point x="398" y="450" type="line"/>
			<point x="380" y="488"/>
			<point x="336" y="512"/>
			<point x="294" y="512" type="curve" smooth="yes"/>
			<point x="156" y="512"/>
			<point x="28" y="362"/>
			<point x="28" y="172" type="curve" smooth="yes"/>
			<point x="28" y="54"/>
			<point x="80" y="-12"/>
		</contour>
		<contour>
			<point x="240" y="118" type="curve" smooth="yes"/>
			<point x="212" y="118"/>
			<point x="194" y="140"/>
			<point x="194" y="192" type="curve" smooth="yes"/>
			<point x="194" y="304"/>
			<point x="248" y="382"/>
			<point x="306" y="382" type="curve" smooth="yes"/>
			<point x="324" y="382"/>
			<point x="348" y="370"/>
			<point x="360" y="344" type="curve"/>
			<point x="328" y="184" type="line"/>
			<point x="302" y="130"/>
			<point x="266" y="118"/>
		</contour>
	</outline>
	<anchor name="aboveLC" x="330" y="522"/>
	<anchor name="belowLC" x="250" y="-22"/>
</glyph>
<glyph name="dtail" format="2">
	<unicode hex="0256"/>
	<advance width="557"/>
	<outline>
		<contour>
			<point x="408" y="-188" type="curve" smooth="yes"/>
			<point x="453" y="-188"/>
			<point x="496" y="-176"/>
			<point x="520" y="-168" type="curve"/>
			<point x="496" y="-54" type="line"/>
			<point x="486" y="-58"/>
			<point x="478" y="-60"/>
			<point x="468" y="-60" type="curve" smooth="yes"/>
			<point x="454" y="-60"/>
			<point x="446" y="-54"/>
			<point x="446" y="-35" type="curve" smooth="yes"/>
			<point x="446" y="-30"/>
			<point x="446" y="-26"/>
			<point x="448" y="-16" type="curve"/>
			<point x="590" y="696" type="line"/>
			<point x="430" y="696" type="line"/>
			<point x="402" y="550" type="line"/>
			<point x="392" y="456" type="line"/>
			<point x="390" y="456" type="line"/>
			<point x="372" y="490"/>
			<point x="336" y="512"/>
			<point x="294" y="512" type="curve" smooth="yes"/>
			<point x="156" y="512"/>
			<point x="28" y="362"/>
			<point x="28" y="172" type="curve" smooth="yes"/>
			<point x="28" y="54"/>
			<point x="80" y="-12"/>
			<point x="168" y="-12" type="curve" smooth="yes"/>
			<point x="216" y="-12"/>
			<point x="274" y="16"/>
			<point x="318" y="62" type="curve"/>
			<point x="320" y="62" type="line"/>
			<point x="298" y="-28"/>
			<point x="296" y="-58"/>
			<point x="296" y="-82" type="curve" smooth="yes"/>
			<point x="296" y="-146"/>
			<point x="328" y="-188"/>
		</contour>
		<contour>
			<point x="240" y="118" type="curve" smooth="yes"/>
			<point x="212" y="118"/>
			<point x="194" y="140"/>
			<point x="194" y="192" type="curve" smooth="yes"/>
			<point x="194" y="304"/>
			<point x="248" y="382"/>
			<point x="306" y="382" type="curve" smooth="yes"/>
			<point x="324" y="382"/>
			<point x="348" y="370"/>
			<point x="360" y="344" type="curve"/>
			<point x="328" y="184" type="line"/>
			<point x="300" y="130"/>
			<point x="266" y="118"/>
		</contour>
	</outline>
	<anchor name="aboveUC" x="340" y="722"/>
	<anchor name="belowLC" x="200" y="-182"/>
</glyph>
<glyph name="dhook" format="2">
	<unicode hex="0257"/>
	<advance width="557"/>
	<outline>
		<contour>
			<point x="168" y="-12" type="curve" smooth="yes"/>
			<point x="216" y="-12"/>
			<point x="274" y="16"/>
			<point x="318" y="62" type="curve"/>
			<point x="320" y="62" type="line"/>
			<point x="320" y="0" type="line"/>
			<point x="450" y="0" type="line"/>
			<point x="554" y="518" type="line" smooth="yes"/>
			<point x="563" y="565"/>
			<point x="586" y="582"/>
			<point x="616" y="582" type="curve" smooth="yes"/>
			<point x="622" y="582"/>
			<point x="632" y="580"/>
			<point x="636" y="578" type="curve"/>
			<point x="682" y="696" type="line"/>
			<point x="668" y="702"/>
			<point x="644" y="708"/>
			<point x="620" y="708" type="curve" smooth="yes"/>
			<point x="486" y="708"/>
			<point x="422" y="628"/>
			<point x="404" y="540" type="curve"/>
			<point x="404" y="540" type="line"/>
			<point x="392" y="456" type="line"/>
			<point x="390" y="456" type="line"/>
			<point x="372" y="490"/>
			<point x="336" y="512"/>
			<point x="294" y="512" type="curve" smooth="yes"/>
			<point x="156" y="512"/>
			<point x="28" y="362"/>
			<point x="28" y="172" type="curve" smooth="yes"/>
			<point x="28" y="54"/>
			<point x="80" y="-12"/>
		</contour>
		<contour>
			<point x="240" y="118" type="curve" smooth="yes"/>
			<point x="212" y="118"/>
			<point x="194" y="140"/>
			<point x="194" y="192" type="curve" smooth="yes"/>
			<point x="194" y="304"/>
			<point x="248" y="382"/>
			<point x="306" y="382" type="curve" smooth="yes"/>
			<point x="324" y="382"/>
			<point x="348" y="370"/>
			<point x="360" y="344" type="curve"/>
			<point x="328" y="184" type="line"/>
			<point x="300" y="130"/>
			<point x="266" y="118"/>
		</contour>
	</outline>
	<anchor name="aboveUC" x="340" y="722"/>
	<anchor name="belowLC" x="230" y="-22"/>
</glyph>
<glyph name="ereversed" format="1">
	<unicode hex="0258"/>
	<advance width="502"/>
	<outline>
		<contour>
			<point x="170" y="-12" type="curve" smooth="yes"/>
			<point x="378" y="-12"/>
			<point x="472" y="140"/>
			<point x="472" y="318" type="curve" smooth="yes"/>
			<point x="472" y="440"/>
			<point x="397" y="512"/>
			<point x="288" y="512" type="curve" smooth="yes"/>
			<point x="130" y="512"/>
			<point x="24" y="360"/>
			<point x="24" y="202" type="curve"/>
			<point x="296" y="202" type="line"/>
			<point x="279" y="140"/>
			<point x="240" y="110"/>
			<point x="165" y="110" type="curve" smooth="yes"/>
			<point x="132" y="110"/>
			<point x="100" y="120"/>
			<point x="69" y="140" type="curve"/>
			<point x="7" y="46" type="line"/>
			<point x="50" y="9"/>
			<point x="117" y="-12"/>
		</contour>
		<contour>
			<point x="162" y="306" type="line"/>
			<point x="180" y="364"/>
			<point x="218" y="390"/>
			<point x="258" y="390" type="curve" smooth="yes"/>
			<point x="302" y="390"/>
			<point x="318" y="360"/>
			<point x="318" y="320" type="curve" smooth="yes"/>
			<point x="318" y="316"/>
			<point x="317" y="310"/>
			<point x="316" y="306" type="curve"/>
		</contour>
		<contour>
			<point name="aboveLC" x="310" y="522" type="move"/>
		</contour>
		<contour>
			<point name="belowLC" x="200" y="-22" type="move"/>
		</contour>
		<contour>
			<point name="ogonekLC" x="200" y="0" type="move"/>
		</contour>
	</outline>
</glyph>
<glyph name="schwa" format="1">
	<unicode hex="0259"/>
	<advance width="502"/>
	<outline>
		<contour>
			<point x="198" y="-12" type="curve" smooth="yes"/>
			<point x="334" y="-12"/>
			<point x="472" y="112"/>
			<point x="472" y="296" type="curve" smooth="yes"/>
			<point x="472" y="440"/>
			<point x="388" y="512"/>
			<point x="274" y="512" type="curve" smooth="yes"/>
			<point x="212" y="512"/>
			<point x="156" y="494"/>
			<point x="98" y="462" type="curve"/>
			<point x="148" y="362" type="line"/>
			<point x="178" y="378"/>
			<point x="212" y="390"/>
			<point x="236" y="390" type="curve" smooth="yes"/>
			<point x="282" y="390"/>
			<point x="320" y="372"/>
			<point x="322" y="298" type="curve"/>
			<point x="50" y="298" type="line"/>
			<point x="36" y="270"/>
			<point x="24" y="220"/>
			<point x="24" y="178" type="curve" smooth="yes"/>
			<point x="24" y="74"/>
			<point x="74" y="-12"/>
		</contour>
		<contour>
			<point x="216" y="110" type="curve" smooth="yes"/>
			<point x="176" y="110"/>
			<point x="154" y="134"/>
			<point x="154" y="170" type="curve" smooth="yes"/>
			<point x="154" y="178"/>
			<point x="156" y="186"/>
			<point x="158" y="194" type="curve"/>
			<point x="310" y="194" type="line"/>
			<point x="288" y="130"/>
			<point x="252" y="110"/>
		</contour>
		<contour>
			<point name="aboveLC" x="300" y="522" type="move"/>
		</contour>
		<contour>
			<point name="belowLC" x="190" y="-22" type="move"/>
		</contour>
		<contour>
			<point name="ogonekLC" x="190" y="0" type="move"/>
		</contour>
	</outline>
</glyph>
<glyph name="dotlessjstroke" format="1">
	<unicode hex="025F"/>
	<advance width="326"/>
	<outline>
		<contour>
			<point x="-14" y="202" type="line"/>
			<point x="316" y="202" type="line"/>
			<point x="336" y="306" type="line"/>
			<point x="98" y="306" type="line"/>
			<point x="6" y="300" type="line"/>
		</contour>
		<component base="dotlessj" xOffset="24"/>
		<contour>
			<point name="aboveLC" x="210" y="522" type="move"/>
		</contour>
		<contour>
			<point name="belowLC" x="30" y="-198" type="move"/>
		</contour>
	</outline>
</glyph>
<glyph name="gscript" format="1">
	<unicode hex="0261"/>
	<advance width="552"/>
	<outline>
		<component base="g"/>
		<contour>
			<point name="aboveLC" x="310" y="522" type="move"/>
		</contour>
		<contour>
			<point name="belowLC" x="200" y="-198" type="move"/>
		</contour>
	</outline>
</glyph>
<glyph name="hhook" format="2">
	<unicode hex="0266"/>
	<advance width="556"/>
	<outline>
		<contour>
			<point x="8" y="0" type="line"/>
			<point x="168" y="0" type="line"/>
			<point x="226" y="300" type="line"/>
			<point x="262" y="338"/>
			<point x="286" y="356"/>
			<point x="314" y="356" type="curve" smooth="yes"/>
			<point x="340" y="356"/>
			<point x="356" y="342"/>
			<point x="356" y="314" type="curve" smooth="yes"/>
			<point x="356" y="302"/>
			<point x="352" y="288"/>
			<point x="348" y="270" type="curve" smooth="yes"/>
			<point x="294" y="0" type="line"/>
			<point x="454" y="0" type="line"/>
			<point x="512" y="290" type="line" smooth="yes"/>
			<point x="517" y="314"/>
			<point x="520" y="340"/>
			<point x="520" y="362" type="curve" smooth="yes"/>
			<point x="520" y="448"/>
			<point x="484" y="492"/>
			<point x="402" y="492" type="curve" smooth="yes"/>
			<point x="342" y="492"/>
			<point x="290" y="462"/>
			<point x="250" y="426" type="curve"/>
			<point x="246" y="426" type="line"/>
			<point x="274" y="530" type="line"/>
			<point x="274" y="530" type="line"/>
			<point x="286" y="570"/>
			<point x="306" y="582"/>
			<point x="344" y="582" type="curve" smooth="yes"/>
			<point x="366" y="582"/>
			<point x="386" y="578"/>
			<point x="404" y="570" type="curve"/>
			<point x="454" y="680" type="line"/>
			<point x="416" y="700"/>
			<point x="374" y="708"/>
			<point x="328" y="708" type="curve" smooth="yes"/>
			<point x="188" y="708"/>
			<point x="134" y="622"/>
			<point x="112" y="514" type="curve"/>
		</contour>
	</outline>
	<anchor name="aboveUC" x="400" y="722"/>
	<anchor name="belowLC" x="280" y="-22"/>
</glyph>
<glyph name="lretroflex" format="2">
	<unicode hex="026D"/>
	<advance width="286"/>
	<outline>
		<contour>
			<point x="128" y="-188" type="curve" smooth="yes"/>
			<point x="166" y="-188"/>
			<point x="210" y="-176"/>
			<point x="238" y="-160" type="curve"/>
			<point x="212" y="-56" type="line"/>
			<point x="200" y="-60"/>
			<point x="194" y="-60"/>
			<point x="184" y="-60" type="curve" smooth="yes"/>
			<point x="170" y="-60"/>
			<point x="162" y="-54"/>
			<point x="162" y="-35" type="curve" smooth="yes"/>
			<point x="162" y="-30"/>
			<point x="162" y="-26"/>
			<point x="164" y="-16" type="curve" smooth="yes"/>
			<point x="308" y="696" type="line"/>
			<point x="148" y="696" type="line"/>
			<point x="6" y="-10" type="line" smooth="yes"/>
			<point x="0" y="-38"/>
			<point x="0" y="-54"/>
			<point x="0" y="-78" type="curve" smooth="yes"/>
			<point x="0" y="-144"/>
			<point x="42" y="-188"/>
		</contour>
	</outline>
	<anchor name="aboveUC" x="240" y="722"/>
	<anchor name="belowLC" x="90" y="-182"/>
</glyph>
<glyph name="rhookturned" format="2">
	<unicode hex="027B"/>
	<advance width="400"/>
	<outline>
		<contour>
			<point x="246" y="-188" type="curve" smooth="yes"/>
			<point x="288" y="-188"/>
			<point x="332" y="-176"/>
			<point x="360" y="-160" type="curve"/>
			<point x="334" y="-56" type="line"/>
			<point x="322" y="-60"/>
			<point x="316" y="-60"/>
			<point x="306" y="-60" type="curve" smooth="yes"/>
			<point x="292" y="-60"/>
			<point x="284" y="-54"/>
			<point x="284" y="-35" type="curve" smooth="yes"/>
			<point x="284" y="-30"/>
			<point x="284" y="-26"/>
			<point x="286" y="-16" type="curve" smooth="yes"/>
			<point x="390" y="500" type="line"/>
			<point x="230" y="500" type="line"/>
			<point x="176" y="220" type="line"/>
			<point x="138" y="154"/>
			<point x="102" y="128"/>
			<point x="60" y="128" type="curve" smooth="yes"/>
			<point x="44" y="128"/>
			<point x="22" y="128"/>
			<point x="8" y="136" type="curve"/>
			<point x="-44" y="-2" type="line"/>
			<point x="-34" y="-8"/>
			<point x="-18" y="-12"/>
			<point x="10" y="-12" type="curve" smooth="yes"/>
			<point x="66" y="-12"/>
			<point x="122" y="34"/>
			<point x="160" y="98" type="curve"/>
			<point x="164" y="98" type="line"/>
			<point x="136" y="-32"/>
			<point x="134" y="-58"/>
			<point x="134" y="-82" type="curve" smooth="yes"/>
			<point x="134" y="-144"/>
			<point x="168" y="-188"/>
		</contour>
	</outline>
	<anchor name="aboveLC" x="310" y="522"/>
	<anchor name="belowLC" x="120" y="-182"/>
</glyph>
<glyph name="apicaldental" format="2">
	<unicode hex="027F"/>
	<advance width="294"/>
	<outline>
		<contour>
			<point x="-10" y="-176" type="line"/>
			<point x="150" y="-176" type="line"/>
			<point x="256" y="334" type="line" smooth="yes"/>
			<point x="262" y="362"/>
			<point x="262" y="378"/>
			<point x="262" y="402" type="curve" smooth="yes"/>
			<point x="262" y="468"/>
			<point x="220" y="512"/>
			<point x="134" y="512" type="curve" smooth="yes"/>
			<point x="96" y="512"/>
			<point x="52" y="500"/>
			<point x="24" y="484" type="curve"/>
			<point x="50" y="380" type="line"/>
			<point x="62" y="384"/>
			<point x="68" y="384"/>
			<point x="78" y="384" type="curve" smooth="yes"/>
			<point x="92" y="384"/>
			<point x="100" y="378"/>
			<point x="100" y="359" type="curve" smooth="yes"/>
			<point x="100" y="354"/>
			<point x="100" y="350"/>
			<point x="98" y="340" type="curve" smooth="yes"/>
		</contour>
	</outline>
	<anchor name="aboveLC" x="170" y="522"/>
	<anchor name="belowLC" x="70" y="-182"/>
</glyph>
<glyph name="dotlessjstrokehook" format="1">
	<unicode hex="0284"/>
	<advance width="326"/>
	<outline>
		<contour>
			<point x="-14" y="202" type="line"/>
			<point x="316" y="202" type="line"/>
			<point x="336" y="306" type="line"/>
			<point x="98" y="306" type="line"/>
			<point x="6" y="300" type="line"/>
		</contour>
		<component base="esh" xOffset="24"/>
		<contour>
			<point name="aboveUC" x="320" y="720" type="move"/>
		</contour>
		<contour>
			<point name="belowLC" x="30" y="-198" type="move"/>
		</contour>
	</outline>
</glyph>
<glyph name="apicalretroflex" format="2">
	<unicode hex="0285"/>
	<advance width="306"/>
	<outline>
		<contour>
			<point x="148" y="-188" type="curve" smooth="yes"/>
			<point x="186" y="-188"/>
			<point x="230" y="-176"/>
			<point x="258" y="-160" type="curve"/>
			<point x="232" y="-56" type="line"/>
			<point x="220" y="-60"/>
			<point x="214" y="-60"/>
			<point x="204" y="-60" type="curve" smooth="yes"/>
			<point x="190" y="-60"/>
			<point x="182" y="-54"/>
			<point x="182" y="-35" type="curve" smooth="yes"/>
			<point x="182" y="-30"/>
			<point x="182" y="-26"/>
			<point x="184" y="-16" type="curve" smooth="yes"/>
			<point x="256" y="334" type="line" smooth="yes"/>
			<point x="262" y="362"/>
			<point x="262" y="378"/>
			<point x="262" y="402" type="curve" smooth="yes"/>
			<point x="262" y="468"/>
			<point x="220" y="512"/>
			<point x="134" y="512" type="curve" smooth="yes"/>
			<point x="96" y="512"/>
			<point x="52" y="500"/>
			<point x="24" y="484" type="curve"/>
			<point x="50" y="380" type="line"/>
			<point x="62" y="384"/>
			<point x="68" y="384"/>
			<point x="78" y="384" type="curve" smooth="yes"/>
			<point x="92" y="384"/>
			<point x="100" y="378"/>
			<point x="100" y="359" type="curve" smooth="yes"/>
			<point x="100" y="354"/>
			<point x="100" y="350"/>
			<point x="98" y="340" type="curve" smooth="yes"/>
			<point x="26" y="-10" type="line" smooth="yes"/>
			<point x="20" y="-38"/>
			<point x="20" y="-54"/>
			<point x="20" y="-78" type="curve" smooth="yes"/>
			<point x="20" y="-144"/>
			<point x="62" y="-188"/>
		</contour>
	</outline>
	<anchor name="aboveLC" x="170" y="522"/>
	<anchor name="belowLC" x="110" y="-182"/>
</glyph>
<glyph name="ubar" format="2">
	<unicode hex="0289"/>
	<advance width="552"/>
	<outline>
		<contour>
			<point x="20" y="256" type="line"/>
			<point x="594" y="256" type="line"/>
			<point x="616" y="360" type="line"/>
			<point x="114" y="360" type="line"/>
			<point x="40" y="354" type="line"/>
		</contour>
		<component base="u" xOffset="34"/>
	</outline>
	<anchor name="aboveLC" x="350" y="522"/>
	<anchor name="baseLC" x="240" y="0"/>
	<anchor name="belowLC" x="270" y="-30"/>
	<anchor name="ogonekLC" x="380" y="0"/>
</glyph>
<glyph name="wturned" format="1">
	<unicode hex="028D"/>
	<advance width="764"/>
	<outline>
		<component base="w" xScale="-1" yScale="-1" xOffset="774" yOffset="500"/>
		<contour>
			<point name="aboveLC" x="440" y="522" type="move"/>
		</contour>
		<contour>
			<point name="belowLC" x="340" y="-22" type="move"/>
		</contour>
	</outline>
</glyph>
<glyph name="ysmall" format="2">
	<unicode hex="028F"/>
	<advance width="467"/>
	<outline>
		<contour>
			<point x="104" y="0" type="line"/>
			<point x="264" y="0" type="line"/>
			<point x="294" y="150" type="line"/>
			<point x="520" y="500" type="line"/>
			<point x="360" y="500" type="line"/>
			<point x="310" y="404" type="line" smooth="yes"/>
			<point x="290" y="366"/>
			<point x="262" y="316"/>
			<point x="241" y="274" type="curve"/>
			<point x="237" y="274" type="line"/>
			<point x="234" y="318"/>
			<point x="228" y="364"/>
			<point x="222" y="404" type="curve" smooth="yes"/>
			<point x="208" y="500" type="line"/>
			<point x="46" y="500" type="line"/>
			<point x="134" y="150" type="line"/>
		</contour>
	</outline>
	<anchor name="aboveLC" x="280" y="522"/>
	<anchor name="belowLC" x="190" y="-22"/>
</glyph>
<glyph name="zretroflex" format="2">
	<unicode hex="0290"/>
	<advance width="456"/>
	<outline>
		<contour>
			<point x="356" y="-188" type="curve" smooth="yes"/>
			<point x="398" y="-188"/>
			<point x="432" y="-178"/>
			<point x="456" y="-168" type="curve"/>
			<point x="430" y="-56" type="line"/>
			<point x="418" y="-60"/>
			<point x="413" y="-60"/>
			<point x="404" y="-60" type="curve" smooth="yes"/>
			<point x="389" y="-60"/>
			<point x="374" y="-54"/>
			<point x="374" y="-35" type="curve" smooth="yes"/>
			<point x="374" y="-24"/>
			<point x="374" y="-16"/>
			<point x="404" y="124" type="curve"/>
			<point x="214" y="124" type="line"/>
			<point x="454" y="408" type="line"/>
			<point x="472" y="500" type="line"/>
			<point x="108" y="500" type="line"/>
			<point x="84" y="376" type="line"/>
			<point x="248" y="376" type="line"/>
			<point x="8" y="90" type="line"/>
			<point x="-10" y="0" type="line"/>
			<point x="238" y="0" type="line"/>
			<point x="230" y="-38"/>
			<point x="228" y="-58"/>
			<point x="228" y="-78" type="curve" smooth="yes"/>
			<point x="228" y="-144"/>
			<point x="268" y="-188"/>
		</contour>
	</outline>
	<anchor name="aboveLC" x="300" y="522"/>
	<anchor name="belowLC" x="150" y="-162"/>
</glyph>
<glyph name="ezh" format="2">
	<unicode hex="0292"/>
	<advance width="456"/>
	<outline>
		<contour>
			<point x="124" y="-188" type="curve" smooth="yes"/>
			<point x="278" y="-188"/>
			<point x="390" y="-70"/>
			<point x="390" y="62" type="curve" smooth="yes"/>
			<point x="390" y="148"/>
			<point x="340" y="210"/>
			<point x="268" y="226" type="curve"/>
			<point x="434" y="408" type="line"/>
			<point x="452" y="500" type="line"/>
			<point x="76" y="500" type="line"/>
			<point x="52" y="376" type="line"/>
			<point x="242" y="376" type="line"/>
			<point x="68" y="190" type="line"/>
			<point x="108" y="110" type="line"/>
			<point x="129" y="117"/>
			<point x="141" y="122"/>
			<point x="160" y="122" type="curve" smooth="yes"/>
			<point x="196" y="122"/>
			<point x="228" y="100"/>
			<point x="228" y="50" type="curve" smooth="yes"/>
			<point x="228" y="-19"/>
			<point x="183" y="-62"/>
			<point x="130" y="-62" type="curve" smooth="yes"/>
			<point x="84" y="-62"/>
			<point x="48" y="-42"/>
			<point x="20" y="-12" type="curve"/>
			<point x="-62" y="-96" type="line"/>
			<point x="-24" y="-146"/>
			<point x="44" y="-188"/>
		</contour>
	</outline>
	<anchor name="aboveLC" x="270" y="522"/>
	<anchor name="belowLC" x="140" y="-182"/>
</glyph>
<glyph name="glottalstop" format="1">
	<unicode hex="0294"/>
	<advance width="442"/>
	<outline>
		<contour>
			<point x="68" y="0" type="line"/>
			<point x="228" y="0" type="line"/>
			<point x="278" y="252" type="line"/>
			<point x="410" y="338"/>
			<point x="478" y="428"/>
			<point x="478" y="546" type="curve" smooth="yes"/>
			<point x="478" y="655"/>
			<point x="396" y="708"/>
			<point x="295" y="708" type="curve" smooth="yes"/>
			<point x="196" y="708"/>
			<point x="122" y="670"/>
			<point x="62" y="620" type="curve"/>
			<point x="128" y="524" type="line"/>
			<point x="166" y="556"/>
			<point x="208" y="580"/>
			<point x="248" y="580" type="curve" smooth="yes"/>
			<point x="288" y="580"/>
			<point x="314" y="558"/>
			<point x="314" y="514" type="curve" smooth="yes"/>
			<point x="314" y="446"/>
			<point x="268" y="398"/>
			<point x="130" y="314" type="curve"/>
		</contour>
		<contour>
			<point name="aboveUC" x="320" y="720" type="move"/>
		</contour>
		<contour>
			<point name="belowLC" x="140" y="-22" type="move"/>
		</contour>
	</outline>
</glyph>
<glyph name="jcrossedtail" format="1">
	<unicode hex="029D"/>
	<advance width="378"/>
	<outline>
		<component base="jcrossedtail.x"/>
		<component base="dotaccentcmb" xOffset="190"/>
		<contour>
			<point name="belowLC" x="60" y="-198" type="move"/>
		</contour>
	</outline>
</glyph>
<glyph name="lsmall" format="2">
	<unicode hex="029F"/>
	<advance width="410"/>
	<outline>
		<contour>
			<point x="8" y="0" type="line"/>
			<point x="336" y="0" type="line"/>
			<point x="360" y="124" type="line"/>
			<point x="192" y="124" type="line"/>
			<point x="268" y="500" type="line"/>
			<point x="108" y="500" type="line"/>
		</contour>
	</outline>
	<anchor name="aboveLC" x="190" y="522"/>
	<anchor name="belowLC" x="180" y="-22"/>
</glyph>
<glyph name="dzcurl" format="2">
	<unicode hex="02A5"/>
	<advance width="956"/>
	<outline>
		<contour>
			<point x="158" y="-12" type="curve" smooth="yes"/>
			<point x="203" y="-12"/>
			<point x="255" y="17"/>
			<point x="298" y="62" type="curve"/>
			<point x="300" y="62" type="line"/>
			<point x="300" y="0" type="line"/>
			<point x="430" y="0" type="line"/>
			<point x="570" y="696" type="line"/>
			<point x="410" y="696" type="line"/>
			<point x="382" y="550" type="line"/>
			<point x="372" y="456" type="line"/>
			<point x="370" y="456" type="line"/>
			<point x="352" y="489"/>
			<point x="322" y="512"/>
			<point x="284" y="512" type="curve" smooth="yes"/>
			<point x="151" y="512"/>
			<point x="28" y="358"/>
			<point x="28" y="162" type="curve" smooth="yes"/>
			<point x="28" y="50"/>
			<point x="77" y="-12"/>
		</contour>
		<contour>
			<point x="230" y="118" type="curve" smooth="yes"/>
			<point x="208" y="118"/>
			<point x="194" y="137"/>
			<point x="194" y="182" type="curve" smooth="yes"/>
			<point x="194" y="300"/>
			<point x="243" y="382"/>
			<point x="296" y="382" type="curve" smooth="yes"/>
			<point x="311" y="382"/>
			<point x="328" y="369"/>
			<point x="340" y="344" type="curve"/>
			<point x="308" y="184" type="line"/>
			<point x="281" y="131"/>
			<point x="253" y="118"/>
		</contour>
		<contour>
			<point x="698" y="-82" type="line"/>
			<point x="766" y="100"/>
			<point x="808" y="174"/>
			<point x="846" y="174" type="curve" smooth="yes"/>
			<point x="862" y="174"/>
			<point x="870" y="166"/>
			<point x="870" y="152" type="curve" smooth="yes"/>
			<point x="870" y="133"/>
			<point x="846" y="114"/>
			<point x="810" y="114" type="curve" smooth="yes"/>
			<point x="765" y="114"/>
			<point x="725" y="119"/>
			<point x="680" y="124" type="curve"/>
			<point x="864" y="408" type="line"/>
			<point x="882" y="500" type="line"/>
			<point x="510" y="500" type="line"/>
			<point x="486" y="376" type="line"/>
			<point x="684" y="376" type="line"/>
			<point x="500" y="90" type="line"/>
			<point x="482" y="0" type="line"/>
			<point x="571" y="0"/>
			<point x="661" y="-10"/>
			<point x="750" y="-10" type="curve" smooth="yes"/>
			<point x="899" y="-10"/>
			<point x="954" y="97"/>
			<point x="954" y="178" type="curve" smooth="yes"/>
			<point x="954" y="229"/>
			<point x="921" y="256"/>
			<point x="866" y="256" type="curve" smooth="yes"/>
			<point x="778" y="256"/>
			<point x="696" y="114"/>
			<point x="622" y="-66" type="curve"/>
		</contour>
	</outline>
	<anchor name="aboveUC" x="490" y="722"/>
	<anchor name="belowLC" x="470" y="-22"/>
</glyph>
<glyph name="ts" format="2">
	<unicode hex="02A6"/>
	<advance width="674"/>
	<outline>
		<contour>
			<point x="332" y="-12" type="curve" smooth="yes"/>
			<point x="544" y="-12"/>
			<point x="628" y="58"/>
			<point x="628" y="166" type="curve" smooth="yes"/>
			<point x="628" y="305"/>
			<point x="468" y="292"/>
			<point x="468" y="358" type="curve" smooth="yes"/>
			<point x="468" y="378"/>
			<point x="488" y="394"/>
			<point x="520" y="394" type="curve" smooth="yes"/>
			<point x="546" y="394"/>
			<point x="570" y="380"/>
			<point x="588" y="360" type="curve"/>
			<point x="670" y="442" type="line"/>
			<point x="634" y="482"/>
			<point x="584" y="512"/>
			<point x="520" y="512" type="curve" smooth="yes"/>
			<point x="408" y="512"/>
			<point x="318" y="440"/>
			<point x="318" y="344" type="curve" smooth="yes"/>
			<point x="318" y="216"/>
			<point x="478" y="208"/>
			<point x="478" y="148" type="curve" smooth="yes"/>
			<point x="478" y="118"/>
			<point x="454" y="104"/>
			<point x="342" y="104" type="curve" smooth="yes"/>
			<point x="266" y="104"/>
			<point x="230" y="129"/>
			<point x="230" y="176" type="curve" smooth="yes"/>
			<point x="230" y="192"/>
			<point x="230" y="208"/>
			<point x="234" y="228" type="curve" smooth="yes"/>
			<point x="264" y="376" type="line"/>
			<point x="436" y="376" type="line"/>
			<point x="460" y="500" type="line"/>
			<point x="292" y="500" type="line"/>
			<point x="320" y="648" type="line"/>
			<point x="186" y="648" type="line"/>
			<point x="138" y="500" type="line"/>
			<point x="66" y="494" type="line"/>
			<point x="42" y="376" type="line"/>
			<point x="106" y="376" type="line"/>
			<point x="76" y="234" type="line" smooth="yes"/>
			<point x="71" y="209"/>
			<point x="68" y="183"/>
			<point x="68" y="158" type="curve" smooth="yes"/>
			<point x="68" y="58"/>
			<point x="144" y="-12"/>
		</contour>
	</outline>
	<anchor name="aboveLC" x="420" y="662"/>
	<anchor name="belowLC" x="320" y="-22"/>
</glyph>
<glyph name="tccurl" format="2">
	<unicode hex="02A8"/>
	<advance width="806"/>
	<outline>
		<contour>
			<point x="210" y="-12" type="curve" smooth="yes"/>
			<point x="250" y="-12"/>
			<point x="282" y="-2"/>
			<point x="304" y="6" type="curve"/>
			<point x="280" y="116" type="line"/>
			<point x="272" y="114"/>
			<point x="262" y="112"/>
			<point x="252" y="112" type="curve" smooth="yes"/>
			<point x="233" y="112"/>
			<point x="224" y="126"/>
			<point x="224" y="156" type="curve" smooth="yes"/>
			<point x="224" y="166"/>
			<point x="224" y="176"/>
			<point x="226" y="188" type="curve" smooth="yes"/>
			<point x="264" y="376" type="line"/>
			<point x="576" y="376" type="line"/>
			<point x="600" y="500" type="line"/>
			<point x="292" y="500" type="line"/>
			<point x="320" y="648" type="line"/>
			<point x="186" y="648" type="line"/>
			<point x="138" y="500" type="line"/>
			<point x="66" y="494" type="line"/>
			<point x="42" y="376" type="line"/>
			<point x="106" y="376" type="line"/>
			<point x="68" y="194" type="line" smooth="yes"/>
			<point x="64" y="172"/>
			<point x="60" y="150"/>
			<point x="60" y="128" type="curve" smooth="yes"/>
			<point x="60" y="46"/>
			<point x="104" y="-12"/>
		</contour>
		<component base="ccurl" xOffset="322"/>
	</outline>
	<anchor name="aboveUC" x="420" y="722"/>
	<anchor name="belowLC" x="370" y="-62"/>
</glyph>
<glyph name="hhook.sups" format="2">
	<unicode hex="02B1"/>
	<advance width="376"/>
	<outline>
		<contour>
			<point x="64" y="368" type="line"/>
			<point x="176" y="368" type="line"/>
			<point x="217" y="578" type="line"/>
			<point x="239" y="602"/>
			<point x="255" y="614"/>
			<point x="273" y="614" type="curve" smooth="yes"/>
			<point x="289" y="614"/>
			<point x="299" y="605"/>
			<point x="299" y="587" type="curve" smooth="yes"/>
			<point x="299" y="580"/>
			<point x="297" y="572"/>
			<point x="294" y="559" type="curve" smooth="yes"/>
			<point x="256" y="368" type="line"/>
			<point x="368" y="368" type="line"/>
			<point x="409" y="573" type="line" smooth="yes"/>
			<point x="412" y="587"/>
			<point x="415" y="604"/>
			<point x="415" y="619" type="curve" smooth="yes"/>
			<point x="415" y="676"/>
			<point x="389" y="708"/>
			<point x="334" y="708" type="curve" smooth="yes"/>
			<point x="294" y="708"/>
			<point x="259" y="687"/>
			<point x="233" y="664" type="curve"/>
			<point x="230" y="664" type="line"/>
			<point x="244" y="710" type="line"/>
			<point x="244" y="710" type="line" smooth="yes"/>
			<point x="256" y="750"/>
			<point x="266" y="758"/>
			<point x="287" y="758" type="curve" smooth="yes"/>
			<point x="298" y="758"/>
			<point x="310" y="754"/>
			<point x="316" y="750" type="curve"/>
			<point x="351" y="824" type="line"/>
			<point x="328" y="836"/>
			<point x="301" y="844"/>
			<point x="274" y="844" type="curve" smooth="yes"/>
			<point x="187" y="844"/>
			<point x="148" y="783"/>
			<point x="134" y="713" type="curve"/>
		</contour>
	</outline>
</glyph>
<glyph name="r.sups" format="1">
	<unicode hex="02B3"/>
	<advance width="264"/>
	<outline>
		<contour>
			<point x="64" y="368" type="line"/>
			<point x="175" y="368" type="line"/>
			<point x="213" y="565" type="line"/>
			<point x="237" y="598"/>
			<point x="259" y="611"/>
			<point x="290" y="611" type="curve" smooth="yes"/>
			<point x="301" y="611"/>
			<point x="309" y="611"/>
			<point x="318" y="606" type="curve"/>
			<point x="354" y="700" type="line"/>
			<point x="347" y="704"/>
			<point x="336" y="707"/>
			<point x="317" y="707" type="curve" smooth="yes"/>
			<point x="280" y="707"/>
			<point x="246" y="681"/>
			<point x="221" y="647" type="curve"/>
			<point x="218" y="647" type="line"/>
			<point x="219" y="700" type="line"/>
			<point x="129" y="700" type="line"/>
		</contour>
	</outline>
</glyph>
<glyph name="commaturnedmod" format="2">
	<unicode hex="02BB"/>
	<advance width="310"/>
	<outline>
		<contour>
			<point x="182" y="346" type="curve" smooth="yes"/>
			<point x="252" y="346"/>
			<point x="296" y="398"/>
			<point x="296" y="458" type="curve" smooth="yes"/>
			<point x="296" y="510"/>
			<point x="256" y="542"/>
			<point x="200" y="542" type="curve" smooth="yes"/>
			<point x="182" y="542"/>
			<point x="160" y="532"/>
			<point x="144" y="520" type="curve"/>
			<point x="180" y="434" type="line"/>
			<point x="194" y="539" type="line"/>
			<point x="194" y="576"/>
			<point x="244" y="650"/>
			<point x="340" y="682" type="curve"/>
			<point x="310" y="764" type="line"/>
			<point x="190" y="730"/>
			<point x="84" y="632"/>
			<point x="84" y="476" type="curve" smooth="yes"/>
			<point x="84" y="394"/>
			<point x="122" y="346"/>
		</contour>
	</outline>
</glyph>
<glyph name="apostrophemod" format="2">
	<unicode hex="02BC"/>
	<advance width="310"/>
	<outline>
		<contour>
			<point x="114" y="344" type="line"/>
			<point x="234" y="378"/>
			<point x="340" y="476"/>
			<point x="340" y="632" type="curve" smooth="yes"/>
			<point x="340" y="714"/>
			<point x="302" y="762"/>
			<point x="242" y="762" type="curve" smooth="yes"/>
			<point x="172" y="762"/>
			<point x="128" y="710"/>
			<point x="128" y="650" type="curve" smooth="yes"/>
			<point x="128" y="598"/>
			<point x="168" y="566"/>
			<point x="224" y="566" type="curve" smooth="yes"/>
			<point x="242" y="566"/>
			<point x="264" y="576"/>
			<point x="280" y="588" type="curve"/>
			<point x="244" y="674" type="line"/>
			<point x="230" y="569" type="line"/>
			<point x="230" y="532"/>
			<point x="180" y="458"/>
			<point x="84" y="426" type="curve"/>
		</contour>
	</outline>
</glyph>
<glyph name="commareversedmod" format="2">
	<unicode hex="02BD"/>
	<advance width="310"/>
	<outline>
		<contour>
			<point x="240" y="358" type="curve"/>
			<point x="294" y="424" type="line"/>
			<point x="228" y="464"/>
			<point x="196" y="500"/>
			<point x="196" y="534" type="curve" smooth="yes"/>
			<point x="196" y="550"/>
			<point x="202" y="566"/>
			<point x="213" y="580" type="curve"/>
			<point x="160" y="562" type="line"/>
			<point x="178" y="538"/>
			<point x="206" y="522"/>
			<point x="236" y="522" type="curve" smooth="yes"/>
			<point x="298" y="522"/>
			<point x="336" y="568"/>
			<point x="336" y="622" type="curve" smooth="yes"/>
			<point x="336" y="668"/>
			<point x="293" y="708"/>
			<point x="234" y="708" type="curve" smooth="yes"/>
			<point x="158" y="708"/>
			<point x="99" y="638"/>
			<point x="99" y="552" type="curve" smooth="yes"/>
			<point x="99" y="466"/>
			<point x="158" y="398"/>
		</contour>
	</outline>
</glyph>
<glyph name="ringhalfrightmod" format="2">
	<unicode hex="02BE"/>
	<advance width="270"/>
	<outline>
		<contour>
			<point x="78" y="370" type="line"/>
			<point x="220" y="364"/>
			<point x="298" y="446"/>
			<point x="298" y="572" type="curve" smooth="yes"/>
			<point x="298" y="660"/>
			<point x="228" y="704"/>
			<point x="146" y="698" type="curve"/>
			<point x="128" y="610" type="line"/>
			<point x="166" y="610"/>
			<point x="186" y="594"/>
			<point x="186" y="558" type="curve" smooth="yes"/>
			<point x="186" y="498"/>
			<point x="154" y="458"/>
			<point x="96" y="458" type="curve"/>
		</contour>
	</outline>
</glyph>
<glyph name="ringhalfleftmod" format="2">
	<unicode hex="02BF"/>
	<advance width="270"/>
	<outline>
		<contour>
			<point x="246" y="370" type="curve"/>
			<point x="264" y="458" type="line"/>
			<point x="226" y="458"/>
			<point x="206" y="474"/>
			<point x="206" y="510" type="curve" smooth="yes"/>
			<point x="206" y="570"/>
			<point x="238" y="610"/>
			<point x="296" y="610" type="curve"/>
			<point x="314" y="698" type="line"/>
			<point x="172" y="704"/>
			<point x="94" y="622"/>
			<point x="94" y="496" type="curve" smooth="yes"/>
			<point x="94" y="408"/>
			<point x="164" y="364"/>
		</contour>
	</outline>
</glyph>
<glyph name="glottalstopmod" format="2">
	<unicode hex="02C0"/>
	<advance width="344"/>
	<outline>
		<contour>
			<point x="152" y="488" type="line"/>
			<point x="264" y="488" type="line"/>
			<point x="274" y="558" type="line"/>
			<point x="360" y="598"/>
			<point x="407" y="656"/>
			<point x="407" y="726" type="curve" smooth="yes"/>
			<point x="407" y="794"/>
			<point x="356" y="842"/>
			<point x="266" y="842" type="curve" smooth="yes"/>
			<point x="212" y="842"/>
			<point x="158" y="818"/>
			<point x="122" y="783" type="curve"/>
			<point x="172" y="714" type="line"/>
			<point x="192" y="730"/>
			<point x="218" y="746"/>
			<point x="241" y="746" type="curve" smooth="yes"/>
			<point x="271" y="746"/>
			<point x="288" y="730"/>
			<point x="288" y="708" type="curve" smooth="yes"/>
			<point x="288" y="669"/>
			<point x="252" y="634"/>
			<point x="172" y="600" type="curve"/>
		</contour>
	</outline>
</glyph>
<glyph name="glottalstopreversedmod" format="2">
	<unicode hex="02C1"/>
	<advance width="344"/>
	<outline>
		<contour>
			<point x="180" y="488" type="line"/>
			<point x="292" y="488" type="line"/>
			<point x="316" y="598" type="line"/>
			<point x="256" y="628"/>
			<point x="238" y="658"/>
			<point x="238" y="686" type="curve" smooth="yes"/>
			<point x="238" y="718"/>
			<point x="264" y="746"/>
			<point x="304" y="746" type="curve" smooth="yes"/>
			<point x="328" y="746"/>
			<point x="352" y="732"/>
			<point x="370" y="714" type="curve"/>
			<point x="433" y="781" type="line"/>
			<point x="404" y="816"/>
			<point x="352" y="842"/>
			<point x="296" y="842" type="curve" smooth="yes"/>
			<point x="196" y="842"/>
			<point x="122" y="766"/>
			<point x="122" y="672" type="curve" smooth="yes"/>
			<point x="122" y="629"/>
			<point x="146" y="588"/>
			<point x="196" y="560" type="curve"/>
		</contour>
	</outline>
</glyph>
<glyph name="colontriangularmod" format="2">
	<unicode hex="02D0"/>
	<advance width="270"/>
	<outline>
		<contour>
			<point x="-22" y="0" type="line"/>
			<point x="201" y="0" type="line"/>
			<point x="137" y="200" type="line"/>
			<point x="122" y="200" type="line"/>
		</contour>
		<contour>
			<point x="136" y="300" type="line"/>
			<point x="151" y="300" type="line"/>
			<point x="295" y="500" type="line"/>
			<point x="72" y="500" type="line"/>
		</contour>
	</outline>
</glyph>
<glyph name="uptackmod" format="2">
	<unicode hex="02D4"/>
	<advance width="366"/>
	<outline>
		<contour>
			<point x="10" y="95" type="line"/>
			<point x="342" y="95" type="line"/>
			<point x="342" y="187" type="line"/>
			<point x="226" y="187" type="line"/>
			<point x="226" y="440" type="line"/>
			<point x="126" y="440" type="line"/>
			<point x="126" y="187" type="line"/>
			<point x="10" y="187" type="line"/>
		</contour>
	</outline>
</glyph>
<glyph name="hookrhoticmod" format="2">
	<unicode hex="02DE"/>
	<advance width="220"/>
	<outline>
		<contour>
			<point x="132" y="194" type="curve" smooth="yes"/>
			<point x="172" y="194"/>
			<point x="198" y="206"/>
			<point x="222" y="220" type="curve"/>
			<point x="200" y="300" type="line"/>
			<point x="190" y="294"/>
			<point x="178" y="290"/>
			<point x="166" y="290" type="curve" smooth="yes"/>
			<point x="140" y="290"/>
			<point x="128" y="304"/>
			<point x="128" y="340" type="curve" smooth="yes"/>
			<point x="128" y="368"/>
			<point x="132" y="402"/>
			<point x="146" y="452" type="curve"/>
			<point x="138" y="462" type="line"/>
			<point x="-60" y="384" type="line"/>
			<point x="-80" y="276" type="line"/>
			<point x="40" y="324" type="line"/>
			<point x="36" y="308"/>
			<point x="34" y="292"/>
			<point x="34" y="280" type="curve" smooth="yes"/>
			<point x="34" y="220"/>
			<point x="84" y="194"/>
		</contour>
	</outline>
</glyph>
<glyph name="glottalstopreversed.sups" format="2">
	<unicode hex="02E4"/>
	<advance width="344"/>
	<outline>
		<contour>
			<point x="156" y="368" type="line"/>
			<point x="268" y="368" type="line"/>
			<point x="310" y="572" type="line"/>
			<point x="255" y="610"/>
			<point x="236" y="645"/>
			<point x="236" y="678" type="curve" smooth="yes"/>
			<point x="236" y="715"/>
			<point x="262" y="746"/>
			<point x="302" y="746" type="curve" smooth="yes"/>
			<point x="328" y="746"/>
			<point x="352" y="732"/>
			<point x="370" y="714" type="curve"/>
			<point x="433" y="781" type="line"/>
			<point x="404" y="816"/>
			<point x="352" y="842"/>
			<point x="296" y="842" type="curve" smooth="yes"/>
			<point x="188" y="842"/>
			<point x="120" y="762"/>
			<point x="120" y="664" type="curve" smooth="yes"/>
			<point x="120" y="612"/>
			<point x="152" y="574"/>
			<point x="190" y="534" type="curve"/>
		</contour>
	</outline>
</glyph>
<glyph name="gravecmb" format="2">
	<unicode hex="0300"/>
	<outline>
		<contour>
			<point x="70" y="572" type="line"/>
			<point x="190" y="572" type="line"/>
			<point x="120" y="766" type="line"/>
			<point x="-50" y="766" type="line"/>
			<point x="-60" y="748" type="line"/>
		</contour>
	</outline>
	<anchor name="_aboveLC" x="100" y="522"/>
</glyph>
<glyph name="acutecmb" format="1">
	<unicode hex="0301"/>
	<outline>
		<contour>
			<point x="54" y="574" type="line"/>
			<point x="314" y="730" type="line"/>
			<point x="236" y="842" type="line"/>
			<point x="-9" y="656" type="line"/>
		</contour>
		<contour>
			<point name="_aboveLC" x="100" y="522" type="move"/>
		</contour>
	</outline>
</glyph>
<glyph name="circumflexcmb" format="2">
	<unicode hex="0302"/>
	<outline>
		<contour>
			<point x="-90" y="572" type="line"/>
			<point x="40" y="572" type="line"/>
			<point x="134" y="654" type="line"/>
			<point x="138" y="654" type="line"/>
			<point x="190" y="572" type="line"/>
			<point x="310" y="572" type="line"/>
			<point x="230" y="766" type="line"/>
			<point x="70" y="766" type="line"/>
		</contour>
	</outline>
	<anchor name="_aboveLC" x="100" y="522"/>
	<anchor name="aboveLC" x="144" y="742"/>
</glyph>
<glyph name="hoicmb" format="1">
	<unicode hex="0309"/>
	<outline>
		<contour>
			<point x="62" y="566" type="line"/>
			<point x="170" y="570"/>
			<point x="236" y="624"/>
			<point x="236" y="702" type="curve" smooth="yes"/>
			<point x="236" y="762"/>
			<point x="192" y="803"/>
			<point x="66" y="806" type="curve"/>
			<point x="36" y="702" type="line"/>
			<point x="86" y="698"/>
			<point x="106" y="687"/>
			<point x="106" y="669" type="curve" smooth="yes"/>
			<point x="106" y="646"/>
			<point x="88" y="636"/>
			<point x="58" y="632" type="curve"/>
		</contour>
		<contour>
			<point name="_aboveLC" x="100" y="522" type="move"/>
		</contour>
		<contour>
			<point name="aboveLC" x="140" y="730" type="move"/>
		</contour>
	</outline>
</glyph>
<glyph name="ringcmb" format="2">
	<unicode hex="030A"/>
	<outline>
		<contour>
			<point x="116" y="570" type="curve" smooth="yes"/>
			<point x="205" y="570"/>
			<point x="270" y="620"/>
			<point x="270" y="686" type="curve" smooth="yes"/>
			<point x="270" y="744"/>
			<point x="220" y="778"/>
			<point x="148" y="778" type="curve" smooth="yes"/>
			<point x="59" y="778"/>
			<point x="-6" y="728"/>
			<point x="-6" y="662" type="curve" smooth="yes"/>
			<point x="-6" y="604"/>
			<point x="45" y="570"/>
		</contour>
		<contour>
			<point x="126" y="630" type="curve" smooth="yes"/>
			<point x="104" y="630"/>
			<point x="94" y="646"/>
			<point x="94" y="666" type="curve" smooth="yes"/>
			<point x="94" y="694"/>
			<point x="114" y="718"/>
			<point x="138" y="718" type="curve" smooth="yes"/>
			<point x="160" y="718"/>
			<point x="170" y="700"/>
			<point x="170" y="682" type="curve" smooth="yes"/>
			<point x="170" y="654"/>
			<point x="150" y="630"/>
		</contour>
	</outline>
	<anchor name="_aboveLC" x="100" y="522"/>
	<anchor name="aboveLC" x="146" y="762"/>
	<guideline x="119" y="619" angle="79" identifier="4YVAbsrggf"/>
</glyph>
<glyph name="hungarumlautcmb" format="2">
	<unicode hex="030B"/>
	<outline>
		<contour>
			<point x="68" y="566" type="line"/>
			<point x="210" y="728" type="line"/>
			<point x="106" y="788" type="line"/>
			<point x="-14" y="614" type="line"/>
		</contour>
		<contour>
			<point x="258" y="566" type="line"/>
			<point x="400" y="728" type="line"/>
			<point x="296" y="788" type="line"/>
			<point x="176" y="614" type="line"/>
		</contour>
	</outline>
	<anchor name="_aboveLC" x="100" y="522"/>
</glyph>
<glyph name="dblgravecmb" format="2">
	<unicode hex="030F"/>
	<outline>
		<contour>
			<point x="-40" y="570" type="line"/>
			<point x="50" y="570" type="line"/>
			<point x="10" y="760" type="line"/>
			<point x="-120" y="760" type="line"/>
			<point x="-130" y="742" type="line"/>
		</contour>
		<contour>
			<point x="140" y="570" type="line"/>
			<point x="230" y="570" type="line"/>
			<point x="190" y="760" type="line"/>
			<point x="60" y="760" type="line"/>
			<point x="50" y="742" type="line"/>
		</contour>
	</outline>
	<anchor name="_aboveLC" x="100" y="522"/>
</glyph>
<glyph name="candrabinducmb" format="2">
	<unicode hex="0310"/>
	<outline>
		<contour>
			<point x="112" y="572" type="curve" smooth="yes"/>
			<point x="242" y="572"/>
			<point x="316" y="638"/>
			<point x="336" y="732" type="curve"/>
			<point x="254" y="748" type="line"/>
			<point x="238" y="702"/>
			<point x="194" y="668"/>
			<point x="130" y="668" type="curve" smooth="yes"/>
			<point x="68" y="668"/>
			<point x="46" y="702"/>
			<point x="48" y="748" type="curve"/>
			<point x="-40" y="732" type="line"/>
			<point x="-56" y="638"/>
			<point x="-12" y="572"/>
		</contour>
		<contour>
			<point x="148" y="724" type="curve" smooth="yes"/>
			<point x="194" y="724"/>
			<point x="234" y="762"/>
			<point x="234" y="808" type="curve" smooth="yes"/>
			<point x="234" y="850"/>
			<point x="202" y="870"/>
			<point x="168" y="870" type="curve" smooth="yes"/>
			<point x="122" y="870"/>
			<point x="82" y="832"/>
			<point x="82" y="786" type="curve" smooth="yes"/>
			<point x="82" y="744"/>
			<point x="114" y="724"/>
		</contour>
	</outline>
	<anchor name="_aboveLC" x="100" y="522"/>
</glyph>
<glyph name="commaabovecmb" format="2">
	<unicode hex="0313"/>
	<outline>
		<contour>
			<point x="54" y="574" type="line"/>
			<point x="162" y="605"/>
			<point x="210" y="674"/>
			<point x="210" y="756" type="curve" smooth="yes"/>
			<point x="210" y="802"/>
			<point x="184" y="830"/>
			<point x="141" y="830" type="curve" smooth="yes"/>
			<point x="100" y="830"/>
			<point x="64" y="799"/>
			<point x="64" y="751" type="curve" smooth="yes"/>
			<point x="64" y="718"/>
			<point x="93" y="694"/>
			<point x="121" y="694" type="curve" smooth="yes"/>
			<point x="141" y="694"/>
			<point x="155" y="701"/>
			<point x="169" y="713" type="curve"/>
			<point x="141" y="770" type="line"/>
			<point x="129" y="706" type="line"/>
			<point x="119" y="667"/>
			<point x="90" y="650"/>
			<point x="40" y="634" type="curve"/>
		</contour>
	</outline>
	<anchor name="_aboveLC" x="100" y="522"/>
</glyph>
<glyph name="leftangleabovecmb" format="2">
	<unicode hex="031A"/>
	<outline>
		<contour>
			<point x="140" y="574" type="line"/>
			<point x="225" y="574" type="line"/>
			<point x="255" y="728" type="line"/>
			<point x="67" y="728" type="line"/>
			<point x="51" y="648" type="line"/>
			<point x="155" y="648" type="line"/>
		</contour>
	</outline>
	<anchor name="_aboverightLC" x="100" y="520"/>
</glyph>
<glyph name="horncmb" format="2">
	<unicode hex="031B"/>
	<outline>
		<contour>
			<point x="80" y="424" type="line"/>
			<point x="222" y="436"/>
			<point x="278" y="495"/>
			<point x="278" y="568" type="curve" smooth="yes"/>
			<point x="278" y="590"/>
			<point x="274" y="612"/>
			<point x="264" y="634" type="curve"/>
			<point x="146" y="598" type="line"/>
			<point x="151" y="586"/>
			<point x="154" y="572"/>
			<point x="154" y="560" type="curve" smooth="yes"/>
			<point x="154" y="528"/>
			<point x="128" y="496"/>
			<point x="80" y="490" type="curve"/>
		</contour>
	</outline>
	<anchor name="_hornLC" x="100" y="502"/>
</glyph>
<glyph name="ringhalfleftbelowcmb" format="2">
	<unicode hex="031C"/>
	<outline>
		<contour>
			<point x="-4" y="-260" type="curve"/>
			<point x="8" y="-202" type="line"/>
			<point x="-24" y="-202"/>
			<point x="-38" y="-188"/>
			<point x="-38" y="-164" type="curve" smooth="yes"/>
			<point x="-38" y="-134"/>
			<point x="-18" y="-110"/>
			<point x="26" y="-108" type="curve"/>
			<point x="38" y="-48" type="line"/>
			<point x="-78" y="-48"/>
			<point x="-138" y="-100"/>
			<point x="-138" y="-168" type="curve" smooth="yes"/>
			<point x="-138" y="-224"/>
			<point x="-90" y="-266"/>
		</contour>
	</outline>
	<anchor name="_belowLC" x="0" y="-22"/>
</glyph>
<glyph name="uptackbelowcmb" format="2">
	<unicode hex="031D"/>
	<outline>
		<contour>
			<point x="-152" y="-226" type="line"/>
			<point x="64" y="-226" type="line"/>
			<point x="80" y="-150" type="line"/>
			<point x="14" y="-150" type="line"/>
			<point x="34" y="-42" type="line"/>
			<point x="-50" y="-42" type="line"/>
			<point x="-70" y="-150" type="line"/>
			<point x="-136" y="-150" type="line"/>
		</contour>
	</outline>
	<anchor name="_belowLC" x="0" y="-22"/>
</glyph>
<glyph name="plusbelowcmb" format="2">
	<unicode hex="031F"/>
	<outline>
		<contour>
			<point x="-94" y="-260" type="line"/>
			<point x="-10" y="-260" type="line"/>
			<point x="4" y="-194" type="line"/>
			<point x="70" y="-194" type="line"/>
			<point x="86" y="-118" type="line"/>
			<point x="20" y="-118" type="line"/>
			<point x="32" y="-52" type="line"/>
			<point x="-52" y="-52" type="line"/>
			<point x="-64" y="-118" type="line"/>
			<point x="-130" y="-118" type="line"/>
			<point x="-146" y="-194" type="line"/>
			<point x="-80" y="-194" type="line"/>
		</contour>
	</outline>
	<anchor name="_belowLC" x="0" y="-22"/>
</glyph>
<glyph name="minusbelowcmb" format="1">
	<unicode hex="0320"/>
	<outline>
		<contour>
			<point x="-146" y="-194" type="line"/>
			<point x="70" y="-194" type="line"/>
			<point x="86" y="-118" type="line"/>
			<point x="-130" y="-118" type="line"/>
		</contour>
		<contour>
			<point name="_belowLC" x="0" y="-22" type="move"/>
		</contour>
	</outline>
</glyph>
<glyph name="verticallinebelowcmb" format="2">
	<unicode hex="0329"/>
	<outline>
		<contour>
			<point x="-116" y="-260" type="line"/>
			<point x="12" y="-260" type="line"/>
			<point x="42" y="-52" type="line"/>
			<point x="-66" y="-52" type="line"/>
		</contour>
	</outline>
	<anchor name="_belowLC" x="0" y="-22"/>
</glyph>
<glyph name="bridgebelowcmb" format="1">
	<unicode hex="032A"/>
	<outline>
		<contour>
			<point x="-166" y="-218" type="line"/>
			<point x="-88" y="-218" type="line"/>
			<point x="-76" y="-156" type="line"/>
			<point x="16" y="-156" type="line"/>
			<point x="6" y="-218" type="line"/>
			<point x="84" y="-218" type="line"/>
			<point x="112" y="-76" type="line"/>
			<point x="-138" y="-76" type="line"/>
		</contour>
		<contour>
			<point name="_belowLC" x="0" y="-22" type="move"/>
		</contour>
	</outline>
</glyph>
<glyph name="slashshortcmb" format="2">
	<unicode hex="0337"/>
	<outline>
		<contour>
			<point x="-490" y="-26" type="line"/>
			<point x="2" y="480" type="line"/>
			<point x="-48" y="524" type="line"/>
			<point x="-538" y="20" type="line"/>
		</contour>
	</outline>
</glyph>
<glyph name="slashlongcmb" format="2">
	<unicode hex="0338"/>
	<outline>
		<contour>
			<point x="-612" y="-44" type="line"/>
			<point x="56" y="638" type="line"/>
			<point x="-14" y="702" type="line"/>
			<point x="-682" y="20" type="line"/>
		</contour>
	</outline>
</glyph>
<glyph name="ringhalfrightbelowcmb" format="2">
	<unicode hex="0339"/>
	<outline>
		<contour>
			<point x="-136" y="-260" type="line"/>
			<point x="-10" y="-260"/>
			<point x="50" y="-212"/>
			<point x="50" y="-144" type="curve" smooth="yes"/>
			<point x="50" y="-88"/>
			<point x="2" y="-48"/>
			<point x="-94" y="-54" type="curve"/>
			<point x="-106" y="-112" type="line"/>
			<point x="-74" y="-112"/>
			<point x="-60" y="-124"/>
			<point x="-60" y="-148" type="curve" smooth="yes"/>
			<point x="-60" y="-178"/>
			<point x="-80" y="-198"/>
			<point x="-124" y="-200" type="curve"/>
		</contour>
	</outline>
	<anchor name="_belowLC" x="0" y="-22"/>
</glyph>
<glyph name="squarebelowcmb" format="2">
	<unicode hex="033B"/>
	<outline>
		<contour>
			<point x="-175" y="-250" type="line"/>
			<point x="75" y="-250" type="line"/>
			<point x="112" y="-62" type="line"/>
			<point x="-137" y="-62" type="line"/>
		</contour>
		<contour>
			<point x="-84" y="-190" type="line"/>
			<point x="-70" y="-120" type="line"/>
			<point x="22" y="-120" type="line"/>
			<point x="8" y="-190" type="line"/>
		</contour>
	</outline>
	<anchor name="_belowLC" x="0" y="-22"/>
</glyph>
<glyph name="xabovecmb" format="2">
	<unicode hex="033D"/>
	<outline>
		<contour>
			<point x="55" y="535" type="line"/>
			<point x="114" y="586" type="line"/>
			<point x="153" y="535" type="line"/>
			<point x="218" y="591" type="line"/>
			<point x="179" y="642" type="line"/>
			<point x="238" y="693" type="line"/>
			<point x="196" y="749" type="line"/>
			<point x="136" y="698" type="line"/>
			<point x="98" y="749" type="line"/>
			<point x="33" y="693" type="line"/>
			<point x="72" y="642" type="line"/>
			<point x="12" y="591" type="line"/>
		</contour>
	</outline>
	<anchor name="_aboveLC" x="100" y="522"/>
</glyph>
<glyph name="variacmb" format="2">
	<unicode hex="0340"/>
	<outline>
		<contour>
			<point x="52" y="560" type="line"/>
			<point x="162" y="568" type="line"/>
			<point x="170" y="798" type="line"/>
			<point x="8" y="782" type="line"/>
		</contour>
	</outline>
	<anchor name="_aboveLC" x="100" y="522"/>
</glyph>
<glyph name="macrondoublebelowcmb" format="2">
	<unicode hex="035F"/>
	<outline>
		<contour>
			<point x="-524" y="-184" type="line"/>
			<point x="372" y="-184" type="line"/>
			<point x="390" y="-96" type="line"/>
			<point x="-506" y="-96" type="line"/>
		</contour>
	</outline>
</glyph>
<glyph name="Eta" format="1">
	<unicode hex="0397"/>
	<advance width="664"/>
	<outline>
		<component base="H"/>
		<contour>
			<point name="belowLC" x="290" y="-22" type="move"/>
		</contour>
	</outline>
</glyph>
<glyph name="Xi" format="2">
	<unicode hex="039E"/>
	<advance width="557"/>
	<outline>
		<contour>
			<point x="6" y="0" type="line"/>
			<point x="460" y="0" type="line"/>
			<point x="488" y="134" type="line"/>
			<point x="32" y="134" type="line"/>
		</contour>
		<contour>
			<point x="124" y="268" type="line"/>
			<point x="452" y="268" type="line"/>
			<point x="478" y="402" type="line"/>
			<point x="150" y="402" type="line"/>
		</contour>
		<contour>
			<point x="120" y="516" type="line"/>
			<point x="556" y="516" type="line"/>
			<point x="582" y="650" type="line"/>
			<point x="146" y="650" type="line"/>
		</contour>
	</outline>
</glyph>
<glyph name="Phi" format="2">
	<unicode hex="03A6"/>
	<advance width="746"/>
	<outline>
		<contour>
			<point x="248" y="-22" type="line"/>
			<point x="394" y="-22" type="line"/>
			<point x="534" y="672" type="line"/>
			<point x="388" y="672" type="line"/>
		</contour>
		<contour>
			<point x="316" y="62" type="curve" smooth="yes"/>
			<point x="364" y="62" type="line" smooth="yes"/>
			<point x="568" y="62"/>
			<point x="728" y="170"/>
			<point x="728" y="360" type="curve" smooth="yes"/>
			<point x="728" y="506"/>
			<point x="624" y="590"/>
			<point x="466" y="590" type="curve" smooth="yes"/>
			<point x="418" y="590" type="line" smooth="yes"/>
			<point x="214" y="590"/>
			<point x="54" y="482"/>
			<point x="54" y="292" type="curve" smooth="yes"/>
			<point x="54" y="146"/>
			<point x="158" y="62"/>
		</contour>
		<contour>
			<point x="346" y="186" type="line" smooth="yes"/>
			<point x="262" y="186"/>
			<point x="210" y="234"/>
			<point x="210" y="312" type="curve" smooth="yes"/>
			<point x="210" y="408"/>
			<point x="286" y="466"/>
			<point x="388" y="466" type="curve" smooth="yes"/>
			<point x="436" y="466" type="line" smooth="yes"/>
			<point x="520" y="466"/>
			<point x="572" y="418"/>
			<point x="572" y="340" type="curve" smooth="yes"/>
			<point x="572" y="244"/>
			<point x="496" y="186"/>
			<point x="394" y="186" type="curve" smooth="yes"/>
		</contour>
	</outline>
</glyph>
<glyph name="Psi" format="2">
	<unicode hex="03A8"/>
	<advance width="730"/>
	<outline>
		<contour>
			<point x="244" y="0" type="line"/>
			<point x="392" y="0" type="line"/>
			<point x="522" y="650" type="line"/>
			<point x="374" y="650" type="line"/>
		</contour>
		<contour>
			<point x="358" y="214" type="curve"/>
			<point x="372" y="214" type="line" smooth="yes"/>
			<point x="606" y="214"/>
			<point x="693" y="308"/>
			<point x="732" y="490" type="curve" smooth="yes"/>
			<point x="766" y="650" type="line"/>
			<point x="612" y="650" type="line"/>
			<point x="580" y="500" type="line" smooth="yes"/>
			<point x="556" y="388"/>
			<point x="504" y="338"/>
			<point x="408" y="338" type="curve" smooth="yes"/>
			<point x="346" y="338" type="line" smooth="yes"/>
			<point x="270" y="338"/>
			<point x="246" y="364"/>
			<point x="246" y="428" type="curve" smooth="yes"/>
			<point x="246" y="462"/>
			<point x="250" y="486"/>
			<point x="255" y="510" type="curve" smooth="yes"/>
			<point x="284" y="650" type="line"/>
			<point x="130" y="650" type="line"/>
			<point x="99" y="502" type="line" smooth="yes"/>
			<point x="94" y="476"/>
			<point x="90" y="445"/>
			<point x="90" y="414" type="curve" smooth="yes"/>
			<point x="90" y="292"/>
			<point x="193" y="214"/>
		</contour>
	</outline>
</glyph>
<glyph name="delta" format="2">
	<unicode hex="03B4"/>
	<advance width="530"/>
	<outline>
		<contour>
			<point x="226" y="-12" type="curve" smooth="yes"/>
			<point x="374" y="-12"/>
			<point x="496" y="108"/>
			<point x="496" y="280" type="curve" smooth="yes"/>
			<point x="496" y="352"/>
			<point x="461" y="415"/>
			<point x="376" y="478" type="curve" smooth="yes"/>
			<point x="320" y="520"/>
			<point x="288" y="536"/>
			<point x="288" y="556" type="curve" smooth="yes"/>
			<point x="288" y="574"/>
			<point x="301" y="586"/>
			<point x="328" y="586" type="curve" smooth="yes"/>
			<point x="366" y="586"/>
			<point x="430" y="566"/>
			<point x="490" y="526" type="curve"/>
			<point x="548" y="630" type="line"/>
			<point x="480" y="680"/>
			<point x="400" y="708"/>
			<point x="318" y="708" type="curve" smooth="yes"/>
			<point x="208" y="708"/>
			<point x="150" y="646"/>
			<point x="150" y="564" type="curve" smooth="yes"/>
			<point x="150" y="500"/>
			<point x="201" y="439"/>
			<point x="264" y="394" type="curve" smooth="yes"/>
			<point x="327" y="349"/>
			<point x="346" y="316"/>
			<point x="346" y="258" type="curve" smooth="yes"/>
			<point x="346" y="176"/>
			<point x="288" y="116"/>
			<point x="246" y="116" type="curve" smooth="yes"/>
			<point x="206" y="116"/>
			<point x="178" y="146"/>
			<point x="178" y="200" type="curve" smooth="yes"/>
			<point x="178" y="284"/>
			<point x="243" y="356"/>
			<point x="316" y="358" type="curve"/>
			<point x="253" y="436" type="line"/>
			<point x="148" y="428"/>
			<point x="24" y="328"/>
			<point x="24" y="182" type="curve" smooth="yes"/>
			<point x="24" y="60"/>
			<point x="110" y="-12"/>
		</contour>
	</outline>
	<anchor name="aboveUC" x="360" y="722"/>
	<anchor name="belowLC" x="220" y="-22"/>
</glyph>
<glyph name="epsilon" format="2">
	<unicode hex="03B5"/>
	<advance width="430"/>
	<outline>
		<contour>
			<point x="186" y="-12" type="curve" smooth="yes"/>
			<point x="266" y="-12"/>
			<point x="328" y="4"/>
			<point x="396" y="46" type="curve"/>
			<point x="338" y="144" type="line"/>
			<point x="306" y="124"/>
			<point x="268" y="110"/>
			<point x="234" y="110" type="curve" smooth="yes"/>
			<point x="196" y="110"/>
			<point x="172" y="122"/>
			<point x="172" y="146" type="curve" smooth="yes"/>
			<point x="172" y="182"/>
			<point x="208" y="204"/>
			<point x="342" y="206" type="curve"/>
			<point x="330" y="316" type="line"/>
			<point x="310" y="310"/>
			<point x="292" y="306"/>
			<point x="276" y="306" type="curve" smooth="yes"/>
			<point x="248" y="306"/>
			<point x="228" y="318"/>
			<point x="228" y="340" type="curve" smooth="yes"/>
			<point x="228" y="370"/>
			<point x="256" y="390"/>
			<point x="314" y="390" type="curve" smooth="yes"/>
			<point x="338" y="390"/>
			<point x="362" y="386"/>
			<point x="390" y="376" type="curve"/>
			<point x="428" y="488" type="line"/>
			<point x="389" y="501"/>
			<point x="342" y="512"/>
			<point x="288" y="512" type="curve" smooth="yes"/>
			<point x="178" y="512"/>
			<point x="70" y="459"/>
			<point x="70" y="356" type="curve" smooth="yes"/>
			<point x="70" y="310"/>
			<point x="102" y="274"/>
			<point x="138" y="260" type="curve"/>
			<point x="138" y="256" type="line"/>
			<point x="62" y="236"/>
			<point x="8" y="192"/>
			<point x="8" y="118" type="curve" smooth="yes"/>
			<point x="8" y="34"/>
			<point x="88" y="-12"/>
		</contour>
	</outline>
	<anchor name="aboveLC" x="300" y="522"/>
	<anchor name="belowLC" x="200" y="-22"/>
</glyph>
<glyph name="xi" format="2">
	<unicode hex="03BE"/>
	<advance width="453"/>
	<outline>
		<contour>
			<point x="290" y="-188" type="line"/>
			<point x="338" y="-136"/>
			<point x="386" y="-65"/>
			<point x="386" y="-2" type="curve" smooth="yes"/>
			<point x="386" y="58"/>
			<point x="358" y="88"/>
			<point x="274" y="112" type="curve" smooth="yes"/>
			<point x="210" y="130"/>
			<point x="184" y="141"/>
			<point x="184" y="174" type="curve" smooth="yes"/>
			<point x="184" y="238"/>
			<point x="244" y="292"/>
			<point x="412" y="292" type="curve"/>
			<point x="400" y="408" type="line"/>
			<point x="381" y="402"/>
			<point x="369" y="400"/>
			<point x="350" y="400" type="curve" smooth="yes"/>
			<point x="308" y="400"/>
			<point x="284" y="422"/>
			<point x="284" y="458" type="curve" smooth="yes"/>
			<point x="284" y="509"/>
			<point x="338" y="550"/>
			<point x="470" y="570" type="curve"/>
			<point x="484" y="570" type="line"/>
			<point x="510" y="686" type="line"/>
			<point x="118" y="708" type="line"/>
			<point x="94" y="594" type="line"/>
			<point x="149" y="605"/>
			<point x="243" y="604"/>
			<point x="280" y="604" type="curve"/>
			<point x="280" y="600" type="line"/>
			<point x="172" y="578"/>
			<point x="126" y="520"/>
			<point x="126" y="452" type="curve" smooth="yes"/>
			<point x="126" y="396"/>
			<point x="160" y="364"/>
			<point x="208" y="350" type="curve"/>
			<point x="208" y="346" type="line"/>
			<point x="108" y="316"/>
			<point x="20" y="256"/>
			<point x="20" y="152" type="curve" smooth="yes"/>
			<point x="20" y="52"/>
			<point x="92" y="14"/>
			<point x="176" y="-8" type="curve" smooth="yes"/>
			<point x="222" y="-20"/>
			<point x="236" y="-32"/>
			<point x="236" y="-56" type="curve" smooth="yes"/>
			<point x="236" y="-90"/>
			<point x="204" y="-120"/>
			<point x="180" y="-146" type="curve"/>
		</contour>
	</outline>
	<anchor name="aboveUC" x="320" y="722"/>
	<anchor name="belowLC" x="160" y="-182"/>
</glyph>
<glyph name="omega" format="2">
	<unicode hex="03C9"/>
	<advance width="731"/>
	<outline>
		<contour>
			<point x="160" y="-12" type="curve" smooth="yes"/>
			<point x="229" y="-12"/>
			<point x="294" y="20"/>
			<point x="342" y="110" type="curve"/>
			<point x="346" y="110" type="line"/>
			<point x="354" y="24"/>
			<point x="402" y="-12"/>
			<point x="470" y="-12" type="curve" smooth="yes"/>
			<point x="612" y="-12"/>
			<point x="700" y="148"/>
			<point x="700" y="356" type="curve" smooth="yes"/>
			<point x="700" y="402"/>
			<point x="696" y="460"/>
			<point x="682" y="510" type="curve"/>
			<point x="530" y="476" type="line"/>
			<point x="542" y="432"/>
			<point x="546" y="376"/>
			<point x="546" y="328" type="curve" smooth="yes"/>
			<point x="546" y="215"/>
			<point x="502" y="116"/>
			<point x="462" y="116" type="curve" smooth="yes"/>
			<point x="438" y="116"/>
			<point x="428" y="134"/>
			<point x="428" y="176" type="curve" smooth="yes"/>
			<point x="428" y="226"/>
			<point x="448" y="314"/>
			<point x="470" y="366" type="curve"/>
			<point x="314" y="366" type="line"/>
			<point x="304" y="200"/>
			<point x="250" y="116"/>
			<point x="212" y="116" type="curve" smooth="yes"/>
			<point x="190" y="116"/>
			<point x="178" y="132"/>
			<point x="178" y="164" type="curve" smooth="yes"/>
			<point x="178" y="252"/>
			<point x="214" y="338"/>
			<point x="296" y="454" type="curve"/>
			<point x="156" y="510" type="line"/>
			<point x="82" y="412"/>
			<point x="26" y="274"/>
			<point x="26" y="148" type="curve" smooth="yes"/>
			<point x="26" y="46"/>
			<point x="82" y="-12"/>
		</contour>
	</outline>
	<anchor name="aboveLC" x="410" y="522"/>
	<anchor name="belowLC" x="330" y="-22"/>
</glyph>
<glyph name="Kai" format="2">
	<unicode hex="03CF"/>
	<advance width="622"/>
	<outline>
		<contour>
			<point x="26" y="0" type="line"/>
			<point x="186" y="0" type="line"/>
			<point x="226" y="180" type="line"/>
			<point x="366" y="330" type="line"/>
			<point x="658" y="650" type="line"/>
			<point x="484" y="650" type="line"/>
			<point x="271" y="404" type="line"/>
			<point x="267" y="404" type="line"/>
			<point x="316" y="650" type="line"/>
			<point x="156" y="650" type="line"/>
		</contour>
		<contour>
			<point x="171" y="-188" type="curve" smooth="yes"/>
			<point x="384" y="-188"/>
			<point x="566" y="-46"/>
			<point x="566" y="186" type="curve" smooth="yes"/>
			<point x="566" y="342"/>
			<point x="460" y="400"/>
			<point x="342" y="400" type="curve"/>
			<point x="290" y="264" type="line"/>
			<point x="364" y="264"/>
			<point x="402" y="228"/>
			<point x="402" y="154" type="curve" smooth="yes"/>
			<point x="402" y="48"/>
			<point x="300" y="-54"/>
			<point x="188" y="-54" type="curve" smooth="yes"/>
			<point x="142" y="-54"/>
			<point x="84" y="-44"/>
			<point x="46" y="-22" type="curve"/>
			<point x="-24" y="-140" type="line"/>
			<point x="26" y="-178"/>
			<point x="96" y="-188"/>
		</contour>
	</outline>
</glyph>
<glyph name="theta.a" format="2">
	<unicode hex="03D1"/>
	<advance width="534"/>
	<outline>
		<contour>
			<point x="218" y="-12" type="curve" smooth="yes"/>
			<point x="406" y="-12"/>
			<point x="524" y="226"/>
			<point x="524" y="504" type="curve" smooth="yes"/>
			<point x="524" y="636"/>
			<point x="442" y="708"/>
			<point x="342" y="708" type="curve" smooth="yes"/>
			<point x="154" y="708"/>
			<point x="36" y="470"/>
			<point x="36" y="192" type="curve" smooth="yes"/>
			<point x="36" y="60"/>
			<point x="118" y="-12"/>
		</contour>
		<contour>
			<point x="234" y="116" type="curve" smooth="yes"/>
			<point x="202" y="116"/>
			<point x="184" y="138"/>
			<point x="184" y="198" type="curve" smooth="yes"/>
			<point x="184" y="374"/>
			<point x="254" y="580"/>
			<point x="326" y="580" type="curve" smooth="yes"/>
			<point x="358" y="580"/>
			<point x="376" y="558"/>
			<point x="376" y="498" type="curve" smooth="yes"/>
			<point x="376" y="322"/>
			<point x="306" y="116"/>
		</contour>
		<contour>
			<point x="130" y="296" type="line"/>
			<point x="408" y="296" type="line"/>
			<point x="432" y="412" type="line"/>
			<point x="154" y="412" type="line"/>
		</contour>
	</outline>
	<anchor name="aboveUC" x="350" y="722"/>
</glyph>
<glyph name="stigma" format="2">
	<unicode hex="03DB"/>
	<advance width="488"/>
	<outline>
		<contour>
			<point x="296" y="-188" type="line"/>
			<point x="344" y="-136"/>
			<point x="392" y="-65"/>
			<point x="392" y="-2" type="curve" smooth="yes"/>
			<point x="392" y="60"/>
			<point x="364" y="88"/>
			<point x="280" y="118" type="curve" smooth="yes"/>
			<point x="212" y="142"/>
			<point x="190" y="172"/>
			<point x="190" y="214" type="curve" smooth="yes"/>
			<point x="190" y="302"/>
			<point x="254" y="382"/>
			<point x="352" y="382" type="curve" smooth="yes"/>
			<point x="404" y="382"/>
			<point x="426" y="376"/>
			<point x="482" y="370" type="curve"/>
			<point x="508" y="500" type="line"/>
			<point x="346" y="500" type="line" smooth="yes"/>
			<point x="182" y="500"/>
			<point x="26" y="374"/>
			<point x="26" y="202" type="curve" smooth="yes"/>
			<point x="26" y="84"/>
			<point x="95" y="26"/>
			<point x="182" y="-2" type="curve" smooth="yes"/>
			<point x="220" y="-14"/>
			<point x="242" y="-28"/>
			<point x="242" y="-56" type="curve" smooth="yes"/>
			<point x="242" y="-90"/>
			<point x="210" y="-120"/>
			<point x="186" y="-146" type="curve"/>
		</contour>
	</outline>
	<anchor name="aboveLC" x="310" y="522"/>
	<anchor name="belowLC" x="160" y="-182"/>
</glyph>
<glyph name="digamma" format="1">
	<unicode hex="03DD"/>
	<advance width="419"/>
	<outline>
		<contour>
			<point x="-22" y="-176" type="line"/>
			<point x="138" y="-176" type="line"/>
			<point x="152" y="-72"/>
			<point x="166" y="18"/>
			<point x="186" y="116" type="curve"/>
			<point x="354" y="116" type="line"/>
			<point x="378" y="232" type="line"/>
			<point x="208" y="232" type="line"/>
			<point x="234" y="374" type="line"/>
			<point x="425" y="374" type="line"/>
			<point x="449" y="498" type="line"/>
			<point x="112" y="498" type="line"/>
		</contour>
		<contour>
			<point name="aboveLC" x="290" y="522" type="move"/>
		</contour>
	</outline>
</glyph>
<glyph name="sampi" format="2">
	<unicode hex="03E1"/>
	<advance width="524"/>
	<outline>
		<contour>
			<point x="417" y="-199" type="line"/>
			<point x="461" y="-80"/>
			<point x="491" y="36"/>
			<point x="491" y="168" type="curve" smooth="yes"/>
			<point x="491" y="376"/>
			<point x="419" y="565"/>
			<point x="274" y="703" type="curve"/>
			<point x="149" y="598" type="line"/>
			<point x="277" y="480"/>
			<point x="334" y="324"/>
			<point x="334" y="154" type="curve" smooth="yes"/>
			<point x="334" y="51"/>
			<point x="315" y="-39"/>
			<point x="267" y="-165" type="curve"/>
		</contour>
		<contour>
			<point x="115" y="-17" type="line"/>
			<point x="218" y="27"/>
			<point x="307" y="62"/>
			<point x="401" y="92" type="curve"/>
			<point x="437" y="238" type="line"/>
			<point x="77" y="119" type="line"/>
		</contour>
		<contour>
			<point x="64" y="196" type="line"/>
			<point x="168" y="240"/>
			<point x="257" y="275"/>
			<point x="350" y="305" type="curve"/>
			<point x="386" y="451" type="line"/>
			<point x="26" y="333" type="line"/>
		</contour>
	</outline>
</glyph>
<glyph name="Ieukran" format="2">
	<unicode hex="0404"/>
	<advance width="574"/>
	<outline>
		<contour>
			<point x="306" y="-12" type="curve" smooth="yes"/>
			<point x="404" y="-12"/>
			<point x="466" y="28"/>
			<point x="510" y="70" type="curve"/>
			<point x="444" y="172" type="line"/>
			<point x="414" y="146"/>
			<point x="378" y="126"/>
			<point x="336" y="126" type="curve" smooth="yes"/>
			<point x="250" y="126"/>
			<point x="214" y="180"/>
			<point x="214" y="274" type="curve" smooth="yes"/>
			<point x="214" y="414"/>
			<point x="300" y="524"/>
			<point x="392" y="524" type="curve" smooth="yes"/>
			<point x="430" y="524"/>
			<point x="462" y="510"/>
			<point x="490" y="472" type="curve"/>
			<point x="578" y="568" type="line"/>
			<point x="540" y="630"/>
			<point x="478" y="662"/>
			<point x="402" y="662" type="curve" smooth="yes"/>
			<point x="214" y="662"/>
			<point x="56" y="496"/>
			<point x="56" y="264" type="curve" smooth="yes"/>
			<point x="56" y="88"/>
			<point x="158" y="-12"/>
		</contour>
		<contour>
			<point x="146" y="268" type="line"/>
			<point x="442" y="268" type="line"/>
			<point x="468" y="402" type="line"/>
			<point x="173" y="402" type="line"/>
		</contour>
	</outline>
	<anchor name="aboveUC" x="370" y="672"/>
</glyph>
<glyph name="Nje" format="2">
	<unicode hex="040A"/>
	<advance width="908"/>
	<outline>
		<contour>
			<point x="26" y="0" type="line"/>
			<point x="186" y="0" type="line"/>
			<point x="238" y="266" type="line"/>
			<point x="422" y="266" type="line"/>
			<point x="368" y="0" type="line"/>
			<point x="574" y="0" type="line" smooth="yes"/>
			<point x="726" y="0"/>
			<point x="864" y="70"/>
			<point x="864" y="246" type="curve" smooth="yes"/>
			<point x="864" y="350"/>
			<point x="788" y="420"/>
			<point x="652" y="420" type="curve" smooth="yes"/>
			<point x="610" y="420" type="line"/>
			<point x="658" y="650" type="line"/>
			<point x="498" y="650" type="line"/>
			<point x="450" y="406" type="line"/>
			<point x="266" y="406" type="line"/>
			<point x="316" y="650" type="line"/>
			<point x="156" y="650" type="line"/>
		</contour>
		<contour>
			<point x="552" y="126" type="line"/>
			<point x="586" y="294" type="line"/>
			<point x="618" y="294" type="line" smooth="yes"/>
			<point x="678" y="294"/>
			<point x="706" y="272"/>
			<point x="706" y="222" type="curve" smooth="yes"/>
			<point x="706" y="168"/>
			<point x="666" y="126"/>
			<point x="586" y="126" type="curve" smooth="yes"/>
		</contour>
	</outline>
</glyph>
<glyph name="Tshe" format="2">
	<unicode hex="040B"/>
	<advance width="694"/>
	<outline>
		<contour>
			<point x="120" y="0" type="line"/>
			<point x="278" y="0" type="line"/>
			<point x="333" y="272" type="line"/>
			<point x="353" y="282"/>
			<point x="378" y="287"/>
			<point x="399" y="287" type="curve" smooth="yes"/>
			<point x="449" y="287"/>
			<point x="474" y="262"/>
			<point x="474" y="218" type="curve" smooth="yes"/>
			<point x="474" y="206"/>
			<point x="472" y="192"/>
			<point x="470" y="182" type="curve" smooth="yes"/>
			<point x="432" y="0" type="line"/>
			<point x="587" y="0" type="line"/>
			<point x="624" y="186" type="line" smooth="yes"/>
			<point x="628" y="206"/>
			<point x="630" y="229"/>
			<point x="630" y="248" type="curve" smooth="yes"/>
			<point x="630" y="360"/>
			<point x="554" y="412"/>
			<point x="441" y="412" type="curve" smooth="yes"/>
			<point x="414" y="412"/>
			<point x="389" y="408"/>
			<point x="358" y="397" type="curve"/>
			<point x="382" y="516" type="line"/>
			<point x="569" y="516" type="line"/>
			<point x="596" y="651" type="line"/>
			<point x="106" y="651" type="line"/>
			<point x="80" y="516" type="line"/>
			<point x="224" y="516" type="line"/>
		</contour>
	</outline>
</glyph>
<glyph name="De" format="2">
	<unicode hex="0414"/>
	<advance width="662"/>
	<outline>
		<contour>
			<point x="-52" y="-188" type="line"/>
			<point x="80" y="-188" type="line"/>
			<point x="120" y="0" type="line"/>
			<point x="446" y="0" type="line"/>
			<point x="412" y="-188" type="line"/>
			<point x="544" y="-188" type="line"/>
			<point x="604" y="22" type="line"/>
			<point x="626" y="134" type="line"/>
			<point x="-8" y="134" type="line"/>
			<point x="-28" y="36" type="line"/>
		</contour>
		<contour>
			<point x="21" y="26" type="line"/>
			<point x="138" y="26"/>
			<point x="226" y="153"/>
			<point x="299" y="344" type="curve" smooth="yes"/>
			<point x="327" y="416"/>
			<point x="337" y="446"/>
			<point x="362" y="516" type="curve"/>
			<point x="466" y="516" type="line"/>
			<point x="372" y="50" type="line"/>
			<point x="532" y="50" type="line"/>
			<point x="652" y="650" type="line"/>
			<point x="264" y="650" type="line"/>
			<point x="220" y="532"/>
			<point x="198" y="474"/>
			<point x="156" y="366" type="curve" smooth="yes"/>
			<point x="95" y="208"/>
			<point x="52" y="144"/>
			<point x="21" y="134" type="curve"/>
		</contour>
	</outline>
</glyph>
<glyph name="Zhe" format="2">
	<unicode hex="0416"/>
	<advance width="876"/>
	<outline>
		<contour>
			<point x="-34" y="0" type="line"/>
			<point x="140" y="0" type="line"/>
			<point x="306" y="268" type="line"/>
			<point x="370" y="268" type="line"/>
			<point x="316" y="0" type="line"/>
			<point x="472" y="0" type="line"/>
			<point x="526" y="268" type="line"/>
			<point x="590" y="268" type="line"/>
			<point x="656" y="0" type="line"/>
			<point x="822" y="0" type="line"/>
			<point x="718" y="336" type="line"/>
			<point x="786" y="452" type="line" smooth="yes"/>
			<point x="808" y="489"/>
			<point x="828" y="502"/>
			<point x="852" y="502" type="curve" smooth="yes"/>
			<point x="862" y="502"/>
			<point x="868" y="500"/>
			<point x="874" y="498" type="curve"/>
			<point x="924" y="652" type="line"/>
			<point x="909" y="658"/>
			<point x="888" y="662"/>
			<point x="868" y="662" type="curve" smooth="yes"/>
			<point x="798" y="662"/>
			<point x="731" y="635"/>
			<point x="682" y="542" type="curve" smooth="yes"/>
			<point x="606" y="396" type="line"/>
			<point x="550" y="396" type="line"/>
			<point x="602" y="650" type="line"/>
			<point x="446" y="650" type="line"/>
			<point x="396" y="396" type="line"/>
			<point x="340" y="396" type="line"/>
			<point x="306" y="542" type="line" smooth="yes"/>
			<point x="287" y="624"/>
			<point x="232" y="662"/>
			<point x="156" y="662" type="curve" smooth="yes"/>
			<point x="129" y="662"/>
			<point x="108" y="658"/>
			<point x="86" y="652" type="curve"/>
			<point x="102" y="498" type="line"/>
			<point x="110" y="500"/>
			<point x="118" y="502"/>
			<point x="132" y="502" type="curve" smooth="yes"/>
			<point x="160" y="502"/>
			<point x="180" y="488"/>
			<point x="188" y="452" type="curve" smooth="yes"/>
			<point x="210" y="356" type="line"/>
		</contour>
	</outline>
	<anchor name="aboveUC" x="530" y="672"/>
</glyph>
<glyph name="Ze" format="2">
	<unicode hex="0417"/>
	<advance width="544"/>
	<outline>
		<contour>
			<point x="226" y="-12" type="curve" smooth="yes"/>
			<point x="392" y="-12"/>
			<point x="510" y="80"/>
			<point x="510" y="208" type="curve" smooth="yes"/>
			<point x="510" y="276"/>
			<point x="470" y="320"/>
			<point x="414" y="338" type="curve"/>
			<point x="414" y="342" type="line"/>
			<point x="490" y="372"/>
			<point x="542" y="424"/>
			<point x="542" y="502" type="curve" smooth="yes"/>
			<point x="542" y="604"/>
			<point x="468" y="662"/>
			<point x="334" y="662" type="curve" smooth="yes"/>
			<point x="256" y="662"/>
			<point x="180" y="638"/>
			<point x="120" y="592" type="curve"/>
			<point x="180" y="484" type="line"/>
			<point x="226" y="514"/>
			<point x="264" y="526"/>
			<point x="312" y="526" type="curve" smooth="yes"/>
			<point x="352" y="526"/>
			<point x="380" y="504"/>
			<point x="380" y="466" type="curve" smooth="yes"/>
			<point x="380" y="428"/>
			<point x="350" y="392"/>
			<point x="275" y="392" type="curve" smooth="yes"/>
			<point x="208" y="392" type="line"/>
			<point x="186" y="278" type="line"/>
			<point x="272" y="278" type="line" smooth="yes"/>
			<point x="322" y="278"/>
			<point x="348" y="254"/>
			<point x="348" y="214" type="curve" smooth="yes"/>
			<point x="348" y="160"/>
			<point x="302" y="124"/>
			<point x="234" y="124" type="curve" smooth="yes"/>
			<point x="176" y="124"/>
			<point x="126" y="144"/>
			<point x="88" y="178" type="curve"/>
			<point x="16" y="74" type="line"/>
			<point x="64" y="14"/>
			<point x="148" y="-12"/>
		</contour>
	</outline>
</glyph>
<glyph name="Icyr" format="2">
	<unicode hex="0418"/>
	<advance width="672"/>
	<outline>
		<contour>
			<point x="26" y="0" type="line"/>
			<point x="200" y="0" type="line"/>
			<point x="406" y="308" type="line"/>
			<point x="436" y="357"/>
			<point x="468" y="402"/>
			<point x="498" y="454" type="curve"/>
			<point x="502" y="454" type="line"/>
			<point x="480" y="380"/>
			<point x="449" y="290"/>
			<point x="434" y="212" type="curve" smooth="yes"/>
			<point x="392" y="0" type="line"/>
			<point x="546" y="0" type="line"/>
			<point x="676" y="650" type="line"/>
			<point x="502" y="650" type="line"/>
			<point x="296" y="342" type="line"/>
			<point x="266" y="294"/>
			<point x="234" y="248"/>
			<point x="204" y="196" type="curve"/>
			<point x="200" y="196" type="line"/>
			<point x="222" y="266"/>
			<point x="252" y="360"/>
			<point x="268" y="438" type="curve" smooth="yes"/>
			<point x="310" y="650" type="line"/>
			<point x="156" y="650" type="line"/>
		</contour>
	</outline>
	<anchor name="aboveUC" x="420" y="672"/>
</glyph>
<glyph name="Ucyr" format="2">
	<unicode hex="0423"/>
	<advance width="541"/>
	<outline>
		<contour>
			<point x="124" y="-12" type="curve" smooth="yes"/>
			<point x="216" y="-12"/>
			<point x="290" y="50"/>
			<point x="350" y="156" type="curve" smooth="yes"/>
			<point x="632" y="650" type="line"/>
			<point x="472" y="650" type="line"/>
			<point x="390" y="484" type="line"/>
			<point x="312" y="326" type="line"/>
			<point x="308" y="326" type="line"/>
			<point x="284" y="484" type="line"/>
			<point x="256" y="650" type="line"/>
			<point x="96" y="650" type="line"/>
			<point x="206" y="174" type="line"/>
			<point x="195" y="156" type="line" smooth="yes"/>
			<point x="184" y="138"/>
			<point x="157" y="126"/>
			<point x="126" y="126" type="curve" smooth="yes"/>
			<point x="104" y="126"/>
			<point x="86" y="130"/>
			<point x="72" y="138" type="curve"/>
			<point x="18" y="12" type="line"/>
			<point x="37" y="0"/>
			<point x="70" y="-12"/>
		</contour>
	</outline>
	<anchor name="aboveUC" x="360" y="672"/>
</glyph>
<glyph name="Tse" format="2">
	<unicode hex="0426"/>
	<advance width="674"/>
	<outline>
		<contour>
			<point x="26" y="0" type="line"/>
			<point x="534" y="0" type="line"/>
			<point x="664" y="650" type="line"/>
			<point x="504" y="650" type="line"/>
			<point x="402" y="134" type="line"/>
			<point x="212" y="134" type="line"/>
			<point x="316" y="650" type="line"/>
			<point x="156" y="650" type="line"/>
		</contour>
		<contour>
			<point x="424" y="-188" type="line"/>
			<point x="556" y="-188" type="line"/>
			<point x="616" y="22" type="line"/>
			<point x="638" y="134" type="line"/>
			<point x="460" y="134" type="line"/>
			<point x="434" y="0" type="line"/>
			<point x="458" y="0" type="line"/>
		</contour>
	</outline>
	<anchor name="aboveUC" x="410" y="672"/>
</glyph>
<glyph name="Shcha" format="2">
	<unicode hex="0429"/>
	<advance width="910"/>
	<outline>
		<contour>
			<point x="660" y="-188" type="line"/>
			<point x="792" y="-188" type="line"/>
			<point x="852" y="22" type="line"/>
			<point x="874" y="134" type="line"/>
			<point x="696" y="134" type="line"/>
			<point x="670" y="0" type="line"/>
			<point x="694" y="0" type="line"/>
		</contour>
		<component base="Sha"/>
	</outline>
</glyph>
<glyph name="Soft" format="2">
	<unicode hex="042C"/>
	<advance width="596"/>
	<outline>
		<contour>
			<point x="26" y="0" type="line"/>
			<point x="262" y="0" type="line" smooth="yes"/>
			<point x="414" y="0"/>
			<point x="552" y="70"/>
			<point x="552" y="246" type="curve" smooth="yes"/>
			<point x="552" y="350"/>
			<point x="476" y="420"/>
			<point x="340" y="420" type="curve" smooth="yes"/>
			<point x="268" y="420" type="line"/>
			<point x="316" y="650" type="line"/>
			<point x="156" y="650" type="line"/>
		</contour>
		<contour>
			<point x="210" y="126" type="line"/>
			<point x="244" y="294" type="line"/>
			<point x="306" y="294" type="line" smooth="yes"/>
			<point x="366" y="294"/>
			<point x="394" y="272"/>
			<point x="394" y="222" type="curve" smooth="yes"/>
			<point x="394" y="168"/>
			<point x="354" y="126"/>
			<point x="274" y="126" type="curve" smooth="yes"/>
		</contour>
	</outline>
</glyph>
<glyph name="Ecyr" format="2">
	<unicode hex="042D"/>
	<advance width="561"/>
	<outline>
		<contour>
			<point x="208" y="-12" type="curve" smooth="yes"/>
			<point x="402" y="-12"/>
			<point x="548" y="144"/>
			<point x="548" y="386" type="curve" smooth="yes"/>
			<point x="548" y="564"/>
			<point x="440" y="662"/>
			<point x="302" y="662" type="curve" smooth="yes"/>
			<point x="228" y="662"/>
			<point x="150" y="636"/>
			<point x="104" y="594" type="curve"/>
			<point x="154" y="484" type="line"/>
			<point x="200" y="514"/>
			<point x="238" y="526"/>
			<point x="280" y="526" type="curve" smooth="yes"/>
			<point x="354" y="526"/>
			<point x="390" y="472"/>
			<point x="390" y="382" type="curve" smooth="yes"/>
			<point x="390" y="232"/>
			<point x="318" y="124"/>
			<point x="216" y="124" type="curve" smooth="yes"/>
			<point x="162" y="124"/>
			<point x="120" y="144"/>
			<point x="88" y="174" type="curve"/>
			<point x="12" y="74" type="line"/>
			<point x="54" y="16"/>
			<point x="134" y="-12"/>
		</contour>
		<contour>
			<point x="136" y="268" type="line"/>
			<point x="436" y="268" type="line"/>
			<point x="462" y="400" type="line"/>
			<point x="162" y="400" type="line"/>
		</contour>
	</outline>
	<anchor name="aboveUC" x="330" y="672"/>
</glyph>
<glyph name="be" format="2">
	<unicode hex="0431"/>
	<advance width="532"/>
	<outline>
		<contour>
			<point x="230" y="-12" type="curve" smooth="yes"/>
			<point x="390" y="-12"/>
			<point x="502" y="120"/>
			<point x="502" y="278" type="curve" smooth="yes"/>
			<point x="502" y="386"/>
			<point x="440" y="458"/>
			<point x="338" y="458" type="curve" smooth="yes"/>
			<point x="282" y="458"/>
			<point x="230" y="432"/>
			<point x="188" y="376" type="curve"/>
			<point x="180" y="267" type="line"/>
			<point x="208" y="312"/>
			<point x="250" y="338"/>
			<point x="282" y="338" type="curve" smooth="yes"/>
			<point x="320" y="338"/>
			<point x="340" y="312"/>
			<point x="340" y="260" type="curve" smooth="yes"/>
			<point x="340" y="177"/>
			<point x="303" y="116"/>
			<point x="250" y="116" type="curve" smooth="yes"/>
			<point x="214" y="116"/>
			<point x="182" y="142"/>
			<point x="182" y="246" type="curve" smooth="yes"/>
			<point x="182" y="414"/>
			<point x="232" y="502"/>
			<point x="322" y="532" type="curve" smooth="yes"/>
			<point x="358" y="544"/>
			<point x="380" y="546"/>
			<point x="438" y="548" type="curve" smooth="yes"/>
			<point x="486" y="550"/>
			<point x="534" y="560"/>
			<point x="564" y="580" type="curve"/>
			<point x="556" y="716" type="line"/>
			<point x="524" y="703"/>
			<point x="482" y="700"/>
			<point x="430" y="696" type="curve" smooth="yes"/>
			<point x="346" y="690"/>
			<point x="292" y="672"/>
			<point x="242" y="646" type="curve" smooth="yes"/>
			<point x="110" y="576"/>
			<point x="34" y="404"/>
			<point x="34" y="226" type="curve" smooth="yes"/>
			<point x="34" y="68"/>
			<point x="118" y="-12"/>
		</contour>
	</outline>
</glyph>
<glyph name="ve" format="1">
	<unicode hex="0432"/>
	<advance width="508"/>
	<outline>
		<contour>
			<point x="224" y="-12" type="curve" smooth="yes"/>
			<point x="358" y="-12"/>
			<point x="470" y="56"/>
			<point x="470" y="164" type="curve" smooth="yes"/>
			<point x="470" y="202"/>
			<point x="446" y="246"/>
			<point x="392" y="254" type="curve"/>
			<point x="392" y="258" type="line"/>
			<point x="454" y="278"/>
			<point x="488" y="332"/>
			<point x="488" y="392" type="curve" smooth="yes"/>
			<point x="488" y="464"/>
			<point x="424" y="512"/>
			<point x="334" y="512" type="curve" smooth="yes"/>
			<point x="166" y="512"/>
			<point x="26" y="374"/>
			<point x="26" y="156" type="curve" smooth="yes"/>
			<point x="26" y="56"/>
			<point x="98" y="-12"/>
		</contour>
		<contour>
			<point x="252" y="106" type="curve" smooth="yes"/>
			<point x="216" y="106"/>
			<point x="178" y="124"/>
			<point x="178" y="168" type="curve" smooth="yes"/>
			<point x="178" y="300"/>
			<point x="218" y="390"/>
			<point x="288" y="390" type="curve" smooth="yes"/>
			<point x="314" y="390"/>
			<point x="328" y="376"/>
			<point x="328" y="350" type="curve" smooth="yes"/>
			<point x="328" y="322"/>
			<point x="306" y="302"/>
			<point x="260" y="302" type="curve" smooth="yes"/>
			<point x="166" y="302" type="line"/>
			<point x="146" y="206" type="line"/>
			<point x="253" y="206" type="line" smooth="yes"/>
			<point x="298" y="206"/>
			<point x="318" y="194"/>
			<point x="318" y="158" type="curve" smooth="yes"/>
			<point x="318" y="128"/>
			<point x="292" y="106"/>
		</contour>
	</outline>
</glyph>
<glyph name="em" format="2">
	<unicode hex="043C"/>
	<advance width="692"/>
	<outline>
		<contour>
			<point x="26" y="-12" type="curve" smooth="yes"/>
			<point x="120" y="-12"/>
			<point x="182" y="52"/>
			<point x="202" y="164" type="curve" smooth="yes"/>
			<point x="214" y="232"/>
			<point x="218" y="292"/>
			<point x="225" y="374" type="curve"/>
			<point x="229" y="374" type="line"/>
			<point x="236" y="314"/>
			<point x="244" y="246"/>
			<point x="252" y="186" type="curve"/>
			<point x="272" y="42" type="line"/>
			<point x="358" y="42" type="line"/>
			<point x="436" y="196" type="line"/>
			<point x="463" y="249"/>
			<point x="495" y="319"/>
			<point x="521" y="374" type="curve"/>
			<point x="525" y="374" type="line"/>
			<point x="505" y="308"/>
			<point x="467" y="172"/>
			<point x="454" y="112" type="curve" smooth="yes"/>
			<point x="430" y="0" type="line"/>
			<point x="582" y="0" type="line"/>
			<point x="682" y="500" type="line"/>
			<point x="486" y="500" type="line"/>
			<point x="406" y="352" type="line" smooth="yes"/>
			<point x="385" y="312"/>
			<point x="370" y="278"/>
			<point x="353" y="244" type="curve"/>
			<point x="349" y="244" type="line"/>
			<point x="346" y="278"/>
			<point x="341" y="312"/>
			<point x="336" y="352" type="curve" smooth="yes"/>
			<point x="318" y="500" type="line"/>
			<point x="122" y="500" type="line"/>
			<point x="106" y="402"/>
			<point x="92" y="310"/>
			<point x="72" y="214" type="curve" smooth="yes"/>
			<point x="60" y="156"/>
			<point x="48" y="140"/>
			<point x="28" y="140" type="curve" smooth="yes"/>
			<point x="21" y="140"/>
			<point x="17" y="142"/>
			<point x="10" y="144" type="curve"/>
			<point x="-30" y="0" type="line"/>
			<point x="-15" y="-8"/>
			<point x="8" y="-12"/>
		</contour>
	</outline>
</glyph>
<glyph name="tse" format="2">
	<unicode hex="0446"/>
	<advance width="588"/>
	<outline>
		<contour>
			<point x="346" y="-172" type="line"/>
			<point x="470" y="-172" type="line"/>
			<point x="528" y="18" type="line"/>
			<point x="544" y="114" type="line"/>
			<point x="495" y="114"/>
			<point x="476" y="126"/>
			<point x="476" y="156" type="curve" smooth="yes"/>
			<point x="476" y="162"/>
			<point x="477" y="168"/>
			<point x="478" y="174" type="curve" smooth="yes"/>
			<point x="542" y="500" type="line"/>
			<point x="382" y="500" type="line"/>
			<point x="320" y="180" type="line"/>
			<point x="288" y="142"/>
			<point x="264" y="124"/>
			<point x="238" y="124" type="curve" smooth="yes"/>
			<point x="212" y="124"/>
			<point x="196" y="138"/>
			<point x="196" y="166" type="curve" smooth="yes"/>
			<point x="196" y="178"/>
			<point x="200" y="192"/>
			<point x="204" y="210" type="curve" smooth="yes"/>
			<point x="262" y="500" type="line"/>
			<point x="102" y="500" type="line"/>
			<point x="40" y="190" type="line" smooth="yes"/>
			<point x="35" y="166"/>
			<point x="32" y="140"/>
			<point x="32" y="118" type="curve" smooth="yes"/>
			<point x="32" y="32"/>
			<point x="68" y="-12"/>
			<point x="150" y="-12" type="curve" smooth="yes"/>
			<point x="210" y="-12"/>
			<point x="268" y="24"/>
			<point x="310" y="64" type="curve"/>
			<point x="314" y="64" type="line"/>
			<point x="314" y="64"/>
			<point x="314" y="64"/>
			<point x="314" y="64" type="curve" smooth="yes"/>
			<point x="316" y="36"/>
			<point x="344" y="8"/>
			<point x="374" y="4" type="curve"/>
		</contour>
	</outline>
	<anchor name="aboveLC" x="330" y="522"/>
</glyph>
<glyph name="che" format="2">
	<unicode hex="0447"/>
	<advance width="540"/>
	<outline>
		<contour>
			<point x="270" y="0" type="line"/>
			<point x="430" y="0" type="line"/>
			<point x="530" y="500" type="line"/>
			<point x="370" y="500" type="line"/>
			<point x="330" y="300" type="line"/>
			<point x="310" y="292"/>
			<point x="294" y="288"/>
			<point x="272" y="288" type="curve" smooth="yes"/>
			<point x="235" y="288"/>
			<point x="218" y="300"/>
			<point x="218" y="326" type="curve" smooth="yes"/>
			<point x="218" y="334"/>
			<point x="218" y="340"/>
			<point x="220" y="348" type="curve" smooth="yes"/>
			<point x="252" y="500" type="line"/>
			<point x="92" y="500" type="line"/>
			<point x="62" y="354" type="line"/>
			<point x="58" y="332"/>
			<point x="56" y="312"/>
			<point x="56" y="294" type="curve" smooth="yes"/>
			<point x="56" y="200"/>
			<point x="128" y="160"/>
			<point x="208" y="160" type="curve" smooth="yes"/>
			<point x="252" y="160"/>
			<point x="278" y="166"/>
			<point x="306" y="172" type="curve"/>
		</contour>
	</outline>
	<anchor name="aboveLC" x="312" y="522"/>
</glyph>
<glyph name="hard" format="1">
	<unicode hex="044A"/>
	<advance width="582"/>
	<outline>
		<contour>
			<point x="296" y="-12" type="curve" smooth="yes"/>
			<point x="428" y="-12"/>
			<point x="536" y="88"/>
			<point x="536" y="208" type="curve" smooth="yes"/>
			<point x="536" y="288"/>
			<point x="486" y="342"/>
			<point x="400" y="342" type="curve" smooth="yes"/>
			<point x="370" y="342"/>
			<point x="350" y="338"/>
			<point x="322" y="328" type="curve"/>
			<point x="368" y="500" type="line"/>
			<point x="70" y="500" type="line"/>
			<point x="46" y="376" type="line"/>
			<point x="173" y="376" type="line"/>
			<point x="134" y="230" type="line" smooth="yes"/>
			<point x="130" y="214"/>
			<point x="122" y="176"/>
			<point x="122" y="142" type="curve" smooth="yes"/>
			<point x="122" y="54"/>
			<point x="188" y="-12"/>
		</contour>
		<contour>
			<point x="326" y="108" type="curve" smooth="yes"/>
			<point x="298" y="108"/>
			<point x="280" y="128"/>
			<point x="280" y="158" type="curve" smooth="yes"/>
			<point x="280" y="176"/>
			<point x="284" y="190"/>
			<point x="292" y="210" type="curve"/>
			<point x="313" y="219"/>
			<point x="323" y="224"/>
			<point x="340" y="224" type="curve" smooth="yes"/>
			<point x="370" y="224"/>
			<point x="388" y="208"/>
			<point x="388" y="178" type="curve" smooth="yes"/>
			<point x="388" y="140"/>
			<point x="360" y="108"/>
		</contour>
	</outline>
</glyph>
<glyph name="dje" format="1">
	<unicode hex="0452"/>
	<advance width="570"/>
	<outline>
		<contour>
			<point x="230" y="-188" type="curve" smooth="yes"/>
			<point x="422" y="-188"/>
			<point x="522" y="128"/>
			<point x="522" y="328" type="curve" smooth="yes"/>
			<point x="522" y="420"/>
			<point x="488" y="492"/>
			<point x="402" y="492" type="curve" smooth="yes"/>
			<point x="342" y="492"/>
			<point x="290" y="462"/>
			<point x="250" y="426" type="curve"/>
			<point x="246" y="426" type="line"/>
			<point x="270" y="514" type="line"/>
			<point x="308" y="696" type="line"/>
			<point x="148" y="696" type="line"/>
			<point x="8" y="0" type="line"/>
			<point x="168" y="0" type="line"/>
			<point x="226" y="300" type="line"/>
			<point x="262" y="338"/>
			<point x="286" y="356"/>
			<point x="314" y="356" type="curve" smooth="yes"/>
			<point x="341" y="356"/>
			<point x="356" y="335"/>
			<point x="356" y="270" type="curve" smooth="yes"/>
			<point x="356" y="146"/>
			<point x="280" y="-62"/>
			<point x="212" y="-62" type="curve" smooth="yes"/>
			<point x="200" y="-62"/>
			<point x="186" y="-58"/>
			<point x="174" y="-50" type="curve"/>
			<point x="126" y="-164" type="line"/>
			<point x="150" y="-176"/>
			<point x="184" y="-188"/>
		</contour>
		<contour>
			<point x="52" y="552" type="line"/>
			<point x="434" y="552" type="line"/>
			<point x="450" y="628" type="line"/>
			<point x="140" y="628" type="line"/>
			<point x="66" y="622" type="line"/>
		</contour>
	</outline>
</glyph>
<glyph name="Yat" format="2">
	<unicode hex="0462"/>
	<advance width="622"/>
	<outline>
		<contour>
			<point x="88" y="0" type="line"/>
			<point x="284" y="0" type="line" smooth="yes"/>
			<point x="436" y="0"/>
			<point x="574" y="70"/>
			<point x="574" y="238" type="curve" smooth="yes"/>
			<point x="574" y="336"/>
			<point x="496" y="400"/>
			<point x="360" y="400" type="curve" smooth="yes"/>
			<point x="330" y="400" type="line"/>
			<point x="388" y="696" type="line"/>
			<point x="228" y="696" type="line"/>
		</contour>
		<contour>
			<point x="272" y="122" type="line"/>
			<point x="306" y="290" type="line"/>
			<point x="328" y="290" type="line" smooth="yes"/>
			<point x="388" y="290"/>
			<point x="416" y="268"/>
			<point x="416" y="218" type="curve" smooth="yes"/>
			<point x="416" y="162"/>
			<point x="372" y="122"/>
			<point x="296" y="122" type="curve" smooth="yes"/>
		</contour>
		<contour>
			<point x="78" y="485" type="line"/>
			<point x="544" y="485" type="line"/>
			<point x="566" y="600" type="line"/>
			<point x="100" y="600" type="line"/>
		</contour>
	</outline>
	<anchor name="aboveUC" x="300" y="722"/>
</glyph>
<glyph name="Fita" format="2">
	<unicode hex="0472"/>
	<advance width="670"/>
	<outline>
		<contour>
			<point x="308" y="-12" type="curve" smooth="yes"/>
			<point x="480" y="-12"/>
			<point x="644" y="144"/>
			<point x="644" y="386" type="curve" smooth="yes"/>
			<point x="644" y="562"/>
			<point x="542" y="662"/>
			<point x="392" y="662" type="curve" smooth="yes"/>
			<point x="220" y="662"/>
			<point x="56" y="506"/>
			<point x="56" y="264" type="curve" smooth="yes"/>
			<point x="56" y="88"/>
			<point x="158" y="-12"/>
		</contour>
		<contour>
			<point x="314" y="120" type="curve" smooth="yes"/>
			<point x="244" y="120"/>
			<point x="214" y="170"/>
			<point x="214" y="274" type="curve" smooth="yes"/>
			<point x="214" y="424"/>
			<point x="296" y="530"/>
			<point x="386" y="530" type="curve" smooth="yes"/>
			<point x="456" y="530"/>
			<point x="486" y="480"/>
			<point x="486" y="376" type="curve" smooth="yes"/>
			<point x="486" y="226"/>
			<point x="404" y="120"/>
		</contour>
		<contour>
			<point x="161" y="266" type="line"/>
			<point x="535" y="266" type="line"/>
			<point x="563" y="406" type="line"/>
			<point x="189" y="406" type="line"/>
		</contour>
	</outline>
	<anchor name="aboveUC" x="410" y="672"/>
</glyph>
<glyph name="gheup" format="1">
	<unicode hex="0491"/>
	<advance width="426"/>
	<outline>
		<contour>
			<point x="64" y="446" type="line"/>
			<point x="226" y="500" type="line"/>
			<point x="272" y="670" type="line"/>
			<point x="146" y="670" type="line"/>
		</contour>
		<component base="ghe"/>
	</outline>
</glyph>
<glyph name="Kadescender" format="2">
	<unicode hex="049A"/>
	<advance width="660"/>
	<outline>
		<contour>
			<point x="410" y="-188" type="line"/>
			<point x="542" y="-188" type="line"/>
			<point x="602" y="22" type="line"/>
			<point x="624" y="134" type="line"/>
			<point x="446" y="134" type="line"/>
			<point x="420" y="0" type="line"/>
			<point x="444" y="0" type="line"/>
		</contour>
		<component base="Ka"/>
	</outline>
</glyph>
<glyph name="kabashkir" format="1">
	<unicode hex="04A1"/>
	<advance width="670"/>
	<outline>
		<contour>
			<point x="332" y="500" type="line"/>
			<point x="66" y="500" type="line"/>
			<point x="42" y="376" type="line"/>
			<point x="210" y="376" type="line"/>
		</contour>
		<component base="ka" xOffset="126"/>
	</outline>
</glyph>
<glyph name="endescender" format="2">
	<unicode hex="04A3"/>
	<advance width="608"/>
	<outline>
		<contour>
			<point x="362" y="-172" type="line"/>
			<point x="486" y="-172" type="line"/>
			<point x="544" y="18" type="line"/>
			<point x="564" y="134" type="line"/>
			<point x="386" y="134" type="line"/>
			<point x="360" y="0" type="line"/>
			<point x="390" y="0" type="line"/>
		</contour>
		<component base="en"/>
	</outline>
</glyph>
<glyph name="esdescender" format="2">
	<unicode hex="04AB"/>
	<advance width="446"/>
	<outline>
		<contour>
			<point x="103" y="-172" type="line"/>
			<point x="261" y="-172" type="line"/>
			<point x="282" y="-30" type="line"/>
			<point x="158" y="-30" type="line"/>
		</contour>
		<component base="c"/>
	</outline>
</glyph>
<glyph name="Ustraightstroke" format="2">
	<unicode hex="04B0"/>
	<advance width="528"/>
	<outline>
		<contour>
			<point x="42" y="198" type="line"/>
			<point x="472" y="198" type="line"/>
			<point x="492" y="302" type="line"/>
			<point x="138" y="302" type="line"/>
			<point x="62" y="296" type="line"/>
		</contour>
		<component base="Ustraight"/>
	</outline>
	<anchor name="aboveUC" x="350" y="672"/>
</glyph>
<glyph name="ustraightstroke" format="1">
	<unicode hex="04B1"/>
	<advance width="518"/>
	<outline>
		<contour>
			<point x="0" y="0" type="line"/>
			<point x="416" y="0" type="line"/>
			<point x="436" y="104" type="line"/>
			<point x="112" y="104" type="line"/>
			<point x="20" y="98" type="line"/>
		</contour>
		<component base="ustraight"/>
		<contour>
			<point name="aboveLC" x="300" y="522" type="move"/>
		</contour>
	</outline>
</glyph>
<glyph name="Shha" format="2">
	<unicode hex="04BA"/>
	<advance width="624"/>
	<outline>
		<contour>
			<point x="26" y="0" type="line"/>
			<point x="186" y="0" type="line"/>
			<point x="244" y="290" type="line"/>
			<point x="262" y="300"/>
			<point x="277" y="304"/>
			<point x="304" y="304" type="curve" smooth="yes"/>
			<point x="366" y="304"/>
			<point x="402" y="277"/>
			<point x="402" y="217" type="curve" smooth="yes"/>
			<point x="402" y="206"/>
			<point x="400" y="188"/>
			<point x="398" y="176" type="curve" smooth="yes"/>
			<point x="362" y="0" type="line"/>
			<point x="518" y="0" type="line"/>
			<point x="552" y="166" type="line"/>
			<point x="558" y="191"/>
			<point x="560" y="216"/>
			<point x="560" y="236" type="curve" smooth="yes"/>
			<point x="560" y="366"/>
			<point x="470" y="428"/>
			<point x="352" y="428" type="curve" smooth="yes"/>
			<point x="320" y="428"/>
			<point x="296" y="424"/>
			<point x="270" y="414" type="curve"/>
			<point x="316" y="650" type="line"/>
			<point x="156" y="650" type="line"/>
		</contour>
	</outline>
</glyph>
<glyph name="Kahook" format="2">
	<unicode hex="04C3"/>
	<advance width="622"/>
	<outline>
		<contour>
			<point x="568" y="340"/>
			<point x="462" y="400"/>
			<point x="344" y="400" type="curve"/>
			<point x="448" y="336" type="line"/>
			<point x="522" y="452" type="line" smooth="yes"/>
			<point x="546" y="489"/>
			<point x="562" y="502"/>
			<point x="584" y="502" type="curve" smooth="yes"/>
			<point x="594" y="502"/>
			<point x="602" y="500"/>
			<point x="606" y="498" type="curve"/>
			<point x="656" y="652" type="line"/>
			<point x="642" y="658"/>
			<point x="619" y="662"/>
			<point x="600" y="662" type="curve" smooth="yes"/>
			<point x="528" y="662"/>
			<point x="474" y="638"/>
			<point x="420" y="546" type="curve" smooth="yes"/>
			<point x="334" y="400" type="line"/>
			<point x="266" y="400" type="line"/>
			<point x="316" y="650" type="line"/>
			<point x="156" y="650" type="line"/>
			<point x="26" y="0" type="line"/>
			<point x="186" y="0" type="line"/>
			<point x="240" y="272" type="line"/>
			<point x="292" y="272" type="line" smooth="yes"/>
			<point x="364" y="272"/>
			<point x="402" y="234"/>
			<point x="402" y="158" type="curve" smooth="yes"/>
			<point x="402" y="56"/>
			<point x="348" y="-44"/>
			<point x="294" y="-44" type="curve" smooth="yes"/>
			<point x="282" y="-44"/>
			<point x="270" y="-42"/>
			<point x="260" y="-38" type="curve"/>
			<point x="212" y="-160" type="line"/>
			<point x="232" y="-172"/>
			<point x="262" y="-182"/>
			<point x="308" y="-182" type="curve" smooth="yes"/>
			<point x="448" y="-182"/>
			<point x="568" y="-4"/>
			<point x="568" y="190" type="curve" smooth="yes"/>
		</contour>
	</outline>
</glyph>
<glyph name="kahook" format="2">
	<unicode hex="04C4"/>
	<advance width="554"/>
	<outline>
		<contour>
			<point x="236" y="-188" type="curve" smooth="yes"/>
			<point x="406" y="-188"/>
			<point x="500" y="-30"/>
			<point x="500" y="104" type="curve"/>
			<point x="500" y="236"/>
			<point x="431" y="308"/>
			<point x="303" y="308" type="curve"/>
			<point x="392" y="250" type="line"/>
			<point x="428" y="306" type="line" smooth="yes"/>
			<point x="448" y="338"/>
			<point x="462" y="350"/>
			<point x="478" y="350" type="curve" smooth="yes"/>
			<point x="488" y="350"/>
			<point x="494" y="348"/>
			<point x="500" y="346" type="curve"/>
			<point x="544" y="506" type="line"/>
			<point x="530" y="510"/>
			<point x="516" y="512"/>
			<point x="498" y="512" type="curve" smooth="yes"/>
			<point x="434" y="512"/>
			<point x="389" y="490"/>
			<point x="340" y="408" type="curve" smooth="yes"/>
			<point x="289" y="322" type="line"/>
			<point x="232" y="322" type="line"/>
			<point x="268" y="500" type="line"/>
			<point x="108" y="500" type="line"/>
			<point x="8" y="0" type="line"/>
			<point x="168" y="0" type="line"/>
			<point x="204" y="184" type="line"/>
			<point x="242" y="184" type="line" smooth="yes"/>
			<point x="307" y="184"/>
			<point x="342" y="148"/>
			<point x="342" y="80" type="curve"/>
			<point x="342" y="20"/>
			<point x="300" y="-64"/>
			<point x="242" y="-64" type="curve" smooth="yes"/>
			<point x="224" y="-64"/>
			<point x="208" y="-62"/>
			<point x="194" y="-52" type="curve"/>
			<point x="146" y="-164" type="line"/>
			<point x="170" y="-178"/>
			<point x="206" y="-188"/>
		</contour>
	</outline>
</glyph>
<glyph name="Aie" format="1">
	<unicode hex="04D4"/>
	<advance width="852"/>
	<outline>
		<component base="AE"/>
		<contour>
			<point name="aboveUC" x="620" y="672" type="move"/>
		</contour>
	</outline>
</glyph>
<glyph name="ghedescender" format="2">
	<unicode hex="04F7"/>
	<advance width="426"/>
	<outline>
		<contour>
			<point x="54" y="-172" type="line"/>
			<point x="212" y="-172" type="line"/>
			<point x="232" y="-30" type="line"/>
			<point x="108" y="-30" type="line"/>
		</contour>
		<component base="ghe"/>
	</outline>
</glyph>
<glyph name="A.sups" format="2">
	<unicode hex="1D2C"/>
	<advance width="380"/>
	<outline>
		<contour>
			<point x="14" y="368" type="line"/>
			<point x="138" y="368" type="line"/>
			<point x="230" y="578" type="line" smooth="yes"/>
			<point x="246" y="614"/>
			<point x="268" y="668"/>
			<point x="286" y="714" type="curve"/>
			<point x="290" y="714" type="line"/>
			<point x="293" y="668"/>
			<point x="293" y="614"/>
			<point x="294" y="578" type="curve" smooth="yes"/>
			<point x="298" y="368" type="line"/>
			<point x="416" y="368" type="line"/>
			<point x="374" y="800" type="line"/>
			<point x="232" y="800" type="line"/>
		</contour>
		<contour>
			<point x="129" y="460" type="line"/>
			<point x="337" y="460" type="line"/>
			<point x="355" y="548" type="line"/>
			<point x="147" y="548" type="line"/>
		</contour>
	</outline>
</glyph>
<glyph name="U.sups" format="2">
	<unicode hex="1D41"/>
	<advance width="436"/>
	<outline>
		<contour>
			<point x="268" y="360" type="curve" smooth="yes"/>
			<point x="370" y="360"/>
			<point x="430" y="422"/>
			<point x="456" y="556" type="curve" smooth="yes"/>
			<point x="504" y="800" type="line"/>
			<point x="392" y="800" type="line"/>
			<point x="344" y="554" type="line" smooth="yes"/>
			<point x="332" y="492"/>
			<point x="310" y="462"/>
			<point x="274" y="462" type="curve" smooth="yes"/>
			<point x="232" y="462"/>
			<point x="216" y="480"/>
			<point x="216" y="516" type="curve" smooth="yes"/>
			<point x="216" y="536"/>
			<point x="220" y="556"/>
			<point x="222" y="566" type="curve" smooth="yes"/>
			<point x="268" y="800" type="line"/>
			<point x="154" y="800" type="line"/>
			<point x="112" y="588" type="line" smooth="yes"/>
			<point x="108" y="566"/>
			<point x="102" y="533"/>
			<point x="102" y="514" type="curve" smooth="yes"/>
			<point x="102" y="408"/>
			<point x="158" y="360"/>
		</contour>
	</outline>
</glyph>
<glyph name="e.sups" format="2">
	<unicode hex="1D49"/>
	<advance width="336"/>
	<outline>
		<contour>
			<point x="220" y="360" type="curve" smooth="yes"/>
			<point x="266" y="360"/>
			<point x="304" y="374"/>
			<point x="334" y="392" type="curve"/>
			<point x="304" y="458" type="line"/>
			<point x="286" y="448"/>
			<point x="266" y="442"/>
			<point x="246" y="442" type="curve" smooth="yes"/>
			<point x="210" y="442"/>
			<point x="178" y="460"/>
			<point x="178" y="505" type="curve" smooth="yes"/>
			<point x="178" y="591"/>
			<point x="220" y="624"/>
			<point x="252" y="624" type="curve" smooth="yes"/>
			<point x="279" y="624"/>
			<point x="288" y="607"/>
			<point x="288" y="584" type="curve" smooth="yes"/>
			<point x="288" y="574"/>
			<point x="286" y="564"/>
			<point x="284" y="558" type="curve"/>
			<point x="294" y="566" type="line"/>
			<point x="160" y="566" type="line"/>
			<point x="160" y="500" type="line"/>
			<point x="360" y="500" type="line"/>
			<point x="368" y="516"/>
			<point x="378" y="552"/>
			<point x="378" y="580" type="curve" smooth="yes"/>
			<point x="378" y="650"/>
			<point x="348" y="708"/>
			<point x="266" y="708" type="curve" smooth="yes"/>
			<point x="176" y="708"/>
			<point x="76" y="626"/>
			<point x="76" y="502" type="curve" smooth="yes"/>
			<point x="76" y="414"/>
			<point x="134" y="360"/>
		</contour>
	</outline>
</glyph>
<glyph name="schwa.sups" format="2">
	<unicode hex="1D4A"/>
	<advance width="336"/>
	<outline>
		<contour>
			<point x="189" y="361" type="curve" smooth="yes"/>
			<point x="279" y="361"/>
			<point x="378" y="443"/>
			<point x="378" y="564" type="curve" smooth="yes"/>
			<point x="378" y="660"/>
			<point x="325" y="708"/>
			<point x="248" y="708" type="curve" smooth="yes"/>
			<point x="209" y="708"/>
			<point x="168" y="697"/>
			<point x="128" y="677" type="curve"/>
			<point x="158" y="611" type="line"/>
			<point x="182" y="622"/>
			<point x="196" y="626"/>
			<point x="216" y="626" type="curve" smooth="yes"/>
			<point x="249" y="626"/>
			<point x="272" y="612"/>
			<point x="274" y="564" type="curve"/>
			<point x="95" y="564" type="line"/>
			<point x="90" y="555"/>
			<point x="77" y="521"/>
			<point x="77" y="487" type="curve" smooth="yes"/>
			<point x="77" y="418"/>
			<point x="107" y="361"/>
		</contour>
		<contour>
			<point x="202" y="444" type="curve" smooth="yes"/>
			<point x="175" y="444"/>
			<point x="166" y="460"/>
			<point x="166" y="482" type="curve" smooth="yes"/>
			<point x="166" y="489"/>
			<point x="168" y="490"/>
			<point x="169" y="499" type="curve"/>
			<point x="266" y="499" type="line"/>
			<point x="252" y="458"/>
			<point x="227" y="444"/>
		</contour>
	</outline>
</glyph>
<glyph name="g.sups" format="2">
	<unicode hex="1D4D"/>
	<advance width="370"/>
	<outline>
		<contour>
			<point x="183" y="221" type="curve" smooth="yes"/>
			<point x="278" y="221"/>
			<point x="343" y="267"/>
			<point x="364" y="370" type="curve" smooth="yes"/>
			<point x="430" y="700" type="line"/>
			<point x="340" y="700" type="line"/>
			<point x="324" y="666" type="line"/>
			<point x="320" y="666" type="line"/>
			<point x="308" y="690"/>
			<point x="284" y="708"/>
			<point x="256" y="708" type="curve" smooth="yes"/>
			<point x="163" y="708"/>
			<point x="80" y="610"/>
			<point x="80" y="489" type="curve" smooth="yes"/>
			<point x="80" y="415"/>
			<point x="115" y="373"/>
			<point x="174" y="373" type="curve" smooth="yes"/>
			<point x="208" y="373"/>
			<point x="240" y="386"/>
			<point x="270" y="408" type="curve"/>
			<point x="274" y="408" type="line"/>
			<point x="258" y="363" type="line" smooth="yes"/>
			<point x="245" y="327"/>
			<point x="219" y="307"/>
			<point x="186" y="307" type="curve" smooth="yes"/>
			<point x="154" y="307"/>
			<point x="122" y="323"/>
			<point x="93" y="340" type="curve"/>
			<point x="49" y="266" type="line"/>
			<point x="93" y="234"/>
			<point x="144" y="221"/>
		</contour>
		<contour>
			<point x="222" y="462" type="curve" smooth="yes"/>
			<point x="206" y="462"/>
			<point x="195" y="474"/>
			<point x="195" y="503" type="curve" smooth="yes"/>
			<point x="195" y="571"/>
			<point x="226" y="618"/>
			<point x="264" y="618" type="curve" smooth="yes"/>
			<point x="275" y="618"/>
			<point x="289" y="610"/>
			<point x="296" y="594" type="curve"/>
			<point x="277" y="491" type="line"/>
			<point x="261" y="467"/>
			<point x="240" y="462"/>
		</contour>
	</outline>
</glyph>
<glyph name="t.sups" format="2">
	<unicode hex="1D57"/>
	<advance width="260"/>
	<outline>
		<contour>
			<point x="202" y="360" type="curve" smooth="yes"/>
			<point x="232" y="360"/>
			<point x="262" y="366"/>
			<point x="282" y="372" type="curve"/>
			<point x="265" y="451" type="line"/>
			<point x="256" y="448"/>
			<point x="250" y="446"/>
			<point x="240" y="446" type="curve" smooth="yes"/>
			<point x="223" y="446"/>
			<point x="213" y="454"/>
			<point x="213" y="475" type="curve" smooth="yes"/>
			<point x="213" y="481"/>
			<point x="213" y="487"/>
			<point x="214" y="494" type="curve"/>
			<point x="238" y="614" type="line"/>
			<point x="313" y="614" type="line"/>
			<point x="329" y="700" type="line"/>
			<point x="255" y="700" type="line"/>
			<point x="276" y="798" type="line"/>
			<point x="184" y="798" type="line"/>
			<point x="152" y="700" type="line"/>
			<point x="102" y="696" type="line"/>
			<point x="86" y="614" type="line"/>
			<point x="129" y="614" type="line"/>
			<point x="104" y="498" type="line" smooth="yes"/>
			<point x="101" y="483"/>
			<point x="99" y="469"/>
			<point x="99" y="454" type="curve" smooth="yes"/>
			<point x="99" y="399"/>
			<point x="129" y="360"/>
		</contour>
	</outline>
</glyph>
<glyph name="u.sups" format="2">
	<unicode hex="1D58"/>
	<advance width="370"/>
	<outline>
		<contour>
			<point x="158" y="360" type="curve" smooth="yes"/>
			<point x="201" y="360"/>
			<point x="236" y="384"/>
			<point x="266" y="412" type="curve"/>
			<point x="270" y="412" type="line"/>
			<point x="270" y="368" type="line"/>
			<point x="360" y="368" type="line"/>
			<point x="426" y="700" type="line"/>
			<point x="314" y="700" type="line"/>
			<point x="273" y="490" type="line"/>
			<point x="251" y="466"/>
			<point x="237" y="454"/>
			<point x="219" y="454" type="curve" smooth="yes"/>
			<point x="203" y="454"/>
			<point x="194" y="463"/>
			<point x="194" y="481" type="curve" smooth="yes"/>
			<point x="194" y="488"/>
			<point x="195" y="497"/>
			<point x="198" y="509" type="curve" smooth="yes"/>
			<point x="236" y="700" type="line"/>
			<point x="124" y="700" type="line"/>
			<point x="83" y="495" type="line"/>
			<point x="81" y="481"/>
			<point x="77" y="464"/>
			<point x="77" y="449" type="curve" smooth="yes"/>
			<point x="77" y="392"/>
			<point x="103" y="360"/>
		</contour>
	</outline>
</glyph>
<glyph name="upsilonstroke" format="2">
	<unicode hex="1D7F"/>
	<advance width="541"/>
	<outline>
		<contour>
			<point x="-14" y="202" type="line"/>
			<point x="536" y="202" type="line"/>
			<point x="556" y="306" type="line"/>
			<point x="98" y="306" type="line"/>
			<point x="6" y="300" type="line"/>
		</contour>
		<component base="upsilonlatin"/>
	</outline>
	<anchor name="aboveLC" x="330" y="522"/>
	<anchor name="belowLC" x="220" y="-22"/>
</glyph>
<glyph name="c.sups" format="2">
	<unicode hex="1D9C"/>
	<advance width="298"/>
	<outline>
		<contour>
			<point x="211" y="360" type="curve" smooth="yes"/>
			<point x="258" y="360"/>
			<point x="298" y="380"/>
			<point x="320" y="400" type="curve"/>
			<point x="278" y="464" type="line"/>
			<point x="266" y="454"/>
			<point x="256" y="448"/>
			<point x="236" y="448" type="curve" smooth="yes"/>
			<point x="212" y="448"/>
			<point x="190" y="466"/>
			<point x="190" y="506" type="curve" smooth="yes"/>
			<point x="190" y="566"/>
			<point x="226" y="620"/>
			<point x="272" y="620" type="curve" smooth="yes"/>
			<point x="287" y="620"/>
			<point x="297" y="615"/>
			<point x="308" y="602" type="curve"/>
			<point x="368" y="666" type="line"/>
			<point x="348" y="688"/>
			<point x="316" y="708"/>
			<point x="276" y="708" type="curve" smooth="yes"/>
			<point x="160" y="708"/>
			<point x="76" y="609"/>
			<point x="76" y="492" type="curve" smooth="yes"/>
			<point x="76" y="409"/>
			<point x="137" y="360"/>
		</contour>
	</outline>
</glyph>
<glyph name="mhook.sups" format="2">
	<unicode hex="1DAC"/>
	<advance width="560"/>
	<outline>
		<contour>
			<point x="416" y="236" type="curve" smooth="yes"/>
			<point x="498" y="236"/>
			<point x="536" y="289"/>
			<point x="550" y="358" type="curve" smooth="yes"/>
			<point x="592" y="571" type="line" smooth="yes"/>
			<point x="595" y="586"/>
			<point x="597" y="605"/>
			<point x="597" y="618" type="curve" smooth="yes"/>
			<point x="597" y="677"/>
			<point x="575" y="708"/>
			<point x="520" y="708" type="curve" smooth="yes"/>
			<point x="476" y="708"/>
			<point x="439" y="679"/>
			<point x="408" y="651" type="curve"/>
			<point x="397" y="686"/>
			<point x="376" y="708"/>
			<point x="334" y="708" type="curve" smooth="yes"/>
			<point x="289" y="708"/>
			<point x="254" y="684"/>
			<point x="224" y="656" type="curve"/>
			<point x="220" y="656" type="line"/>
			<point x="220" y="700" type="line"/>
			<point x="130" y="700" type="line"/>
			<point x="65" y="368" type="line"/>
			<point x="176" y="368" type="line"/>
			<point x="217" y="578" type="line"/>
			<point x="238" y="602"/>
			<point x="259" y="614"/>
			<point x="270" y="614" type="curve" smooth="yes"/>
			<point x="289" y="614"/>
			<point x="296" y="603"/>
			<point x="296" y="586" type="curve" smooth="yes"/>
			<point x="296" y="577"/>
			<point x="293" y="568"/>
			<point x="291" y="558" type="curve" smooth="yes"/>
			<point x="254" y="368" type="line"/>
			<point x="363" y="368" type="line"/>
			<point x="404" y="578" type="line"/>
			<point x="426" y="603"/>
			<point x="447" y="614"/>
			<point x="459" y="614" type="curve" smooth="yes"/>
			<point x="477" y="614"/>
			<point x="481" y="604"/>
			<point x="481" y="589" type="curve" smooth="yes"/>
			<point x="481" y="578"/>
			<point x="480" y="568"/>
			<point x="478" y="558" type="curve" smooth="yes"/>
			<point x="440" y="368" type="line" smooth="yes"/>
			<point x="433" y="333"/>
			<point x="427" y="322"/>
			<point x="406" y="322" type="curve" smooth="yes"/>
			<point x="397" y="322"/>
			<point x="388" y="324"/>
			<point x="378" y="328" type="curve"/>
			<point x="345" y="251" type="line"/>
			<point x="370" y="239"/>
			<point x="392" y="236"/>
		</contour>
	</outline>
</glyph>
<glyph name="theta.sups" format="2">
	<unicode hex="1DBF"/>
	<advance width="362"/>
	<outline>
		<contour>
			<point x="206" y="360" type="curve" smooth="yes"/>
			<point x="340" y="360"/>
			<point x="432" y="500"/>
			<point x="432" y="696" type="curve" smooth="yes"/>
			<point x="432" y="796"/>
			<point x="370" y="844"/>
			<point x="306" y="844" type="curve" smooth="yes"/>
			<point x="172" y="844"/>
			<point x="80" y="704"/>
			<point x="80" y="508" type="curve" smooth="yes"/>
			<point x="80" y="408"/>
			<point x="142" y="360"/>
		</contour>
		<contour>
			<point x="222" y="448" type="curve" smooth="yes"/>
			<point x="202" y="448"/>
			<point x="192" y="468"/>
			<point x="192" y="518" type="curve" smooth="yes"/>
			<point x="192" y="639"/>
			<point x="244" y="756"/>
			<point x="290" y="756" type="curve" smooth="yes"/>
			<point x="310" y="756"/>
			<point x="320" y="736"/>
			<point x="320" y="686" type="curve" smooth="yes"/>
			<point x="320" y="565"/>
			<point x="268" y="448"/>
		</contour>
		<contour>
			<point x="132" y="562" type="line"/>
			<point x="342" y="562" type="line"/>
			<point x="361" y="648" type="line"/>
			<point x="151" y="648" type="line"/>
		</contour>
	</outline>
</glyph>
<glyph name="deltalatin" format="2">
	<unicode hex="1E9F"/>
	<advance width="530"/>
	<outline>
		<contour>
			<point x="226" y="-12" type="curve" smooth="yes"/>
			<point x="374" y="-12"/>
			<point x="496" y="108"/>
			<point x="496" y="290" type="curve" smooth="yes"/>
			<point x="496" y="401"/>
			<point x="436" y="500"/>
			<point x="328" y="576" type="curve"/>
			<point x="524" y="576" type="line"/>
			<point x="549" y="696" type="line"/>
			<point x="164" y="696" type="line"/>
			<point x="136" y="564" type="line"/>
			<point x="287" y="459"/>
			<point x="346" y="362"/>
			<point x="346" y="258" type="curve" smooth="yes"/>
			<point x="346" y="176"/>
			<point x="288" y="116"/>
			<point x="246" y="116" type="curve" smooth="yes"/>
			<point x="206" y="116"/>
			<point x="178" y="146"/>
			<point x="178" y="200" type="curve" smooth="yes"/>
			<point x="178" y="276"/>
			<point x="232" y="354"/>
			<point x="336" y="354" type="curve"/>
			<point x="286" y="440" type="line"/>
			<point x="142" y="440"/>
			<point x="24" y="318"/>
			<point x="24" y="182" type="curve" smooth="yes"/>
			<point x="24" y="60"/>
			<point x="110" y="-12"/>
		</contour>
	</outline>
</glyph>
<glyph name="iotaadscript" format="2">
	<unicode hex="1FBE"/>
	<advance width="286"/>
	<outline>
		<contour>
			<point x="148" y="-12" type="curve" smooth="yes"/>
			<point x="184" y="-12"/>
			<point x="212" y="-6"/>
			<point x="230" y="0" type="curve"/>
			<point x="236" y="118" type="line"/>
			<point x="228" y="116"/>
			<point x="218" y="116"/>
			<point x="212" y="116" type="curve" smooth="yes"/>
			<point x="198" y="116"/>
			<point x="186" y="122"/>
			<point x="186" y="142" type="curve" smooth="yes"/>
			<point x="186" y="161"/>
			<point x="215" y="266"/>
			<point x="254" y="420" type="curve"/>
			<point x="92" y="420" type="line"/>
			<point x="42" y="166" type="line" smooth="yes"/>
			<point x="37" y="138"/>
			<point x="34" y="118"/>
			<point x="34" y="98" type="curve" smooth="yes"/>
			<point x="34" y="30"/>
			<point x="66" y="-12"/>
		</contour>
	</outline>
</glyph>
<glyph name="quoteright" format="2">
	<unicode hex="2019"/>
	<advance width="310"/>
	<outline>
		<contour>
			<point x="130" y="348" type="line"/>
			<point x="230" y="376"/>
			<point x="318" y="458"/>
			<point x="318" y="588" type="curve" smooth="yes"/>
			<point x="318" y="656"/>
			<point x="286" y="696"/>
			<point x="236" y="696" type="curve" smooth="yes"/>
			<point x="178" y="696"/>
			<point x="142" y="652"/>
			<point x="142" y="604" type="curve" smooth="yes"/>
			<point x="142" y="560"/>
			<point x="176" y="534"/>
			<point x="222" y="534" type="curve" smooth="yes"/>
			<point x="238" y="534"/>
			<point x="254" y="542"/>
			<point x="268" y="552" type="curve"/>
			<point x="238" y="624" type="line"/>
			<point x="228" y="536" type="line"/>
			<point x="228" y="506"/>
			<point x="185" y="443"/>
			<point x="106" y="416" type="curve"/>
		</contour>
	</outline>
</glyph>
<glyph name="dagger" format="2">
	<unicode hex="2020"/>
	<advance width="508"/>
	<outline>
		<contour>
			<point x="124" y="-80" type="line"/>
			<point x="252" y="-80" type="line"/>
			<point x="344" y="428" type="line"/>
			<point x="502" y="418" type="line"/>
			<point x="526" y="546" type="line"/>
			<point x="364" y="536" type="line"/>
			<point x="410" y="712" type="line"/>
			<point x="282" y="712" type="line"/>
			<point x="256" y="536" type="line"/>
			<point x="100" y="546" type="line"/>
			<point x="74" y="418" type="line"/>
			<point x="236" y="428" type="line"/>
		</contour>
	</outline>
</glyph>
<glyph name="prime" format="2">
	<unicode hex="2032"/>
	<advance width="310"/>
	<outline>
		<contour>
			<point x="98" y="364" type="line"/>
			<point x="202" y="364" type="line"/>
			<point x="290" y="544" type="line"/>
			<point x="340" y="684" type="line"/>
			<point x="182" y="684" type="line"/>
		</contour>
	</outline>
</glyph>
<glyph name="undertie" format="2">
	<unicode hex="203F"/>
	<advance width="572"/>
	<outline>
		<contour>
			<point x="220" y="-230" type="curve" smooth="yes"/>
			<point x="342" y="-230"/>
			<point x="446" y="-188"/>
			<point x="530" y="-108" type="curve"/>
			<point x="478" y="-30" type="line"/>
			<point x="404" y="-92"/>
			<point x="322" y="-122"/>
			<point x="240" y="-122" type="curve" smooth="yes"/>
			<point x="154" y="-122"/>
			<point x="69" y="-94"/>
			<point x="22" y="-30" type="curve"/>
			<point x="-42" y="-108" type="line"/>
			<point x="4" y="-188"/>
			<point x="110" y="-230"/>
		</contour>
	</outline>
</glyph>
<glyph name="n.sups" format="2">
	<unicode hex="207F"/>
	<advance width="376"/>
	<outline>
		<contour>
			<point x="64" y="368" type="line"/>
			<point x="176" y="368" type="line"/>
			<point x="217" y="578" type="line"/>
			<point x="239" y="602"/>
			<point x="255" y="614"/>
			<point x="273" y="614" type="curve" smooth="yes"/>
			<point x="289" y="614"/>
			<point x="298" y="605"/>
			<point x="298" y="587" type="curve" smooth="yes"/>
			<point x="298" y="580"/>
			<point x="297" y="571"/>
			<point x="294" y="559" type="curve" smooth="yes"/>
			<point x="256" y="368" type="line"/>
			<point x="368" y="368" type="line"/>
			<point x="409" y="573" type="line"/>
			<point x="411" y="587"/>
			<point x="415" y="604"/>
			<point x="415" y="619" type="curve" smooth="yes"/>
			<point x="415" y="676"/>
			<point x="389" y="708"/>
			<point x="334" y="708" type="curve" smooth="yes"/>
			<point x="291" y="708"/>
			<point x="254" y="684"/>
			<point x="224" y="656" type="curve"/>
			<point x="220" y="656" type="line"/>
			<point x="220" y="700" type="line"/>
			<point x="130" y="700" type="line"/>
		</contour>
	</outline>
</glyph>
<glyph name="colonmonetary" format="2">
	<unicode hex="20A1"/>
	<advance width="520"/>
	<outline>
		<contour>
			<point x="308" y="-12" type="curve" smooth="yes"/>
			<point x="362" y="-12"/>
			<point x="424" y="6"/>
			<point x="484" y="62" type="curve"/>
			<point x="426" y="156" type="line"/>
			<point x="398" y="128"/>
			<point x="362" y="116"/>
			<point x="328" y="116" type="curve" smooth="yes"/>
			<point x="248" y="116"/>
			<point x="210" y="165"/>
			<point x="210" y="250" type="curve" smooth="yes"/>
			<point x="210" y="397"/>
			<point x="272" y="518"/>
			<point x="388" y="518" type="curve" smooth="yes"/>
			<point x="430" y="518"/>
			<point x="466" y="494"/>
			<point x="476" y="472" type="curve"/>
			<point x="570" y="550" type="line"/>
			<point x="544" y="604"/>
			<point x="474" y="646"/>
			<point x="398" y="646" type="curve" smooth="yes"/>
			<point x="216" y="646"/>
			<point x="56" y="490"/>
			<point x="56" y="242" type="curve" smooth="yes"/>
			<point x="56" y="78"/>
			<point x="160" y="-12"/>
		</contour>
		<contour>
			<point x="120" y="-104" type="line"/>
			<point x="170" y="-116" type="line"/>
			<point x="442" y="748" type="line"/>
			<point x="392" y="760" type="line"/>
		</contour>
		<contour>
			<point x="206" y="-104" type="line"/>
			<point x="256" y="-116" type="line"/>
			<point x="528" y="748" type="line"/>
			<point x="478" y="760" type="line"/>
		</contour>
	</outline>
</glyph>
<glyph name="franc" format="2">
	<unicode hex="20A3"/>
	<advance width="520"/>
	<outline>
		<contour>
			<point x="62" y="0" type="line"/>
			<point x="212" y="0" type="line"/>
			<point x="264" y="260" type="line"/>
			<point x="448" y="260" type="line"/>
			<point x="474" y="394" type="line"/>
			<point x="290" y="394" type="line"/>
			<point x="312" y="500" type="line"/>
			<point x="538" y="500" type="line"/>
			<point x="564" y="634" type="line"/>
			<point x="190" y="634" type="line"/>
		</contour>
		<contour>
			<point x="4" y="90" type="line"/>
			<point x="368" y="90" type="line"/>
			<point x="388" y="188" type="line"/>
			<point x="102" y="188" type="line"/>
			<point x="22" y="182" type="line"/>
		</contour>
	</outline>
</glyph>
<glyph name="lira" format="2">
	<unicode hex="20A4"/>
	<advance width="520"/>
	<outline>
		<contour>
			<point x="-4" y="0" type="line"/>
			<point x="442" y="0" type="line"/>
			<point x="466" y="134" type="line"/>
			<point x="240" y="134" type="line"/>
			<point x="240" y="138" type="line"/>
			<point x="280" y="186"/>
			<point x="296" y="230"/>
			<point x="296" y="296" type="curve" smooth="yes"/>
			<point x="296" y="323"/>
			<point x="288" y="357"/>
			<point x="288" y="384" type="curve" smooth="yes"/>
			<point x="288" y="480"/>
			<point x="330" y="518"/>
			<point x="378" y="518" type="curve" smooth="yes"/>
			<point x="408" y="518"/>
			<point x="434" y="504"/>
			<point x="456" y="476" type="curve"/>
			<point x="546" y="560" type="line"/>
			<point x="510" y="614"/>
			<point x="452" y="646"/>
			<point x="386" y="646" type="curve" smooth="yes"/>
			<point x="250" y="646"/>
			<point x="140" y="550"/>
			<point x="140" y="408" type="curve" smooth="yes"/>
			<point x="140" y="369"/>
			<point x="152" y="317"/>
			<point x="152" y="278" type="curve" smooth="yes"/>
			<point x="152" y="194"/>
			<point x="98" y="132"/>
			<point x="16" y="98" type="curve"/>
		</contour>
		<contour>
			<point x="68" y="342" type="line"/>
			<point x="422" y="342" type="line"/>
			<point x="438" y="422" type="line"/>
			<point x="156" y="422" type="line"/>
			<point x="84" y="416" type="line"/>
		</contour>
		<contour>
			<point x="42" y="214" type="line"/>
			<point x="394" y="214" type="line"/>
			<point x="410" y="294" type="line"/>
			<point x="130" y="294" type="line"/>
			<point x="58" y="288" type="line"/>
		</contour>
	</outline>
</glyph>
<glyph name="won" format="2">
	<unicode hex="20A9"/>
	<advance width="520"/>
	<outline>
		<contour>
			<point x="29" y="0" type="line"/>
			<point x="182" y="0" type="line"/>
			<point x="257" y="284" type="line"/>
			<point x="308" y="484" type="line"/>
			<point x="312" y="484" type="line"/>
			<point x="283" y="285" type="line"/>
			<point x="246" y="0" type="line"/>
			<point x="403" y="0" type="line"/>
			<point x="592" y="634" type="line"/>
			<point x="465" y="634" type="line"/>
			<point x="376" y="259" type="line"/>
			<point x="342" y="109" type="line"/>
			<point x="338" y="109" type="line"/>
			<point x="356" y="259" type="line"/>
			<point x="394" y="594" type="line"/>
			<point x="277" y="594" type="line"/>
			<point x="183" y="259" type="line"/>
			<point x="143" y="109" type="line"/>
			<point x="139" y="109" type="line"/>
			<point x="165" y="259" type="line"/>
			<point x="226" y="634" type="line"/>
			<point x="88" y="634" type="line"/>
		</contour>
		<contour>
			<point x="-6" y="290" type="line"/>
			<point x="546" y="290" type="line"/>
			<point x="558" y="352" type="line"/>
			<point x="74" y="352" type="line"/>
			<point x="6" y="346" type="line"/>
		</contour>
	</outline>
</glyph>
<glyph name="Euro" format="1">
	<unicode hex="20AC"/>
	<advance width="520"/>
	<outline>
		<contour>
			<point x="308" y="-12" type="curve" smooth="yes"/>
			<point x="358" y="-12"/>
			<point x="416" y="8"/>
			<point x="474" y="62" type="curve"/>
			<point x="416" y="156" type="line"/>
			<point x="390" y="130"/>
			<point x="358" y="116"/>
			<point x="328" y="116" type="curve" smooth="yes"/>
			<point x="266" y="116"/>
			<point x="236" y="166"/>
			<point x="236" y="252" type="curve" smooth="yes"/>
			<point x="236" y="398"/>
			<point x="288" y="518"/>
			<point x="388" y="518" type="curve" smooth="yes"/>
			<point x="422" y="518"/>
			<point x="450" y="494"/>
			<point x="460" y="472" type="curve"/>
			<point x="554" y="550" type="line"/>
			<point x="528" y="603"/>
			<point x="468" y="646"/>
			<point x="398" y="646" type="curve" smooth="yes"/>
			<point x="226" y="646"/>
			<point x="76" y="490"/>
			<point x="76" y="242" type="curve" smooth="yes"/>
			<point x="76" y="78"/>
			<point x="172" y="-12"/>
		</contour>
		<contour>
			<point x="14" y="214" type="line"/>
			<point x="380" y="214" type="line"/>
			<point x="396" y="294" type="line"/>
			<point x="102" y="294" type="line"/>
			<point x="30" y="288" type="line"/>
		</contour>
		<contour>
			<point x="40" y="342" type="line"/>
			<point x="444" y="342" type="line"/>
			<point x="460" y="422" type="line"/>
			<point x="128" y="422" type="line"/>
			<point x="56" y="416" type="line"/>
		</contour>
	</outline>
</glyph>
<glyph name="tugrik" format="1">
	<unicode hex="20AE"/>
	<advance width="540"/>
	<outline>
		<contour>
			<point x="132" y="0" type="line"/>
			<point x="292" y="0" type="line"/>
			<point x="394" y="510" type="line"/>
			<point x="546" y="510" type="line"/>
			<point x="570" y="634" type="line"/>
			<point x="106" y="634" type="line"/>
			<point x="82" y="510" type="line"/>
			<point x="234" y="510" type="line"/>
		</contour>
		<contour>
			<point x="50" y="66" type="line"/>
			<point x="160" y="118" type="line"/>
			<point x="320" y="186" type="line"/>
			<point x="470" y="258" type="line"/>
			<point x="444" y="322" type="line"/>
			<point x="344" y="272" type="line"/>
			<point x="184" y="204" type="line"/>
			<point x="24" y="130" type="line"/>
		</contour>
		<contour>
			<point x="80" y="210" type="line"/>
			<point x="190" y="262" type="line"/>
			<point x="350" y="330" type="line"/>
			<point x="500" y="402" type="line"/>
			<point x="474" y="466" type="line"/>
			<point x="374" y="416" type="line"/>
			<point x="214" y="348" type="line"/>
			<point x="54" y="274" type="line"/>
		</contour>
	</outline>
</glyph>
<glyph name="hryvnia" format="2">
	<unicode hex="20B4"/>
	<advance width="520"/>
	<outline>
		<contour>
			<point x="240" y="-12" type="curve" smooth="yes"/>
			<point x="294" y="-12"/>
			<point x="380" y="12"/>
			<point x="448" y="70" type="curve"/>
			<point x="392" y="162" type="line"/>
			<point x="340" y="126"/>
			<point x="298" y="110"/>
			<point x="260" y="110" type="curve" smooth="yes"/>
			<point x="226" y="110"/>
			<point x="210" y="128"/>
			<point x="210" y="157" type="curve" smooth="yes"/>
			<point x="210" y="276"/>
			<point x="487" y="292"/>
			<point x="487" y="502" type="curve" smooth="yes"/>
			<point x="487" y="593"/>
			<point x="424" y="646"/>
			<point x="316" y="646" type="curve" smooth="yes"/>
			<point x="238" y="646"/>
			<point x="178" y="614"/>
			<point x="124" y="574" type="curve"/>
			<point x="183" y="478" type="line"/>
			<point x="222" y="508"/>
			<point x="256" y="525"/>
			<point x="289" y="525" type="curve" smooth="yes"/>
			<point x="319" y="525"/>
			<point x="334" y="509"/>
			<point x="334" y="482" type="curve" smooth="yes"/>
			<point x="334" y="369"/>
			<point x="58" y="360"/>
			<point x="58" y="139" type="curve" smooth="yes"/>
			<point x="58" y="48"/>
			<point x="120" y="-12"/>
		</contour>
		<contour>
			<point x="16" y="214" type="line"/>
			<point x="486" y="214" type="line"/>
			<point x="502" y="294" type="line"/>
			<point x="105" y="294" type="line"/>
			<point x="32" y="288" type="line"/>
		</contour>
		<contour>
			<point x="42" y="342" type="line"/>
			<point x="512" y="342" type="line"/>
			<point x="528" y="422" type="line"/>
			<point x="130" y="422" type="line"/>
			<point x="58" y="416" type="line"/>
		</contour>
	</outline>
</glyph>
